<svg xmlns="http://www.w3.org/2000/svg" xmlns:xlink="http://www.w3.org/1999/xlink" width="1080" zoomAndPan="magnify" viewBox="0 0 810 809.999993" height="1080" preserveAspectRatio="xMidYMid meet" version="1.0"><defs><clipPath id="0a2da772db"><path d="M 76 275 L 728 275 L 728 680 L 76 680 Z M 76 275 " clip-rule="nonzero"/></clipPath><clipPath id="101a5e99b0"><path d="M 38 92.476562 L 809.703125 220.503906 L 727.214844 717.707031 L -44.488281 589.679688 Z M 38 92.476562 " clip-rule="nonzero"/></clipPath><clipPath id="8e044495a5"><path d="M 38 92.476562 L 809.703125 220.503906 L 727.214844 717.707031 L -44.488281 589.679688 Z M 38 92.476562 " clip-rule="nonzero"/></clipPath><clipPath id="a9c1a8f36d"><path d="M 15 213 L 101 213 L 101 298 L 15 298 Z M 15 213 " clip-rule="nonzero"/></clipPath><clipPath id="f3db64a6a9"><path d="M 38 92.476562 L 809.703125 220.503906 L 727.214844 717.707031 L -44.488281 589.679688 Z M 38 92.476562 " clip-rule="nonzero"/></clipPath><clipPath id="1eb3ad7371"><path d="M 38 92.476562 L 809.703125 220.503906 L 727.214844 717.707031 L -44.488281 589.679688 Z M 38 92.476562 " clip-rule="nonzero"/></clipPath><clipPath id="1f9bcc9503"><path d="M 366 157 L 469 157 L 469 255 L 366 255 Z M 366 157 " clip-rule="nonzero"/></clipPath><clipPath id="b2c0585373"><path d="M 38 92.476562 L 809.703125 220.503906 L 727.214844 717.707031 L -44.488281 589.679688 Z M 38 92.476562 " clip-rule="nonzero"/></clipPath><clipPath id="be5d17b84c"><path d="M 38 92.476562 L 809.703125 220.503906 L 727.214844 717.707031 L -44.488281 589.679688 Z M 38 92.476562 " clip-rule="nonzero"/></clipPath><clipPath id="512874e8c9"><path d="M 376 180 L 378 180 L 378 182 L 376 182 Z M 376 180 " clip-rule="nonzero"/></clipPath><clipPath id="62f43900d2"><path d="M 38 92.476562 L 809.703125 220.503906 L 727.214844 717.707031 L -44.488281 589.679688 Z M 38 92.476562 " clip-rule="nonzero"/></clipPath><clipPath id="25af3e4e95"><path d="M 38 92.476562 L 809.703125 220.503906 L 727.214844 717.707031 L -44.488281 589.679688 Z M 38 92.476562 " clip-rule="nonzero"/></clipPath><clipPath id="2d78c0bb03"><path d="M 706 219 L 793 219 L 793 318 L 706 318 Z M 706 219 " clip-rule="nonzero"/></clipPath><clipPath id="09ecd200b9"><path d="M 38 92.476562 L 809.703125 220.503906 L 727.214844 717.707031 L -44.488281 589.679688 Z M 38 92.476562 " clip-rule="nonzero"/></clipPath><clipPath id="1e7e0c0cc6"><path d="M 38 92.476562 L 809.703125 220.503906 L 727.214844 717.707031 L -44.488281 589.679688 Z M 38 92.476562 " clip-rule="nonzero"/></clipPath></defs><g clip-path="url(#0a2da772db)"><g clip-path="url(#101a5e99b0)"><g clip-path="url(#8e044495a5)"><path fill="#cdad7d" d="M 726.25 341.3125 C 725.84375 337.042969 724.347656 333.363281 720.449219 331.089844 C 716.816406 328.972656 712.597656 329.117188 708.914062 330.964844 C 682.6875 344.09375 655.324219 354.722656 628.105469 365.585938 C 598.933594 377.230469 569.769531 389.007812 541.589844 402.929688 C 514.113281 416.5 486.726562 432.40625 463.738281 453.027344 C 461.371094 427.324219 457.421875 401.730469 452.96875 376.355469 C 447.585938 345.671875 440.867188 315.179688 433.339844 284.957031 C 432.328125 280.894531 430.089844 277.539062 425.996094 276.035156 C 422.300781 274.675781 417.773438 275.304688 414.761719 277.941406 C 393.179688 296.835938 372.359375 316.613281 352.550781 337.363281 C 330.269531 360.703125 308.8125 385.203125 290.75 412.003906 C 280.578125 427.09375 271.164062 443.105469 264.253906 460.066406 C 262.765625 458.238281 261.253906 456.4375 259.738281 454.65625 C 251.722656 445.226562 243.183594 436.179688 234.359375 427.503906 C 213.855469 407.335938 192.121094 388.257812 169.4375 370.574219 C 155.148438 359.4375 140.300781 349.0625 124.683594 339.863281 C 113 332.980469 100.414062 326.585938 87.035156 323.800781 C 80.710938 322.488281 76.519531 327.925781 76.371094 333.597656 C 75.375 371.191406 78.835938 408.675781 84.082031 445.867188 C 89.378906 483.425781 97.371094 520.832031 107.292969 557.425781 C 110.835938 570.496094 114.328125 583.574219 117.890625 596.636719 C 117.433594 597.390625 117.164062 598.289062 117.167969 599.332031 C 117.171875 600.738281 117.746094 602.101562 118.742188 603.09375 C 118.847656 603.199219 119.554688 603.675781 120.332031 604.105469 C 121.585938 605.738281 123.6875 606.320312 125.761719 606.074219 C 128.242188 606.804688 131.371094 607.519531 132.210938 607.691406 C 135.054688 608.265625 137.875 608.9375 140.71875 609.507812 C 145.371094 610.441406 150.0625 611.175781 154.722656 612.09375 C 164.203125 613.960938 173.683594 615.847656 183.175781 617.671875 C 200.539062 621.003906 217.824219 624.671875 235.132812 628.269531 C 268.039062 635.113281 300.910156 642.140625 333.835938 648.90625 C 398.765625 662.242188 464.316406 673.71875 530.550781 677.886719 C 540.953125 678.542969 551.371094 678.996094 561.792969 679.265625 C 568.636719 679.441406 575.734375 678.414062 582.554688 677.902344 C 596.929688 676.832031 611.464844 675.902344 625.730469 673.710938 C 627.375 674.625 629.253906 675.1875 631.289062 675.289062 C 638.195312 675.628906 644.746094 670.027344 644.886719 662.953125 C 645.523438 630.765625 654.167969 599.523438 664.691406 569.308594 C 676.300781 535.96875 690.5625 503.644531 702.652344 470.488281 C 717.601562 429.5 730.417969 385.410156 726.25 341.3125 Z M 690.566406 431.660156 C 680.105469 464.472656 666.445312 496.199219 653.582031 528.113281 C 637.574219 567.839844 622.035156 609.519531 619.328125 652.644531 C 609.941406 654.011719 600.445312 654.78125 591 655.5625 C 578.636719 656.59375 566.3125 657.710938 553.90625 657.289062 C 520.773438 656.160156 487.738281 652.9375 454.902344 648.445312 C 390.5625 639.640625 327.050781 625.757812 263.34375 613.386719 C 240.832031 609.015625 218.320312 604.957031 195.6875 601.28125 C 184.839844 599.519531 173.957031 597.925781 163.039062 596.660156 C 152.359375 595.421875 141.238281 593.445312 130.335938 593.523438 C 121.425781 556.585938 113.648438 519.347656 107.34375 481.878906 C 101.097656 444.742188 96.246094 407.371094 94.726562 369.703125 C 94.394531 361.480469 94.246094 353.246094 94.28125 345.019531 C 98.328125 346.644531 102.273438 348.523438 106.152344 350.511719 C 116.390625 355.761719 124.527344 361.003906 134.21875 367.679688 C 156.28125 382.882812 177.128906 399.984375 196.566406 418.414062 C 209.699219 430.863281 222.605469 443.742188 234.351562 457.527344 C 243.179688 467.890625 251.800781 478.5 258.464844 490.414062 C 263.433594 499.304688 276.40625 495.652344 278.695312 486.824219 C 279.449219 483.933594 280.292969 481.070312 281.21875 478.230469 C 281.25 478.140625 281.285156 478.042969 281.328125 477.925781 C 281.589844 477.1875 281.863281 476.453125 282.132812 475.722656 C 282.777344 473.988281 283.464844 472.265625 284.164062 470.554688 C 286.785156 464.140625 289.8125 457.898438 293.050781 451.777344 C 293.859375 450.246094 294.695312 448.726562 295.535156 447.214844 C 295.957031 446.449219 296.390625 445.6875 296.824219 444.925781 C 296.894531 444.800781 297.078125 444.488281 297.261719 444.171875 C 299.195312 440.902344 301.199219 437.679688 303.25 434.484375 C 307.402344 428 311.792969 421.664062 316.300781 415.421875 C 325.578125 402.566406 335.582031 390.242188 345.96875 378.265625 C 348.488281 375.359375 351.039062 372.480469 353.609375 369.613281 C 354.890625 368.1875 356.179688 366.765625 357.476562 365.34375 C 358.121094 364.636719 358.769531 363.929688 359.417969 363.226562 C 359.617188 363.003906 360.601562 361.941406 361.066406 361.441406 C 366.269531 355.859375 371.5625 350.355469 376.917969 344.917969 C 389.390625 332.25 402.246094 319.957031 415.414062 308.007812 C 421.0625 332.203125 426.019531 356.539062 430.109375 381.0625 C 435.488281 413.300781 438.691406 445.777344 440.484375 478.394531 C 440.640625 481.191406 441.695312 483.839844 443.410156 485.933594 C 447.164062 492.824219 457.945312 495.46875 463.589844 488.816406 C 481.640625 467.539062 504.527344 451.242188 528.585938 437.421875 C 554.988281 422.257812 582.957031 409.964844 611.027344 398.253906 C 641.882812 385.375 673.285156 373.511719 703.632812 359.410156 C 703.300781 384.0625 697.886719 408.6875 690.566406 431.660156 Z M 690.566406 431.660156 " fill-opacity="1" fill-rule="nonzero"/></g></g></g><g clip-path="url(#a9c1a8f36d)"><g clip-path="url(#f3db64a6a9)"><g clip-path="url(#1eb3ad7371)"><path fill="#cdad7d" d="M 100.347656 253.449219 C 96.523438 234.359375 78.214844 220.421875 60.367188 215.292969 C 58.058594 214.628906 55.707031 214.101562 53.351562 213.632812 C 49.554688 212.878906 45.699219 213.230469 41.960938 214.097656 C 40.035156 214.546875 38.585938 215.777344 37.652344 217.367188 C 36.304688 217.207031 34.910156 217.511719 33.792969 218.390625 C 17.445312 231.21875 11.238281 253.695312 19.378906 272.96875 C 26.214844 289.152344 42.457031 299.632812 60.132812 297.515625 C 71.320312 296.175781 82.839844 290.488281 90.796875 282.570312 C 98.566406 274.84375 102.539062 264.375 100.347656 253.449219 Z M 83.265625 265.488281 C 83.242188 265.546875 83.207031 265.617188 83.164062 265.71875 C 83.003906 266.09375 82.816406 266.457031 82.632812 266.820312 C 82.183594 267.703125 81.648438 268.542969 81.089844 269.355469 C 79.171875 272.136719 75.046875 275.3125 71.484375 277.34375 C 69.28125 278.597656 66.984375 279.707031 64.621094 280.617188 C 63.660156 280.988281 62.679688 281.304688 61.695312 281.597656 C 61.21875 281.738281 60.738281 281.863281 60.257812 281.984375 C 60.253906 281.988281 60.25 281.988281 60.246094 281.988281 C 60.136719 282.007812 59.996094 282.035156 59.820312 282.066406 C 58.167969 282.382812 56.488281 282.539062 54.808594 282.589844 C 54.15625 282.609375 53.503906 282.59375 52.851562 282.5625 C 52.726562 282.546875 52.160156 282.5 51.992188 282.480469 C 51.574219 282.425781 51.160156 282.355469 50.746094 282.28125 C 49.3125 282.035156 47.90625 281.640625 46.535156 281.160156 C 46.730469 281.207031 45.152344 280.554688 44.828125 280.394531 C 44.109375 280.039062 43.414062 279.636719 42.726562 279.21875 C 42.15625 278.875 41.605469 278.496094 41.0625 278.113281 C 40.8125 277.9375 40.574219 277.75 40.332031 277.566406 C 40.234375 277.488281 40.140625 277.414062 40.085938 277.363281 C 38.863281 276.308594 37.746094 275.136719 36.703125 273.90625 C 36.175781 273.289062 35.683594 272.640625 35.203125 271.988281 C 34.976562 271.679688 34.761719 271.367188 34.550781 271.054688 C 34.519531 271.003906 34.488281 270.953125 34.449219 270.886719 C 33.585938 269.472656 32.847656 267.988281 32.183594 266.46875 C 26.492188 253.46875 29.054688 238.402344 39.214844 228.511719 C 39.738281 228.917969 40.335938 229.253906 41.015625 229.496094 C 44.730469 230.8125 48.246094 231.523438 52.066406 232.28125 C 52.144531 232.300781 52.246094 232.320312 52.355469 232.34375 C 52.636719 232.417969 52.917969 232.484375 53.195312 232.5625 C 54.375 232.875 55.539062 233.246094 56.699219 233.636719 C 58.671875 234.300781 60.605469 235.097656 62.5 235.964844 C 63.289062 236.328125 64.066406 236.714844 64.835938 237.113281 C 64.882812 237.140625 64.921875 237.164062 64.957031 237.183594 C 65.550781 237.519531 66.132812 237.875 66.714844 238.230469 C 72.910156 242.027344 78.757812 246.734375 82.128906 253.300781 C 82.488281 253.996094 82.800781 254.714844 83.09375 255.441406 C 83.238281 255.796875 83.363281 256.164062 83.492188 256.527344 C 83.210938 255.726562 83.566406 256.90625 83.585938 256.980469 C 83.761719 257.710938 83.882812 258.453125 83.984375 259.195312 C 84.03125 259.566406 84.058594 259.9375 84.089844 260.308594 C 84.097656 260.4375 84.085938 261.332031 84.101562 261.363281 C 83.992188 262.765625 83.691406 264.148438 83.265625 265.488281 Z M 83.265625 265.488281 " fill-opacity="1" fill-rule="nonzero"/></g></g></g><g clip-path="url(#1f9bcc9503)"><g clip-path="url(#b2c0585373)"><g clip-path="url(#be5d17b84c)"><path fill="#cdad7d" d="M 438.542969 160.308594 C 431.945312 157.949219 425.207031 157.167969 418.226562 157.699219 C 414.515625 157.980469 410.949219 158.886719 407.363281 159.839844 C 404.855469 160.503906 402.539062 161.695312 400.171875 162.738281 C 397.484375 163.921875 395.1875 165.542969 393.144531 167.554688 C 388.410156 170.039062 384.148438 173.382812 380.496094 177.28125 C 379.453125 178.394531 378.484375 179.570312 377.539062 180.769531 C 377.121094 181.324219 376.136719 182.625 375.824219 183.078125 C 375.070312 184.164062 374.375 185.292969 373.710938 186.4375 C 372.449219 188.625 371.371094 190.917969 370.453125 193.269531 C 366.496094 203.398438 365.257812 214.941406 368.425781 225.46875 C 371.816406 236.742188 379.585938 245.707031 390.414062 250.453125 C 397.175781 253.414062 404.484375 254.1875 411.777344 254.199219 C 420.164062 254.214844 428.578125 252.664062 436.476562 249.902344 C 449.910156 245.203125 460.441406 235.085938 465.632812 221.882812 C 474.804688 198.554688 462.40625 168.839844 438.542969 160.308594 Z M 450.269531 211.601562 C 450.019531 212.820312 449.691406 214.019531 449.316406 215.203125 C 449.128906 215.800781 448.917969 216.386719 448.699219 216.972656 C 448.597656 217.242188 448.398438 217.71875 448.230469 218.113281 C 447.210938 220.183594 445.972656 222.144531 444.574219 223.980469 C 444.433594 224.167969 444.179688 224.472656 443.957031 224.746094 C 443.714844 225.007812 443.472656 225.261719 443.230469 225.515625 C 442.195312 226.589844 441.082031 227.578125 439.929688 228.515625 C 439.382812 228.964844 438.816406 229.386719 438.242188 229.800781 C 438.054688 229.941406 437.859375 230.070312 437.667969 230.203125 C 436.390625 231 435.0625 231.71875 433.710938 232.378906 C 432.273438 233.078125 430.796875 233.683594 429.296875 234.234375 C 428.980469 234.351562 427.746094 234.75 427.476562 234.847656 C 426.742188 235.054688 426.003906 235.25 425.261719 235.429688 C 421.605469 236.320312 417.84375 236.835938 414.097656 237.15625 C 412.660156 237.277344 411.214844 237.339844 409.769531 237.355469 C 410.140625 237.339844 408.410156 237.308594 408.070312 237.289062 C 407.226562 237.242188 406.386719 237.167969 405.550781 237.078125 C 404.183594 236.929688 402.828125 236.703125 401.484375 236.425781 C 400.84375 236.292969 400.207031 236.136719 399.574219 235.972656 C 399.386719 235.925781 399.199219 235.871094 399.011719 235.816406 C 399.011719 235.816406 399.007812 235.816406 399.003906 235.816406 C 396.722656 235.039062 394.527344 234.023438 392.476562 232.757812 C 392.3125 232.65625 392.011719 232.449219 391.757812 232.273438 C 391.503906 232.078125 391.253906 231.875 391.003906 231.671875 C 390.125 230.949219 389.300781 230.160156 388.523438 229.332031 C 388.167969 228.957031 387.828125 228.5625 387.496094 228.167969 C 387.390625 228.039062 387.285156 227.910156 387.183594 227.78125 C 386.550781 226.882812 385.980469 225.9375 385.457031 224.972656 C 384.96875 224.070312 384.539062 223.136719 384.148438 222.1875 C 384.070312 222 383.796875 221.207031 383.742188 221.074219 C 383.605469 220.621094 383.476562 220.167969 383.355469 219.710938 C 382.800781 217.589844 382.476562 215.414062 382.324219 213.230469 C 382.300781 212.882812 382.285156 212.535156 382.273438 212.1875 C 382.292969 212.535156 382.285156 211.253906 382.292969 210.957031 C 382.328125 209.78125 382.429688 208.605469 382.566406 207.4375 C 382.832031 205.164062 383.308594 202.914062 383.9375 200.710938 C 384.011719 200.445312 384.09375 200.179688 384.175781 199.914062 C 384.179688 199.898438 384.179688 199.890625 384.1875 199.875 C 384.203125 199.832031 384.222656 199.773438 384.253906 199.679688 C 384.441406 199.152344 384.640625 198.628906 384.84375 198.109375 C 385.292969 196.976562 385.796875 195.867188 386.332031 194.777344 C 388.480469 190.429688 391.367188 186.257812 394.960938 182.984375 C 395.675781 182.332031 396.417969 181.714844 397.175781 181.125 C 399.582031 180.886719 402.207031 180.65625 404.46875 179.785156 C 405.382812 179.433594 406.308594 179.121094 407.246094 178.835938 C 408.300781 178.511719 409.359375 178.210938 410.421875 177.914062 C 411.261719 177.679688 412.105469 177.464844 412.949219 177.234375 C 413.015625 177.21875 413.105469 177.199219 413.234375 177.167969 C 413.78125 177.039062 414.332031 176.925781 414.886719 176.8125 C 416.476562 176.488281 418.089844 176.257812 419.703125 176.09375 C 420.480469 176.015625 421.257812 175.964844 422.035156 175.925781 C 422.242188 175.914062 422.449219 175.910156 422.652344 175.902344 C 425.390625 175.945312 428.117188 176.3125 430.769531 176.972656 C 430.871094 177.003906 430.972656 177.035156 431.074219 177.070312 C 431.683594 177.269531 432.28125 177.496094 432.878906 177.734375 C 434.148438 178.234375 435.378906 178.832031 436.578125 179.488281 C 436.808594 179.613281 437.035156 179.746094 437.261719 179.878906 C 437.527344 180.050781 437.808594 180.234375 437.992188 180.363281 C 439.078125 181.132812 440.109375 181.976562 441.097656 182.867188 C 441.726562 183.433594 442.328125 184.027344 442.910156 184.640625 C 443.15625 184.921875 443.535156 185.363281 443.71875 185.589844 C 444.160156 186.148438 444.582031 186.722656 444.992188 187.304688 C 445.695312 188.300781 446.335938 189.339844 446.941406 190.398438 C 447.203125 190.859375 447.449219 191.328125 447.691406 191.800781 C 447.742188 191.917969 447.800781 192.035156 447.851562 192.152344 C 448.875 194.492188 449.644531 196.9375 450.203125 199.429688 C 450.261719 199.6875 450.3125 199.941406 450.363281 200.199219 C 450.382812 200.375 450.539062 201.347656 450.574219 201.691406 C 450.722656 203.015625 450.789062 204.347656 450.800781 205.683594 C 450.8125 206.914062 450.75 208.148438 450.644531 209.375 C 450.632812 209.511719 450.617188 209.652344 450.601562 209.789062 C 450.507812 210.394531 450.394531 211 450.269531 211.601562 Z M 450.269531 211.601562 " fill-opacity="1" fill-rule="nonzero"/></g></g></g><g clip-path="url(#512874e8c9)"><g clip-path="url(#62f43900d2)"><g clip-path="url(#25af3e4e95)"><path fill="#cdad7d" d="M 376.9375 181.542969 C 377.136719 181.285156 377.339844 181.027344 377.539062 180.769531 C 377.863281 180.34375 377.851562 180.359375 376.9375 181.542969 Z M 376.9375 181.542969 " fill-opacity="1" fill-rule="nonzero"/></g></g></g><g clip-path="url(#2d78c0bb03)"><g clip-path="url(#09ecd200b9)"><g clip-path="url(#1e7e0c0cc6)"><path fill="#cdad7d" d="M 776.667969 230.351562 C 769.640625 223.585938 760.503906 219.109375 750.609375 219.160156 C 744.882812 219.1875 739.632812 220.730469 734.457031 223.0625 C 726.59375 226.605469 717.539062 234.097656 717.617188 243.351562 C 716.347656 245.035156 715.195312 246.800781 714.183594 248.636719 C 707.828125 260.148438 705.269531 274.117188 708.125 287.042969 C 711.074219 300.394531 719.347656 311.566406 732.550781 316.066406 C 738.769531 318.191406 745.820312 318.160156 752.207031 316.851562 C 760.765625 315.097656 769.027344 311.585938 775.875 306.09375 C 798.855469 287.652344 797.125 250.054688 776.667969 230.351562 Z M 770.828125 283.515625 C 770.742188 283.691406 770.65625 283.863281 770.566406 284.039062 C 769.851562 285.277344 769.042969 286.457031 768.175781 287.59375 C 767.726562 288.1875 767.242188 288.757812 766.753906 289.324219 C 766.722656 289.359375 766.6875 289.398438 766.652344 289.433594 C 766.519531 289.570312 766.386719 289.703125 766.289062 289.804688 C 765.152344 290.902344 763.929688 291.902344 762.660156 292.84375 C 762.039062 293.300781 761.398438 293.730469 760.75 294.152344 C 760.289062 294.417969 759.816406 294.667969 759.34375 294.914062 C 756.203125 296.558594 752.847656 297.886719 749.4375 298.847656 C 749.347656 298.875 749.023438 298.953125 748.828125 299 C 748.585938 299.050781 748.347656 299.101562 748.109375 299.148438 C 747.414062 299.28125 746.710938 299.382812 746.011719 299.476562 C 744.578125 299.660156 743.132812 299.726562 741.691406 299.703125 C 741.453125 299.699219 741.214844 299.6875 740.976562 299.675781 C 740.378906 299.601562 739.785156 299.496094 739.195312 299.382812 C 738.066406 299.160156 736.964844 298.832031 735.886719 298.445312 C 735.652344 298.335938 735.421875 298.21875 735.191406 298.101562 C 734.695312 297.847656 734.214844 297.570312 733.738281 297.28125 C 733.265625 296.992188 732.808594 296.679688 732.359375 296.359375 C 732.171875 296.226562 731.992188 296.089844 731.8125 295.949219 C 731.039062 295.25 730.320312 294.492188 729.640625 293.703125 C 729.277344 293.277344 728.933594 292.835938 728.597656 292.390625 C 728.429688 292.167969 728.269531 291.9375 728.105469 291.707031 C 728.085938 291.679688 728.074219 291.664062 728.058594 291.640625 C 726.804688 289.570312 725.839844 287.335938 725.085938 285.039062 C 725.007812 284.804688 724.761719 283.894531 724.707031 283.710938 C 724.609375 283.292969 724.519531 282.875 724.433594 282.457031 C 724.171875 281.136719 723.988281 279.804688 723.859375 278.464844 C 722.824219 267.929688 726.375 257.082031 733.144531 248.546875 C 734.761719 246.503906 736.566406 244.585938 738.507812 242.820312 C 739.960938 241.855469 741.425781 240.929688 742.960938 240.144531 C 743.269531 239.984375 744.039062 239.652344 744.445312 239.472656 C 744.792969 239.347656 745.140625 239.234375 745.492188 239.121094 C 746.59375 238.769531 747.722656 238.507812 748.859375 238.308594 C 749.136719 238.277344 749.417969 238.25 749.617188 238.242188 C 750.261719 238.207031 750.910156 238.214844 751.554688 238.230469 C 752.113281 238.246094 752.667969 238.296875 753.21875 238.351562 C 753.285156 238.367188 753.351562 238.378906 753.417969 238.394531 C 754.640625 238.652344 755.835938 239.03125 757.003906 239.46875 C 757.148438 239.523438 757.289062 239.582031 757.429688 239.640625 C 757.960938 239.910156 758.480469 240.199219 758.996094 240.5 C 760.074219 241.128906 761.097656 241.847656 762.085938 242.605469 C 762.148438 242.660156 762.210938 242.714844 762.273438 242.769531 C 762.839844 243.28125 763.386719 243.820312 763.921875 244.367188 C 764.851562 245.320312 765.71875 246.335938 766.546875 247.382812 C 766.683594 247.554688 766.8125 247.730469 766.945312 247.90625 C 767.222656 248.3125 767.679688 248.980469 767.882812 249.308594 C 769.417969 251.765625 770.679688 254.390625 771.722656 257.09375 C 771.765625 257.226562 771.808594 257.359375 771.851562 257.488281 C 772.070312 258.167969 772.265625 258.851562 772.453125 259.535156 C 772.859375 261.027344 773.179688 262.539062 773.441406 264.0625 C 773.648438 265.269531 773.792969 266.488281 773.898438 267.707031 C 773.90625 267.90625 773.914062 268.105469 773.917969 268.304688 C 773.9375 269.136719 773.925781 269.96875 773.898438 270.800781 C 773.847656 272.226562 773.710938 273.648438 773.519531 275.058594 C 773.433594 275.679688 773.324219 276.296875 773.207031 276.914062 C 773.160156 277.105469 773.109375 277.296875 773.058594 277.488281 C 772.6875 278.867188 772.21875 280.21875 771.691406 281.546875 C 771.425781 282.210938 771.132812 282.867188 770.828125 283.515625 Z M 770.828125 283.515625 " fill-opacity="1" fill-rule="nonzero"/></g></g></g></svg>