<svg xmlns="http://www.w3.org/2000/svg" xmlns:xlink="http://www.w3.org/1999/xlink" width="1080" zoomAndPan="magnify" viewBox="0 0 810 809.999993" height="1080" preserveAspectRatio="xMidYMid meet" version="1.0"><defs><clipPath id="7ad1ce30b9"><path d="M 60.777344 360 L 748 360 L 748 802.839844 L 60.777344 802.839844 Z M 60.777344 360 " clip-rule="nonzero"/></clipPath><clipPath id="610d205d2f"><path d="M 126.832031 7 L 257.753906 7 L 257.753906 228 L 126.832031 228 Z M 126.832031 7 " clip-rule="nonzero"/></clipPath></defs><path fill="#000000" d="M 527.136719 197.910156 C 528.089844 197.851562 529.082031 198.234375 529.960938 199.035156 C 532.171875 201.054688 533.660156 205.5 533.832031 210.667969 C 534.101562 218.125 531.640625 223.886719 528.089844 224.097656 C 528.03125 224.097656 527.976562 224.097656 527.898438 224.097656 C 526.984375 224.097656 526.066406 223.714844 525.246094 222.972656 C 523.03125 220.949219 521.542969 216.503906 521.371094 211.335938 C 521.105469 203.878906 523.585938 198.117188 527.117188 197.910156 Z M 527.136719 197.910156 " fill-opacity="1" fill-rule="nonzero"/><path fill="#000000" d="M 444.546875 195.792969 C 445.5 195.734375 446.492188 196.117188 447.371094 196.917969 C 449.582031 198.9375 451.070312 203.382812 451.242188 208.550781 C 451.511719 216.007812 449.050781 221.769531 445.5 221.980469 C 445.441406 221.980469 445.386719 221.980469 445.308594 221.980469 C 444.394531 221.980469 443.476562 221.597656 442.65625 220.855469 C 440.441406 218.832031 438.953125 214.386719 438.78125 209.21875 C 438.515625 201.761719 440.996094 196.003906 444.527344 195.792969 Z M 444.546875 195.792969 " fill-opacity="1" fill-rule="nonzero"/><path fill="#000000" d="M 457.40625 265.867188 C 463.722656 272.5625 472.425781 276.1875 481.640625 275.824219 C 491.125 275.441406 499.789062 270.824219 506.050781 263.808594 C 507.898438 261.746094 510.914062 264.78125 509.082031 266.839844 C 502.0625 274.699219 492.214844 279.695312 481.625 280.113281 C 471.335938 280.515625 461.394531 276.355469 454.355469 268.898438 C 452.464844 266.898438 455.480469 263.84375 457.386719 265.867188 Z M 457.40625 265.867188 " fill-opacity="1" fill-rule="nonzero"/><path fill="#000000" d="M 405.214844 270.519531 C 391.6875 247.726562 384.589844 220.722656 385.734375 194.210938 C 385.886719 190.8125 386.171875 187.4375 386.59375 184.0625 C 387.03125 180.457031 392.773438 180.417969 392.316406 184.0625 C 389.167969 209.488281 393.9375 235.691406 405.273438 258.621094 C 416.054688 280.417969 432.140625 300.160156 455.003906 309.203125 C 473.953125 316.695312 491.871094 319.558594 510.363281 316.753906 C 511.046875 316.660156 516.429688 316.03125 517.117188 315.894531 L 520.609375 315.246094 C 520.609375 315.246094 526.714844 313.875 529.710938 313.015625 C 552.363281 306.605469 573.621094 294.132812 587.511719 274.792969 C 591.328125 269.472656 594.496094 263.828125 597.128906 257.933594 C 597.167969 257.246094 597.472656 256.539062 597.96875 255.988281 C 605.792969 237.601562 608.578125 217.078125 609.34375 197.222656 C 609.476562 193.617188 609.554688 189.992188 609.570312 186.390625 C 609.589844 182.707031 615.316406 182.707031 615.296875 186.390625 C 615.144531 209.832031 612.988281 234.359375 604.09375 256.292969 C 616.441406 260.296875 630.90625 253.257812 634.378906 240.289062 C 637.738281 227.722656 629.132812 213.96875 617.148438 209.925781 C 613.675781 208.761719 615.164062 203.230469 618.675781 204.414062 C 630.847656 208.53125 639.511719 219.691406 640.675781 232.46875 C 641.839844 245.34375 633.347656 256.941406 621.535156 261.460938 C 615.105469 263.921875 608.21875 263.730469 601.84375 261.519531 C 600.46875 264.476562 598.960938 267.394531 597.300781 270.234375 C 584.535156 292.074219 563.679688 307.273438 540.09375 315.707031 C 534.101562 317.839844 527.9375 319.578125 521.675781 320.875 C 521.792969 332.011719 521.371094 344.886719 528.566406 353.757812 C 535.207031 361.9375 545.855469 366.574219 556.425781 367.070312 L 556.464844 367.070312 C 558.222656 367.355469 559.574219 367.089844 559.574219 367.089844 C 559.574219 367.089844 563.390625 366.839844 565.242188 366.496094 C 568.851562 365.828125 570.394531 371.339844 566.769531 372.007812 C 563.851562 372.542969 560.855469 372.792969 557.859375 372.753906 C 543.414062 380.230469 526.296875 382.917969 510.265625 384.0625 C 491.527344 385.398438 472.042969 384.0625 454.011719 378.550781 C 446.644531 376.300781 439.222656 373.269531 433.269531 368.269531 C 432.179688 367.355469 432.125 366.210938 432.601562 365.277344 C 432.523438 365.105469 432.464844 364.933594 432.429688 364.742188 C 432.125 365.066406 431.742188 365.332031 431.226562 365.484375 C 421.609375 368.710938 412.46875 373.898438 404.128906 379.46875 C 399.109375 382.824219 394.929688 387.191406 390.789062 391.578125 C 388.347656 394.171875 384.417969 390.167969 386.820312 387.457031 C 392.125 381.449219 398.308594 376.300781 405.101562 372.007812 C 412.773438 367.144531 421.074219 362.855469 429.699219 359.953125 C 431.550781 359.324219 432.828125 360.585938 433.117188 362.070312 C 433.746094 361.328125 434.699219 360.871094 435.921875 361.136719 C 447.160156 363.558594 459.355469 359.476562 466.890625 350.78125 C 469.964844 347.234375 471.910156 342.847656 472.671875 338.210938 C 473.492188 333.175781 473.378906 327.988281 473.742188 322.914062 C 473.78125 322.265625 474.007812 321.75 474.332031 321.332031 C 470.328125 320.511719 466.355469 319.5 462.445312 318.183594 C 437.886719 309.984375 418.328125 292.53125 405.214844 270.464844 Z M 477.996094 340.9375 C 476.910156 346.546875 474.125 351.488281 470.25 355.644531 C 463.035156 363.445312 452.542969 367.601562 442.046875 367.507812 C 445.84375 369.703125 450.042969 371.304688 454.144531 372.621094 C 462.082031 375.175781 470.363281 376.796875 478.644531 377.75 C 496.71875 379.808594 515.34375 379.027344 533.128906 375.117188 C 537.707031 374.105469 542.269531 372.90625 546.714844 371.339844 C 538.335938 369.222656 530.570312 364.835938 524.902344 358.296875 C 516.277344 348.320312 516.183594 334.605469 515.972656 321.941406 C 503.875 323.886719 491.527344 324.117188 479.449219 322.285156 C 479.484375 322.496094 479.484375 322.722656 479.46875 322.953125 C 479.046875 328.941406 479.144531 335.027344 477.980469 340.9375 Z M 477.996094 340.9375 " fill-opacity="1" fill-rule="nonzero"/><g clip-path="url(#7ad1ce30b9)"><path fill="#000000" d="M 63.410156 360.261719 C 63.695312 360.222656 64.019531 360.203125 64.34375 360.261719 C 114.265625 368.003906 164.050781 376.605469 213.800781 385.417969 C 262.957031 394.132812 312.054688 403.058594 361.269531 411.472656 C 389.570312 416.316406 417.90625 420.988281 446.28125 425.375 C 447.75 425.605469 448.363281 426.652344 448.34375 427.777344 C 448.34375 427.894531 448.382812 428.007812 448.382812 428.140625 C 448.820312 450.648438 450.117188 473.152344 451.703125 495.621094 C 453.457031 520.476562 455.632812 545.289062 458.039062 570.101562 C 460.269531 593.277344 462.710938 616.449219 465.308594 639.585938 C 465.382812 640.253906 465.460938 640.902344 465.535156 641.570312 C 469.390625 638.746094 473.398438 636.171875 477.597656 633.863281 C 478.113281 633.578125 478.953125 631.996094 479.484375 631.097656 C 487.445312 617.59375 495.839844 604.226562 505 591.503906 C 507.25 588.394531 509.542969 585.285156 512.003906 582.328125 C 512.230469 581.964844 512.460938 581.605469 512.691406 581.242188 C 518.261719 571.914062 522.15625 561.789062 525.378906 551.429688 C 532.648438 528.066406 537.34375 503.917969 541.90625 479.90625 C 544.558594 465.945312 547.078125 451.945312 549.75 437.984375 C 550.433594 434.378906 555.949219 435.902344 555.261719 439.507812 C 550.472656 464.703125 546.121094 489.976562 540.625 515.039062 C 535.742188 537.335938 530.589844 560.738281 519.484375 580.898438 C 519.617188 581.679688 519.445312 582.519531 518.757812 583.261719 C 517.996094 584.101562 517.289062 585 516.542969 585.859375 C 512.691406 592.039062 508.320312 597.894531 504.425781 604.035156 C 503.894531 604.875 503.148438 605.273438 502.367188 605.351562 C 502.15625 605.675781 501.925781 606 501.71875 606.324219 C 496.757812 613.820312 491.964844 621.449219 487.308594 629.132812 C 486.757812 630.050781 486.203125 630.984375 485.648438 631.898438 C 503.054688 629.152344 520.722656 643.058594 521.753906 660.796875 C 521.964844 664.476562 516.238281 664.457031 516.03125 660.796875 C 515.207031 646.433594 499.867188 634.683594 485.785156 637.621094 C 483.953125 638.003906 481.738281 638.097656 480.476562 638.785156 C 477.75 640.292969 475.078125 641.914062 472.484375 643.628906 C 471.183594 644.488281 469.90625 645.386719 468.648438 646.300781 C 468.015625 646.757812 467.386719 647.234375 466.777344 647.691406 C 466.511719 647.902344 466.472656 647.921875 466.664062 647.789062 C 466.527344 647.882812 466.414062 647.980469 466.28125 648.074219 C 467.691406 660.585938 469.164062 673.078125 470.671875 685.570312 C 470.824219 685.535156 470.976562 685.515625 471.148438 685.496094 C 479.484375 685.019531 487.824219 682.175781 495.421875 678.800781 C 502.902344 675.464844 510.019531 671.265625 516.488281 666.25 C 517.632812 665.375 535.148438 653.683594 542.457031 647.332031 C 546.828125 643.535156 551.101562 639.605469 555.074219 635.390625 C 558.410156 631.824219 561.199219 627.953125 564.136719 624.082031 C 568.011719 618.96875 572.171875 614.144531 576.558594 609.46875 C 579.59375 606.246094 582.378906 603.308594 584.574219 599.953125 C 586.101562 597.605469 587.378906 595.128906 588.503906 592.589844 C 588.582031 592.398438 588.65625 592.207031 588.773438 592.019531 C 589.917969 589.367188 590.910156 586.660156 591.824219 583.929688 C 595.203125 573.9375 597.644531 563.695312 600.277344 553.492188 C 604.039062 538.917969 609.265625 524.84375 613.730469 510.480469 C 620.621094 488.375 624.628906 465.640625 627.242188 442.675781 C 626.210938 436.265625 624.515625 429.953125 622.109375 423.851562 C 616.402344 409.394531 606.765625 397.242188 594.878906 387.34375 C 587.800781 381.449219 580.070312 376.359375 572.265625 371.457031 C 569.15625 369.511719 572.019531 364.550781 575.148438 366.515625 C 589.304688 375.421875 603.425781 385.1875 613.886719 398.425781 C 623.597656 410.707031 630.164062 425.414062 632.796875 440.84375 C 632.796875 440.84375 632.796875 440.882812 632.796875 440.882812 C 632.96875 441.246094 633.042969 441.703125 633.003906 442.21875 C 633.921875 448.128906 634.304688 454.082031 634.09375 460.03125 C 634.152344 460.261719 634.1875 460.507812 634.1875 460.777344 C 634.339844 495.46875 632.453125 529.914062 628.828125 564.417969 C 627.699219 575.136719 626.519531 585.839844 625.335938 596.558594 C 631.515625 597.683594 637.679688 598.789062 643.863281 599.914062 C 671.476562 604.910156 699.070312 609.890625 726.683594 614.886719 C 733 616.03125 739.332031 617.175781 745.648438 618.320312 C 749.277344 618.96875 747.730469 624.480469 744.125 623.832031 C 726.796875 620.703125 709.46875 617.578125 692.144531 614.449219 C 664.53125 609.449219 636.9375 604.472656 609.324219 599.476562 C 603.867188 598.484375 598.390625 597.492188 592.933594 596.519531 C 592.417969 597.585938 591.921875 598.65625 591.367188 599.703125 C 587.816406 606.191406 582.609375 611.492188 577.570312 616.890625 C 589.078125 618.96875 600.585938 621.046875 612.089844 623.164062 C 630.792969 626.597656 649.511719 630.011719 668.175781 633.691406 C 672.984375 634.648438 678.308594 635.199219 682.925781 636.898438 C 684.738281 637.566406 686 640.179688 684.183594 641.683594 C 675.710938 648.703125 667.164062 655.628906 658.785156 662.761719 C 650.734375 669.628906 643.101562 677.027344 634.761719 683.550781 C 626.804688 689.769531 618.425781 695.433594 609.878906 700.832031 C 601.84375 705.902344 593.199219 710.328125 585.585938 715.992188 C 578.90625 720.972656 572.953125 726.980469 565.796875 731.308594 C 561.027344 734.207031 555.855469 736.117188 550.261719 735.257812 C 538.71875 733.464844 527.308594 730.050781 515.992188 727.171875 C 502.136719 723.640625 488.300781 720.039062 474.449219 716.585938 C 474.371094 717.632812 473.683594 718.28125 472.808594 718.550781 C 472.253906 718.835938 471.585938 718.949219 470.804688 718.722656 C 425.578125 705.847656 379.628906 695.566406 333.65625 685.820312 C 320.507812 683.035156 307.324219 680.308594 294.15625 677.636719 C 294.25 698.675781 294.117188 719.714844 294.15625 740.75 C 294.15625 743.496094 294.195312 746.53125 294.078125 749.601562 C 301.3125 751.28125 308.449219 753.683594 315.183594 756.847656 C 322.476562 760.28125 328.429688 764.707031 332.09375 772.03125 C 336.269531 780.386719 336.097656 790.167969 328.464844 796.5 C 321.195312 802.527344 311.140625 802.414062 302.207031 802.28125 C 279.902344 801.9375 257.613281 798.523438 236.242188 792.171875 C 221.949219 787.9375 201.109375 779.335938 203.648438 760.816406 C 204.925781 751.527344 212.789062 744.964844 221.335938 742.277344 C 226.011719 740.808594 231.070312 740.636719 235.933594 740.351562 C 239.734375 740.121094 243.53125 740.027344 247.308594 739.910156 C 247.289062 738.578125 247.269531 737.222656 247.25 735.886719 C 246.90625 713.304688 246.5625 690.722656 246.21875 668.140625 C 217.636719 662.609375 189.011719 657.285156 160.347656 652.136719 C 142.488281 648.933594 124.625 645.785156 106.726562 642.734375 C 103.789062 642.238281 100.847656 641.722656 97.890625 641.246094 C 97.394531 641.246094 96.9375 641.09375 96.535156 640.808594 C 95.832031 640.367188 95.488281 639.625 95.488281 638.84375 C 94.359375 632.929688 93.3125 627.015625 92.261719 621.105469 C 89.496094 605.578125 86.863281 590.035156 84.34375 574.453125 C 80.851562 552.917969 77.570312 531.347656 74.574219 509.738281 C 71.269531 485.992188 68.273438 462.1875 65.851562 438.328125 C 63.5625 415.820312 61.691406 393.238281 60.964844 370.617188 C 60.890625 368.082031 60.8125 365.542969 60.777344 363.007812 C 60.738281 361.214844 62.074219 360.296875 63.464844 360.261719 Z M 619.6875 595.546875 C 623.40625 561.632812 627.183594 527.761719 628.101562 493.640625 C 628.273438 487.136719 628.347656 480.613281 628.386719 474.109375 C 626.441406 484.960938 624.019531 495.71875 620.90625 506.324219 C 616.691406 520.742188 611.328125 534.816406 607.28125 549.292969 C 604.402344 559.554688 602.109375 569.949219 598.980469 580.15625 C 597.855469 583.835938 596.632812 587.535156 595.222656 591.160156 C 603.371094 592.628906 611.519531 594.097656 619.667969 595.585938 Z M 552.078125 729.785156 C 552.230469 729.804688 552.382812 729.820312 552.078125 729.785156 Z M 548.488281 729.136719 C 549.328125 729.308594 550.167969 729.480469 551.027344 729.613281 C 551.351562 729.667969 551.675781 729.726562 552.019531 729.765625 C 552.019531 729.765625 552.019531 729.765625 552.039062 729.765625 C 552.171875 729.765625 552.324219 729.804688 552.457031 729.820312 C 554.671875 729.957031 556.828125 729.363281 558.871094 728.507812 C 566.351562 725.339844 572.4375 719.253906 578.675781 714.199219 C 585.660156 708.535156 593.542969 704.226562 601.175781 699.515625 C 609.570312 694.347656 617.875 689.003906 625.832031 683.1875 C 635.179688 676.339844 643.519531 668.367188 652.296875 660.816406 C 660.121094 654.082031 668.097656 647.539062 676.074219 641 C 673.785156 640.539062 671.457031 640.179688 669.222656 639.738281 C 660.886719 638.078125 652.507812 636.496094 644.148438 634.914062 C 625.277344 631.367188 606.386719 627.914062 587.492188 624.480469 C 582.703125 623.621094 577.933594 622.746094 573.144531 621.886719 C 572.839844 622.25 572.53125 622.59375 572.246094 622.953125 C 569.25 626.617188 566.617188 630.546875 563.660156 634.246094 C 559.574219 639.359375 554.84375 643.933594 549.976562 648.320312 C 540.226562 657.113281 515.914062 673.707031 515.914062 673.707031 C 515.914062 673.707031 504.046875 681.28125 497.558594 684.105469 C 489.257812 687.726562 480.441406 690.683594 471.335938 691.238281 C 471.375 691.523438 471.414062 691.808594 471.433594 692.09375 C 472.082031 697.4375 472.75 702.796875 473.417969 708.136719 C 473.511719 708.917969 473.648438 709.71875 473.761719 710.519531 C 486.089844 713.589844 498.398438 716.757812 510.707031 719.921875 C 523.242188 723.144531 535.78125 726.597656 548.488281 729.15625 Z M 227.117188 746.796875 C 220.574219 747.695312 213.703125 751.242188 210.59375 757.289062 C 207.386719 763.503906 209.734375 770.390625 214.429688 775.0625 C 219.601562 780.195312 226.527344 783.152344 233.359375 785.304688 C 252.136719 791.257812 271.636719 794.9375 291.3125 796.121094 C 296.273438 796.425781 301.253906 796.578125 306.234375 796.558594 C 310.203125 796.558594 314.230469 796.425781 318.085938 795.394531 C 326.042969 793.242188 330.964844 786.527344 328.484375 778.34375 C 326.0625 770.351562 320.355469 765.699219 313.144531 762.1875 C 306.960938 759.175781 300.320312 756.980469 293.621094 755.359375 C 292.535156 764.574219 289.15625 773.097656 278.679688 775.160156 C 271.484375 776.570312 262.957031 774.890625 256.21875 772.222656 C 252.460938 770.734375 249.675781 768.160156 248.433594 764.25 C 247.097656 760.015625 247.5 755.207031 247.441406 750.839844 C 247.421875 749.105469 247.382812 747.351562 247.367188 745.613281 C 240.628906 745.804688 233.816406 745.882812 227.136719 746.796875 Z M 288.394531 674.015625 C 288.257812 652.289062 288.257812 630.394531 286.351562 608.726562 C 286.046875 605.292969 285.757812 602.355469 285.207031 599.207031 C 284.996094 598.007812 284.75 596.804688 284.421875 595.640625 C 284.367188 595.433594 284.308594 595.203125 284.234375 594.992188 C 284.234375 594.976562 284.234375 594.976562 284.214844 594.9375 C 283.984375 594.820312 283.585938 594.59375 283.46875 594.496094 C 283.222656 594.289062 282.953125 594.097656 282.6875 593.90625 C 281.847656 593.296875 280.96875 592.722656 280.09375 592.171875 C 274.328125 588.679688 266.980469 586.390625 260.285156 588.128906 C 257.078125 588.949219 253.511719 590.910156 251.90625 593.925781 C 249.960938 597.585938 250.933594 603.003906 250.992188 606.992188 C 251.5625 645.214844 252.15625 683.4375 252.726562 721.660156 C 252.804688 726.390625 252.878906 731.136719 252.9375 735.867188 C 252.976562 737.945312 252.996094 740.027344 253.03125 742.125 C 253.070312 742.371094 253.070312 742.621094 253.03125 742.867188 C 253.070312 745.214844 253.109375 747.558594 253.148438 749.90625 C 253.203125 754.007812 252.632812 758.792969 253.949219 762.742188 C 255.1875 766.480469 259.140625 767.320312 262.535156 768.195312 C 265.914062 769.074219 269.367188 769.835938 272.859375 769.933594 C 276.238281 770.027344 279.75 769.511719 282.496094 767.414062 C 285.261719 765.296875 286.695312 762.035156 287.476562 758.71875 C 288.8125 753.015625 288.410156 746.988281 288.394531 741.171875 C 288.335938 718.796875 288.527344 696.425781 288.394531 674.03125 Z M 284.15625 594.820312 C 284.023438 594.535156 283.925781 594.652344 284.15625 594.820312 Z M 78.980469 500.429688 C 81.957031 522.382812 85.238281 544.296875 88.730469 566.175781 C 91.347656 582.558594 94.09375 598.921875 96.976562 615.25 C 98.195312 622.152344 99.53125 629.039062 100.714844 635.925781 C 109.265625 637.355469 117.8125 638.824219 126.34375 640.3125 C 149.644531 644.375 172.925781 648.550781 196.1875 652.863281 C 212.824219 655.933594 229.445312 659.078125 246.066406 662.285156 C 245.820312 645.746094 245.570312 629.191406 245.324219 612.65625 C 245.191406 603.765625 243.015625 592.78125 250.894531 586.542969 C 256.886719 581.796875 264.636719 580.992188 271.90625 582.671875 C 275.550781 583.511719 279.117188 584.980469 282.34375 586.867188 C 284.882812 588.335938 288.699219 590.378906 289.671875 593.296875 C 290.585938 596.023438 290.929688 598.980469 291.3125 601.804688 C 292.535156 611.089844 292.933594 620.476562 293.277344 629.820312 C 293.753906 642.390625 293.945312 654.960938 294.042969 667.527344 C 294.042969 668.941406 294.042969 670.351562 294.058594 671.742188 C 342.035156 681.453125 389.929688 691.695312 437.371094 703.785156 C 443.933594 705.464844 465.347656 710.234375 467.828125 710.84375 C 467.3125 706.742188 466.738281 700.8125 466.222656 696.710938 C 464.183594 680.175781 462.234375 663.636719 460.367188 647.082031 C 457.789062 624.40625 455.367188 601.726562 453.113281 579.011719 C 450.671875 554.195312 448.417969 529.363281 446.570312 504.511719 C 444.851562 481.640625 443.421875 458.734375 442.789062 435.808594 C 442.734375 434.054688 442.714844 432.300781 442.65625 430.527344 C 393.421875 422.859375 344.324219 414.390625 295.261719 405.691406 C 246.105469 396.976562 197.007812 388.050781 147.792969 379.636719 C 120.734375 375.003906 93.636719 370.558594 66.5 366.324219 C 67.015625 387.285156 68.582031 408.230469 70.585938 429.09375 C 72.855469 452.917969 75.738281 476.683594 78.941406 500.390625 Z M 78.980469 500.429688 " fill-opacity="1" fill-rule="nonzero"/></g><path fill="#000000" d="M 453.019531 109.714844 C 460.230469 124.230469 470.308594 137.140625 482.652344 147.652344 C 495.285156 158.390625 511.640625 168.765625 528.832031 167.90625 C 532.515625 167.734375 532.496094 173.457031 528.832031 173.628906 C 514.3125 174.335938 500.628906 167.621094 488.949219 159.609375 C 477.84375 151.980469 468.09375 142.597656 459.964844 131.859375 C 455.402344 125.832031 451.433594 119.367188 448.058594 112.59375 C 446.414062 109.3125 451.359375 106.394531 453 109.714844 Z M 453.019531 109.714844 " fill-opacity="1" fill-rule="nonzero"/><path fill="#000000" d="M 586.84375 190.011719 C 570.1875 176.375 557.554688 158.371094 550.148438 138.191406 C 548.871094 134.71875 554.40625 133.230469 555.664062 136.664062 C 562.722656 155.929688 575.011719 172.980469 590.890625 185.96875 C 593.734375 188.296875 589.667969 192.339844 586.84375 190.011719 Z M 586.84375 190.011719 " fill-opacity="1" fill-rule="nonzero"/><path fill="#000000" d="M 643.539062 310.421875 C 641 316.296875 638.234375 322.054688 635.277344 327.722656 C 633.578125 330.964844 628.75 328.082031 630.449219 324.839844 C 654.433594 278.953125 666.019531 224.136719 658.214844 172.351562 C 654.511719 147.746094 646.457031 123.960938 632.164062 103.667969 C 618.578125 84.386719 600.335938 68.667969 580.148438 57.074219 C 560.414062 45.742188 538.242188 37.847656 515.667969 35.539062 C 493.511719 33.269531 470.878906 35.976562 449.699219 42.976562 C 428.574219 49.957031 408.480469 61.554688 393.386719 78.433594 C 376 97.851562 370.695312 124.058594 365.257812 149.003906 C 354.800781 196.9375 348.0625 251.046875 369.835938 296.859375 C 372.453125 302.335938 375.429688 307.617188 378.75 312.671875 C 380.753906 315.742188 375.925781 318.605469 373.921875 315.550781 C 359.78125 294.019531 352.644531 268.824219 350.640625 243.113281 C 348.597656 217.058594 351.539062 190.8125 356.269531 165.238281 C 358.597656 152.648438 361.421875 140.175781 364.4375 127.738281 C 367.625 114.65625 371.535156 101.683594 378.195312 89.957031 C 390.085938 69.03125 410.332031 53.773438 431.609375 44.007812 C 453 34.183594 476.453125 29.113281 499.847656 29.035156 C 523.148438 28.960938 546.066406 34.546875 567.324219 44.140625 C 589.210938 54.019531 609.417969 68.363281 625.601562 86.464844 C 642.261719 105.097656 653.558594 127.261719 659.742188 151.695312 C 666.382812 177.882812 667.546875 205.425781 664.492188 232.242188 C 661.417969 259.230469 654.28125 285.609375 643.519531 310.421875 Z M 643.539062 310.421875 " fill-opacity="1" fill-rule="nonzero"/><path fill="#000000" d="M 688.324219 474.128906 C 686.628906 494.191406 684.929688 514.257812 683.230469 534.339844 C 681.324219 556.769531 679.433594 579.21875 677.523438 601.648438 C 677.21875 605.292969 671.496094 605.332031 671.800781 601.648438 C 675.0625 563.085938 678.328125 524.539062 681.589844 485.972656 C 683.210938 466.878906 684.832031 447.804688 686.4375 428.714844 C 687.90625 411.242188 689.375 392.800781 683.117188 376.035156 C 677.792969 361.824219 665.371094 348.433594 649.511719 347.253906 C 645.867188 346.984375 645.828125 341.261719 649.511719 341.53125 C 664.300781 342.636719 676.53125 352.324219 683.976562 364.761719 C 693.058594 379.925781 694.050781 398.234375 693.136719 415.457031 C 692.105469 435.046875 689.984375 454.597656 688.324219 474.128906 Z M 688.324219 474.128906 " fill-opacity="1" fill-rule="nonzero"/><path fill="#000000" d="M 428.058594 122.835938 C 423.667969 143.816406 412.542969 163.175781 396.648438 177.578125 C 393.917969 180.039062 389.855469 176.011719 392.601562 173.535156 C 407.851562 159.742188 418.328125 141.433594 422.542969 121.332031 C 423.289062 117.726562 428.820312 119.25 428.058594 122.855469 Z M 428.058594 122.835938 " fill-opacity="1" fill-rule="nonzero"/><g clip-path="url(#610d205d2f)"><path fill="#090000" d="M 181.574219 165.207031 C 181.679688 164.785156 181.835938 164.3125 181.941406 163.890625 C 182.046875 163.261719 182.097656 162.628906 182.257812 162 C 182.308594 161.683594 182.464844 161.371094 182.625 161.105469 C 182.9375 160.476562 183.253906 159.84375 183.621094 159.214844 C 183.828125 158.792969 184.039062 158.269531 184.355469 157.902344 C 184.667969 157.53125 184.984375 157.269531 185.351562 156.953125 C 185.558594 156.746094 185.824219 156.480469 186.085938 156.21875 C 186.191406 156.0625 186.292969 155.957031 186.453125 155.796875 C 187.082031 155.011719 188.128906 154.433594 188.96875 153.800781 C 189.335938 153.539062 189.652344 153.222656 190.070312 153.066406 C 190.699219 152.804688 191.277344 152.539062 191.90625 152.277344 C 192.324219 152.066406 192.796875 151.804688 193.269531 151.699219 C 193.742188 151.542969 194.371094 151.699219 194.894531 151.699219 C 195.996094 151.753906 197.148438 151.59375 198.144531 152.066406 C 198.828125 152.382812 199.507812 152.644531 200.136719 152.960938 C 200.558594 153.171875 201.082031 153.277344 201.449219 153.589844 C 202.394531 154.328125 203.390625 155.117188 204.28125 155.957031 C 205.066406 156.691406 205.644531 157.796875 206.273438 158.6875 C 206.851562 159.476562 207.375 160.316406 207.949219 161.160156 C 208.265625 161.632812 208.632812 162.105469 208.894531 162.578125 C 209.105469 162.945312 209.210938 163.367188 209.3125 163.785156 C 209.628906 164.785156 209.945312 165.785156 210.3125 166.730469 C 210.78125 167.832031 211.308594 168.9375 211.675781 170.039062 C 212.042969 171.195312 212.199219 172.40625 212.511719 173.613281 C 212.773438 174.613281 213.089844 175.664062 213.351562 176.664062 C 213.613281 177.660156 213.71875 178.605469 213.824219 179.605469 C 213.875 180.238281 213.980469 180.867188 214.035156 181.496094 C 214.035156 181.496094 214.035156 181.496094 214.035156 181.550781 C 214.085938 181.867188 214.136719 182.128906 214.136719 182.445312 C 214.296875 183.546875 214.453125 184.652344 214.609375 185.753906 C 214.609375 185.914062 214.664062 186.070312 214.664062 186.175781 C 215.1875 185.175781 215.710938 184.179688 216.289062 183.230469 C 217.230469 181.550781 218.28125 179.972656 219.121094 178.238281 C 219.539062 177.347656 219.90625 176.503906 220.429688 175.714844 C 220.957031 174.824219 221.480469 173.878906 222.109375 173.089844 C 222.894531 172.144531 223.683594 171.09375 224.519531 170.199219 C 225.203125 169.460938 226.148438 168.882812 226.984375 168.304688 C 227.351562 167.992188 227.71875 167.726562 228.140625 167.414062 C 227.824219 167.675781 228.035156 167.464844 228.191406 167.359375 C 228.453125 167.148438 228.664062 166.992188 228.925781 166.78125 C 229.765625 166.152344 230.550781 165.363281 231.441406 164.785156 C 232.492188 164.101562 233.59375 163.578125 234.695312 163 C 235.53125 162.527344 236.527344 162.261719 237.421875 161.949219 C 237.945312 161.738281 238.523438 161.527344 239.046875 161.371094 C 239.414062 161.265625 239.78125 161.265625 240.148438 161.265625 C 240.882812 161.210938 241.5625 161.160156 242.296875 161.105469 C 242.664062 161.054688 242.980469 161.054688 243.347656 161.160156 C 243.976562 161.371094 244.605469 161.578125 245.285156 161.84375 C 245.757812 162 246.230469 162.105469 246.648438 162.316406 C 247.070312 162.527344 247.4375 163 247.75 163.367188 C 248.222656 163.890625 248.695312 164.363281 249.167969 164.890625 C 249.847656 165.625 250.214844 166.730469 250.6875 167.625 C 250.949219 168.148438 251.160156 168.675781 251.316406 169.199219 C 251.421875 169.359375 251.527344 169.515625 251.632812 169.671875 C 251.839844 170.09375 251.894531 170.566406 252.050781 170.988281 C 252.261719 171.671875 252.417969 172.351562 252.628906 173.035156 C 252.730469 173.351562 252.835938 173.71875 252.835938 174.085938 C 252.835938 175.296875 252.730469 176.558594 252.679688 177.820312 C 252.628906 178.816406 251.945312 179.710938 251.472656 180.605469 C 251.054688 181.390625 250.636719 182.128906 250.214844 182.917969 C 249.636719 183.863281 249.167969 184.914062 248.484375 185.808594 C 247.332031 187.277344 246.175781 188.644531 244.917969 190.011719 C 244.289062 190.957031 243.609375 191.957031 243.03125 192.953125 C 242.453125 193.902344 241.929688 194.953125 241.25 195.84375 C 240.515625 196.789062 239.78125 197.683594 239.046875 198.628906 C 237.839844 200.207031 236.632812 201.730469 235.269531 203.203125 C 234.640625 203.886719 234.066406 204.515625 233.382812 205.09375 C 232.597656 205.777344 231.757812 206.460938 230.972656 207.144531 C 230.078125 207.984375 229.1875 208.824219 228.296875 209.667969 C 227.5625 210.351562 226.777344 210.929688 226.042969 211.558594 C 224.625 212.714844 223.261719 213.976562 221.847656 215.183594 C 220.902344 215.972656 220.011719 216.761719 219.066406 217.550781 C 218.230469 218.234375 217.230469 218.8125 216.339844 219.441406 C 216.339844 219.441406 216.289062 219.441406 216.289062 219.496094 C 215.660156 220.175781 215.03125 220.914062 214.402344 221.597656 C 213.089844 222.964844 211.570312 224.015625 210.152344 225.273438 C 209.3125 226.011719 208.476562 226.695312 207.636719 227.429688 C 207.007812 227.957031 206.21875 227.535156 206.0625 226.957031 C 205.433594 226.0625 204.804688 225.222656 204.226562 224.328125 C 203.652344 223.4375 203.125 222.4375 202.601562 221.492188 C 201.605469 219.757812 200.558594 218.074219 199.613281 216.339844 C 198.617188 214.554688 197.832031 212.664062 196.886719 210.875 C 196.363281 209.878906 195.839844 208.929688 195.367188 207.933594 C 194.839844 206.882812 194.421875 205.726562 193.898438 204.675781 C 193.375 203.675781 192.796875 202.730469 192.21875 201.730469 C 191.695312 200.835938 191.328125 199.890625 190.910156 198.945312 C 190.070312 197.105469 189.285156 195.265625 188.550781 193.375 C 188.289062 192.691406 188.023438 192.007812 187.761719 191.324219 C 187.710938 191.113281 187.5 190.90625 187.710938 191.21875 C 187.605469 191.0625 187.554688 190.851562 187.449219 190.695312 C 186.921875 189.695312 186.292969 188.699219 185.875 187.648438 C 184.984375 185.492188 184.144531 183.285156 183.410156 181.078125 C 183.042969 180.078125 182.730469 179.027344 182.414062 178.027344 C 182.097656 177.03125 181.941406 175.980469 181.679688 174.980469 C 181.261719 172.984375 181 170.828125 181.15625 168.78125 C 181.261719 167.359375 181.261719 166.257812 181.574219 165.207031 Z M 185.558594 176.769531 C 185.558594 176.820312 185.558594 176.820312 185.558594 176.820312 C 185.664062 177.03125 185.71875 177.1875 185.824219 177.398438 C 186.714844 179.449219 187.710938 181.445312 188.707031 183.390625 C 189.546875 185.070312 190.28125 186.804688 191.066406 188.488281 C 191.484375 189.328125 191.851562 190.167969 192.324219 190.957031 C 192.847656 191.851562 193.476562 192.746094 193.949219 193.691406 C 194.476562 194.742188 194.894531 195.898438 195.367188 197 C 195.785156 197.945312 196.257812 198.839844 196.675781 199.785156 C 197.464844 201.414062 198.25 203.097656 199.195312 204.621094 C 199.71875 205.460938 200.296875 206.304688 200.765625 207.195312 C 201.34375 208.246094 201.816406 209.351562 202.339844 210.402344 C 203.285156 212.1875 204.332031 213.921875 205.277344 215.710938 C 206.167969 217.390625 207.058594 219.019531 208.109375 220.652344 C 208.527344 221.28125 208.949219 221.910156 209.3125 222.59375 C 210.574219 221.542969 211.777344 220.492188 213.039062 219.441406 C 213.773438 218.863281 214.453125 218.234375 215.1875 217.707031 C 216.601562 216.132812 218.070312 214.554688 219.539062 213.03125 C 220.796875 211.769531 221.898438 210.351562 223.15625 209.140625 C 224.785156 207.617188 226.355469 206.039062 227.878906 204.359375 C 229.136719 202.941406 230.394531 201.519531 231.757812 200.207031 C 233.226562 198.789062 234.589844 197.210938 236.003906 195.738281 C 237.367188 194.375 238.835938 193.058594 240.253906 191.746094 C 241.300781 190.746094 242.351562 189.75 243.347656 188.75 C 244.132812 187.59375 244.917969 186.386719 245.652344 185.175781 C 246.753906 183.230469 247.75 181.234375 248.640625 179.238281 C 248.695312 179.082031 248.746094 178.976562 248.851562 178.816406 C 248.640625 179.289062 248.851562 178.710938 248.90625 178.605469 C 249.113281 177.925781 249.324219 177.292969 249.535156 176.609375 C 249.636719 176.347656 249.691406 176.085938 249.796875 175.769531 C 249.796875 175.714844 249.796875 175.613281 249.847656 175.558594 C 249.902344 175.035156 249.953125 174.507812 250.058594 173.984375 C 250.109375 173.613281 250.164062 173.300781 250.164062 172.929688 C 250.164062 172.828125 250.164062 172.40625 250.214844 172.25 C 250.109375 171.984375 250.058594 171.671875 250.003906 171.40625 C 249.902344 170.933594 249.742188 170.460938 249.636719 169.9375 C 249.585938 169.882812 249.535156 169.777344 249.480469 169.726562 C 249.0625 169.148438 248.640625 168.570312 248.273438 167.992188 C 248.117188 167.78125 248.011719 167.570312 247.855469 167.414062 C 247.75 167.359375 247.59375 167.253906 247.488281 167.203125 C 247.175781 167.046875 246.859375 166.941406 246.597656 166.78125 C 245.96875 166.519531 245.390625 166.203125 244.761719 165.941406 C 244.710938 165.941406 244.605469 165.890625 244.5 165.835938 C 243.871094 165.835938 243.242188 165.835938 242.558594 165.835938 C 241.984375 165.835938 241.40625 165.890625 240.828125 165.835938 C 240.671875 165.941406 240.410156 165.941406 240.253906 165.996094 C 239.570312 166.203125 238.890625 166.414062 238.207031 166.625 C 237.945312 166.675781 237.683594 166.78125 237.472656 166.835938 C 237.421875 166.835938 237.367188 166.886719 237.261719 166.886719 C 236.894531 167.097656 236.425781 167.308594 236.058594 167.464844 C 235.429688 167.78125 234.851562 168.097656 234.222656 168.410156 C 233.433594 168.832031 232.753906 169.410156 232.070312 169.9375 C 231.390625 170.460938 230.707031 170.988281 229.976562 171.460938 C 229.398438 171.878906 228.820312 172.300781 228.296875 172.667969 C 228.085938 172.828125 227.878906 172.984375 227.667969 173.140625 C 227.667969 173.140625 227.667969 173.140625 227.613281 173.140625 C 227.5625 173.300781 227.300781 173.457031 227.195312 173.613281 C 226.984375 173.878906 226.722656 174.140625 226.515625 174.402344 C 226.09375 174.875 225.675781 175.347656 225.203125 175.820312 C 224.574219 176.558594 223.996094 177.347656 223.421875 178.082031 C 223.261719 178.238281 223.15625 178.449219 223 178.605469 C 223 178.605469 223 178.660156 222.949219 178.660156 C 222.632812 179.183594 222.265625 179.710938 221.898438 180.238281 C 221.375 181.023438 220.796875 181.761719 220.167969 182.496094 C 219.539062 183.179688 218.960938 183.914062 218.332031 184.652344 C 217.914062 185.175781 217.441406 185.753906 217.023438 186.28125 C 216.917969 186.4375 216.761719 186.59375 216.65625 186.753906 C 216.65625 186.753906 216.601562 186.804688 216.601562 186.859375 C 216.132812 187.648438 215.660156 188.382812 215.136719 189.171875 C 215.082031 189.222656 215.082031 189.328125 215.03125 189.382812 C 215.03125 189.589844 214.925781 189.75 214.769531 189.855469 C 214.453125 190.273438 213.929688 190.273438 213.5625 189.957031 C 213.40625 189.855469 213.300781 189.695312 213.195312 189.484375 C 212.566406 187.488281 211.882812 185.492188 211.253906 183.496094 C 210.679688 181.761719 210.46875 179.867188 209.785156 178.132812 C 209.367188 177.082031 208.949219 176.03125 208.582031 174.980469 C 208.214844 173.929688 207.898438 172.828125 207.585938 171.722656 C 207.585938 171.671875 207.53125 171.566406 207.480469 171.460938 C 207.53125 171.566406 207.585938 171.566406 207.480469 171.460938 C 207.480469 171.40625 207.425781 171.40625 207.425781 171.355469 C 207.425781 171.40625 207.425781 171.40625 207.425781 171.460938 C 207.425781 171.40625 207.425781 171.40625 207.425781 171.355469 C 207.375 171.300781 207.375 171.195312 207.320312 171.144531 C 207.058594 170.515625 206.746094 169.882812 206.484375 169.253906 C 206.117188 168.410156 205.75 167.570312 205.433594 166.675781 C 205.222656 165.996094 204.960938 165.3125 204.753906 164.679688 C 204.699219 164.574219 204.648438 164.417969 204.59375 164.3125 C 204.753906 164.734375 204.542969 164.3125 204.4375 164.15625 C 203.808594 163.207031 203.230469 162.261719 202.601562 161.316406 C 201.972656 160.371094 201.292969 159.425781 200.664062 158.480469 C 200.609375 158.425781 200.609375 158.375 200.558594 158.320312 C 200.558594 158.269531 200.503906 158.269531 200.503906 158.214844 C 200.398438 158.058594 200.453125 158.214844 200.558594 158.320312 C 200.453125 158.269531 200.296875 158.109375 200.242188 158.007812 C 199.71875 157.53125 199.195312 157.113281 198.667969 156.640625 C 198.460938 156.429688 198.25 156.273438 197.988281 156.0625 C 197.988281 156.0625 197.988281 156.0625 197.9375 156.007812 C 197.515625 155.902344 196.992188 155.589844 196.625 155.429688 C 196.046875 155.21875 195.417969 155.011719 194.894531 154.746094 C 194.894531 154.746094 194.84375 154.746094 194.789062 154.695312 C 194.632812 154.746094 194.371094 154.695312 194.210938 154.695312 C 193.476562 154.746094 192.796875 154.746094 192.0625 154.800781 C 191.851562 154.800781 191.644531 154.851562 191.433594 154.800781 C 190.960938 155.117188 190.382812 155.324219 189.914062 155.589844 C 189.441406 155.851562 188.863281 156.273438 188.339844 156.375 C 188.183594 156.585938 187.972656 156.746094 187.761719 156.953125 C 187.554688 157.164062 187.34375 157.375 187.1875 157.53125 C 186.765625 158.058594 186.347656 158.53125 185.925781 159.058594 C 185.824219 159.214844 185.71875 159.371094 185.558594 159.476562 C 185.769531 159.214844 185.613281 159.425781 185.558594 159.636719 C 185.246094 160.316406 184.984375 160.949219 184.667969 161.632812 C 184.5625 161.894531 184.460938 162.15625 184.300781 162.421875 C 184.300781 162.472656 184.25 162.472656 184.25 162.527344 C 184.195312 163.105469 183.933594 163.683594 183.777344 164.207031 C 183.726562 164.46875 183.671875 164.785156 183.671875 165.046875 C 183.621094 165.257812 183.621094 165.46875 183.566406 165.679688 C 183.566406 165.679688 183.566406 165.730469 183.566406 165.785156 C 183.621094 166.414062 183.566406 166.992188 183.566406 167.625 C 183.566406 168.203125 183.621094 168.832031 183.566406 169.410156 C 183.621094 169.671875 183.671875 169.882812 183.726562 170.144531 C 183.882812 170.882812 184.039062 171.566406 184.195312 172.300781 C 184.355469 173.195312 184.667969 173.984375 184.984375 174.824219 C 185.140625 175.613281 185.351562 176.191406 185.558594 176.769531 Z M 211.410156 177.03125 C 211.148438 176.03125 210.835938 175.085938 210.625 174.085938 C 210.363281 172.929688 210.152344 171.671875 209.785156 170.515625 C 209.417969 169.410156 208.894531 168.359375 208.476562 167.308594 C 208.109375 166.363281 207.792969 165.417969 207.480469 164.46875 C 207.375 164.15625 207.269531 163.890625 207.164062 163.578125 C 207.164062 163.523438 207.113281 163.472656 207.113281 163.472656 C 206.746094 163.105469 206.484375 162.472656 206.167969 162.050781 C 205.644531 161.265625 205.121094 160.476562 204.59375 159.6875 C 204.175781 159.058594 203.703125 158.425781 203.285156 157.847656 C 203.125 157.636719 203.023438 157.480469 202.863281 157.269531 C 202.863281 157.269531 202.8125 157.21875 202.761719 157.21875 C 201.816406 156.535156 200.976562 155.695312 200.085938 154.957031 C 200.242188 155.0625 199.980469 154.90625 199.875 154.851562 C 199.5625 154.695312 199.246094 154.589844 198.878906 154.433594 C 198.25 154.167969 197.621094 153.855469 196.992188 153.589844 C 196.835938 153.589844 196.625 153.539062 196.46875 153.539062 C 196.414062 153.539062 196.363281 153.539062 196.308594 153.539062 C 196.570312 153.644531 196.835938 153.800781 197.097656 153.90625 C 197.570312 154.117188 198.039062 154.273438 198.460938 154.484375 C 198.878906 154.695312 199.246094 155.0625 199.613281 155.324219 C 200.398438 156.007812 201.394531 156.640625 201.972656 157.480469 C 203.285156 159.320312 204.542969 161.265625 205.75 163.15625 C 206.273438 163.996094 206.535156 164.890625 206.851562 165.835938 C 207.007812 166.363281 207.320312 166.941406 207.425781 167.464844 C 207.425781 167.464844 207.425781 167.519531 207.480469 167.519531 C 207.585938 167.78125 207.742188 168.042969 207.847656 168.304688 C 208.265625 169.253906 208.789062 170.199219 209.105469 171.195312 C 209.472656 172.300781 209.734375 173.457031 210.152344 174.558594 C 210.519531 175.613281 210.941406 176.609375 211.359375 177.660156 C 211.464844 177.925781 211.570312 178.238281 211.621094 178.503906 C 211.621094 178.292969 211.570312 178.082031 211.570312 177.871094 C 211.570312 177.871094 211.570312 177.820312 211.570312 177.820312 C 211.515625 177.609375 211.464844 177.292969 211.410156 177.03125 Z M 232.335938 166.308594 C 232.28125 166.308594 232.28125 166.363281 232.230469 166.363281 C 232.335938 166.363281 232.492188 166.203125 232.335938 166.308594 Z M 245.914062 164.101562 C 245.863281 164.050781 245.707031 163.945312 245.652344 163.839844 C 245.339844 163.734375 245.023438 163.628906 244.710938 163.523438 C 244.082031 163.3125 243.398438 163.105469 242.769531 162.839844 C 242.769531 162.839844 242.71875 162.839844 242.71875 162.839844 C 242.558594 162.894531 242.246094 162.839844 242.085938 162.894531 C 241.351562 162.945312 240.671875 163 239.9375 163.050781 C 239.78125 163.050781 239.625 163.105469 239.464844 163.105469 C 239.414062 163.105469 239.308594 163.15625 239.308594 163.15625 C 238.730469 163.417969 238.101562 163.578125 237.527344 163.785156 C 236.949219 163.996094 236.371094 164.207031 235.796875 164.417969 C 235.742188 164.523438 235.375 164.628906 235.269531 164.679688 C 234.640625 165.046875 234.011719 165.363281 233.382812 165.730469 C 233.070312 165.890625 232.597656 166.308594 232.230469 166.363281 C 232.175781 166.363281 232.175781 166.414062 232.125 166.414062 C 231.863281 166.625 231.652344 166.78125 231.390625 166.992188 C 230.8125 167.414062 230.289062 167.886719 229.710938 168.304688 C 229.03125 168.882812 228.296875 169.410156 227.613281 169.9375 C 227.089844 170.355469 226.515625 170.777344 225.988281 171.195312 C 225.9375 171.25 225.882812 171.300781 225.78125 171.355469 C 225.78125 171.40625 225.621094 171.566406 225.570312 171.617188 C 224.785156 172.5625 224.050781 173.507812 223.261719 174.402344 C 223.261719 174.402344 223.261719 174.402344 223.261719 174.457031 C 223.15625 174.664062 223 174.929688 222.84375 175.136719 C 222.476562 175.714844 222.109375 176.347656 221.742188 176.925781 C 221.53125 177.242188 221.375 177.609375 221.164062 177.925781 C 222.003906 176.714844 222.894531 175.558594 223.890625 174.457031 C 224.679688 173.613281 225.359375 172.667969 226.199219 171.878906 C 227.039062 171.09375 228.140625 170.460938 229.03125 169.832031 C 230.445312 168.832031 231.757812 167.519531 233.332031 166.78125 C 234.378906 166.257812 235.375 165.625 236.476562 165.207031 C 237.527344 164.839844 238.679688 164.523438 239.726562 164.207031 C 240.621094 163.945312 241.511719 163.996094 242.453125 163.996094 C 243.449219 163.996094 244.445312 163.839844 245.390625 164.261719 C 245.757812 164.417969 246.175781 164.628906 246.542969 164.785156 C 246.386719 164.574219 246.125 164.3125 245.914062 164.101562 Z M 231.546875 203.9375 C 232.964844 202.730469 234.273438 201.414062 235.429688 199.945312 C 236.582031 198.523438 237.683594 197.105469 238.785156 195.632812 C 237.628906 196.738281 236.476562 197.894531 235.375 199.101562 C 234.117188 200.46875 232.703125 201.625 231.496094 202.992188 C 229.976562 204.675781 228.453125 206.355469 226.878906 208.039062 C 226.777344 208.144531 226.671875 208.246094 226.515625 208.40625 C 226.566406 208.351562 226.671875 208.300781 226.722656 208.195312 C 228.453125 206.828125 229.976562 205.355469 231.546875 203.9375 Z M 186.503906 184.019531 C 186.765625 184.703125 187.027344 185.335938 187.289062 186.015625 C 187.394531 186.28125 187.5 186.542969 187.605469 186.804688 C 187.605469 186.804688 187.605469 186.804688 187.605469 186.859375 C 187.605469 186.859375 187.605469 186.859375 187.605469 186.910156 C 188.234375 187.910156 188.757812 189.011719 189.285156 190.0625 C 189.808594 191.113281 190.121094 192.269531 190.542969 193.375 C 190.542969 193.425781 190.59375 193.480469 190.59375 193.585938 C 190.542969 193.480469 190.59375 193.585938 190.59375 193.636719 C 190.59375 193.636719 190.59375 193.691406 190.59375 193.691406 C 190.59375 193.691406 190.59375 193.742188 190.59375 193.742188 C 190.648438 193.847656 190.699219 193.953125 190.75 194.058594 C 191.015625 194.742188 191.328125 195.371094 191.589844 196.054688 C 192.324219 197.84375 193.113281 199.628906 194.054688 201.3125 C 194.527344 202.203125 195.105469 203.042969 195.523438 203.9375 C 195.996094 204.9375 196.414062 205.988281 196.886719 206.933594 C 197.882812 208.984375 198.933594 210.980469 199.929688 213.03125 C 200.765625 214.765625 201.761719 216.445312 202.761719 218.128906 C 203.285156 218.96875 203.757812 219.808594 204.28125 220.652344 C 204.753906 221.542969 205.222656 222.4375 205.800781 223.277344 C 206.273438 223.910156 206.691406 224.539062 207.164062 225.171875 C 207.480469 224.90625 207.792969 224.59375 208.160156 224.328125 C 208.160156 224.277344 208.160156 224.277344 208.109375 224.222656 C 207.007812 222.488281 205.90625 220.753906 204.855469 218.96875 C 203.914062 217.339844 203.074219 215.605469 202.128906 213.976562 C 201.605469 213.082031 201.082031 212.1875 200.609375 211.296875 C 200.085938 210.246094 199.613281 209.195312 199.035156 208.195312 C 198.511719 207.195312 197.832031 206.304688 197.253906 205.355469 C 196.730469 204.515625 196.308594 203.570312 195.890625 202.730469 C 195.050781 201.046875 194.210938 199.367188 193.476562 197.632812 C 193.058594 196.6875 192.746094 195.636719 192.21875 194.6875 C 191.644531 193.636719 190.960938 192.691406 190.382812 191.640625 C 189.441406 189.855469 188.652344 187.960938 187.816406 186.121094 C 187.027344 184.441406 186.085938 182.863281 185.351562 181.183594 C 185.71875 182.023438 186.085938 183.023438 186.503906 184.019531 Z M 248.011719 42.492188 C 246.910156 44.015625 246.019531 45.644531 244.972656 47.117188 C 243.609375 48.957031 242.351562 50.847656 241.144531 52.792969 C 240.09375 54.421875 238.941406 56 237.683594 57.46875 C 237.261719 57.941406 236.894531 58.414062 236.476562 58.886719 C 236.476562 58.886719 236.476562 58.886719 236.425781 58.941406 C 236.265625 59.152344 236.109375 59.363281 235.953125 59.570312 C 235.324219 60.414062 234.746094 61.253906 234.066406 62.09375 C 233.332031 62.988281 232.648438 63.933594 231.863281 64.722656 C 232.230469 64.355469 231.808594 64.773438 231.757812 64.878906 C 231.546875 65.140625 231.339844 65.40625 231.128906 65.667969 C 230.707031 66.195312 230.339844 66.71875 229.921875 67.246094 C 228.714844 68.820312 227.457031 70.34375 226.042969 71.710938 C 225.882812 71.871094 225.726562 72.027344 225.570312 72.183594 C 225.570312 72.183594 225.515625 72.238281 225.515625 72.238281 C 224.941406 72.972656 224.257812 73.605469 223.578125 74.285156 C 223.054688 74.863281 222.582031 75.390625 222.054688 75.96875 C 221.324219 76.757812 220.589844 77.597656 219.800781 78.386719 C 219.328125 78.859375 218.753906 78.703125 218.4375 78.28125 C 218.386719 78.230469 218.332031 78.125 218.332031 78.019531 C 217.128906 76.230469 215.921875 74.496094 214.664062 72.761719 C 214.085938 71.976562 213.5625 71.1875 212.984375 70.449219 C 212.566406 69.925781 212.199219 69.347656 211.777344 68.820312 C 211.777344 68.820312 211.726562 68.769531 211.726562 68.769531 C 211.570312 68.609375 211.464844 68.453125 211.308594 68.296875 C 209.785156 66.507812 208.371094 64.667969 206.851562 62.882812 C 206.167969 62.09375 205.328125 61.359375 204.59375 60.570312 C 203.914062 59.886719 203.335938 59.152344 202.707031 58.414062 C 201.394531 56.839844 200.136719 55.261719 198.984375 53.527344 C 198.300781 52.476562 197.726562 51.425781 197.042969 50.375 C 196.414062 49.480469 195.734375 48.589844 195.050781 47.695312 C 193.898438 46.171875 193.058594 44.382812 192.21875 42.703125 C 191.222656 40.757812 190.175781 38.867188 189.179688 36.972656 C 188.183594 35.027344 187.289062 33.085938 186.398438 31.085938 C 186.03125 30.195312 185.664062 29.351562 185.402344 28.40625 C 185.089844 27.460938 184.722656 26.515625 184.5625 25.515625 C 184.355469 24.308594 184.09375 23.152344 183.933594 21.941406 C 183.777344 20.785156 183.671875 19.578125 183.566406 18.421875 C 183.464844 17.527344 183.726562 16.53125 183.933594 15.636719 C 183.988281 15.164062 183.988281 14.691406 184.09375 14.21875 C 184.195312 13.746094 184.460938 13.273438 184.667969 12.851562 C 185.035156 12.21875 185.351562 11.539062 185.71875 10.90625 C 185.875 10.589844 186.03125 10.277344 186.292969 10.011719 C 187.027344 9.328125 187.867188 8.75 188.707031 8.171875 C 188.917969 7.964844 189.179688 7.753906 189.441406 7.59375 C 189.859375 7.386719 190.542969 7.386719 191.015625 7.332031 C 191.746094 7.226562 192.480469 7.175781 193.214844 7.070312 C 194.210938 6.964844 195.15625 7.121094 196.152344 7.175781 C 197.148438 7.226562 198.09375 7.386719 199.035156 7.59375 C 200.03125 7.859375 201.1875 7.964844 202.128906 8.4375 C 204.28125 9.488281 206.273438 10.644531 208.316406 11.851562 C 209.210938 12.378906 209.839844 13.273438 210.519531 14.058594 C 211.148438 14.742188 211.726562 15.425781 212.355469 16.160156 C 213.039062 16.949219 213.875 17.738281 214.402344 18.632812 C 214.976562 19.683594 215.554688 20.734375 216.132812 21.785156 C 216.707031 22.835938 217.285156 23.835938 217.808594 24.886719 C 218.332031 25.78125 218.542969 26.832031 218.859375 27.828125 C 219.433594 29.617188 220.117188 31.402344 220.640625 33.242188 C 220.902344 32.453125 221.375 31.664062 221.742188 30.929688 C 222.160156 30.089844 222.527344 29.40625 223.054688 28.671875 C 223.578125 27.933594 224.101562 27.199219 224.625 26.460938 C 225.253906 25.570312 225.9375 24.625 226.566406 23.730469 C 227.195312 22.890625 228.085938 22.152344 228.875 21.417969 C 229.503906 20.734375 230.238281 20.207031 230.917969 19.628906 C 231.496094 19.15625 232.019531 18.738281 232.597656 18.316406 C 233.121094 17.894531 233.699219 17.527344 234.328125 17.160156 C 235.113281 16.636719 235.898438 16.160156 236.6875 15.582031 C 237.472656 15.003906 238.257812 14.324219 239.152344 13.796875 C 241.089844 12.640625 243.082031 11.640625 245.128906 10.644531 C 245.96875 10.222656 246.910156 10.222656 247.90625 10.117188 C 248.589844 10.066406 249.269531 9.960938 249.953125 9.90625 C 250.371094 9.855469 250.6875 9.804688 251.054688 10.011719 C 252.15625 10.589844 253.152344 11.378906 254.199219 12.011719 C 254.515625 12.21875 254.988281 12.429688 255.195312 12.796875 C 255.460938 13.273438 255.667969 13.851562 255.878906 14.324219 C 256.296875 15.269531 256.664062 16.109375 256.925781 17.109375 C 257.191406 18.054688 257.453125 19.050781 257.609375 20 C 257.714844 20.683594 257.820312 21.417969 257.921875 22.101562 C 257.976562 22.519531 258.082031 22.890625 257.976562 23.308594 C 257.714844 24.464844 257.398438 25.675781 257.085938 26.832031 C 255.984375 30.667969 254.042969 34.1875 251.734375 37.445312 C 250.582031 39.179688 249.269531 40.808594 248.011719 42.492188 Z M 253.203125 19.316406 C 253.097656 19.105469 252.996094 18.84375 252.890625 18.632812 C 252.628906 18 252.367188 17.371094 252.101562 16.738281 C 252.050781 16.582031 251.945312 16.425781 251.894531 16.265625 C 251.421875 16.003906 250.949219 15.6875 250.53125 15.375 C 250.269531 15.214844 250.003906 15.003906 249.691406 14.847656 C 249.585938 14.796875 249.324219 14.691406 249.21875 14.53125 C 249.007812 14.53125 248.800781 14.480469 248.589844 14.480469 C 247.90625 14.425781 247.277344 14.324219 246.597656 14.269531 C 246.386719 14.269531 246.125 14.269531 245.96875 14.21875 C 245.390625 14.375 244.8125 14.480469 244.238281 14.585938 C 243.765625 14.691406 243.136719 14.953125 242.664062 14.953125 C 242.453125 15.058594 242.191406 15.164062 241.984375 15.269531 C 241.144531 15.636719 240.199219 15.953125 239.414062 16.425781 C 238.417969 17.003906 237.527344 17.6875 236.527344 18.265625 C 235.742188 18.738281 234.851562 19.210938 234.066406 19.683594 C 233.90625 19.734375 233.800781 19.839844 233.644531 19.945312 C 233.539062 20.050781 233.382812 20.15625 233.277344 20.261719 C 232.542969 20.945312 231.757812 21.574219 231.023438 22.257812 C 230.605469 22.679688 230.132812 23.152344 229.710938 23.570312 C 229.449219 23.835938 229.242188 24.046875 228.976562 24.308594 C 228.875 24.414062 228.714844 24.675781 228.558594 24.726562 C 228.558594 24.726562 228.507812 24.78125 228.507812 24.78125 C 228.347656 25.042969 228.140625 25.253906 227.980469 25.515625 C 227.5625 26.042969 227.195312 26.621094 226.777344 27.144531 C 226.199219 27.882812 225.675781 28.671875 225.097656 29.40625 C 224.519531 30.140625 224.101562 30.824219 223.683594 31.613281 C 223.367188 32.242188 223 32.820312 222.6875 33.453125 C 222.632812 33.503906 222.632812 33.609375 222.582031 33.664062 C 222.582031 33.609375 222.582031 33.609375 222.582031 33.714844 C 222.582031 33.769531 222.527344 33.769531 222.527344 33.820312 C 222.582031 33.769531 222.582031 33.769531 222.582031 33.714844 C 222.582031 33.820312 222.527344 33.925781 222.527344 34.03125 C 222.265625 35.027344 222.054688 36.027344 221.792969 37.027344 C 221.792969 37.234375 221.742188 37.394531 221.636719 37.5 C 221.480469 37.761719 221.21875 37.917969 220.957031 37.917969 C 220.640625 37.972656 220.328125 37.867188 220.167969 37.550781 C 220.117188 37.445312 220.0625 37.394531 220.011719 37.289062 C 218.753906 34.820312 217.441406 32.402344 216.289062 29.929688 C 215.867188 29.089844 215.554688 28.195312 215.082031 27.410156 C 214.769531 26.832031 214.402344 26.359375 214.035156 25.832031 C 213.195312 24.519531 212.355469 23.203125 211.570312 21.890625 C 211.410156 21.679688 211.097656 21.261719 211.042969 20.996094 C 210.941406 20.890625 210.886719 20.785156 210.78125 20.683594 C 210.152344 19.945312 209.523438 19.210938 208.894531 18.472656 C 208.527344 18 208.160156 17.527344 207.792969 17.054688 C 207.480469 16.636719 207.164062 16.214844 206.796875 15.742188 C 206.640625 15.582031 206.484375 15.375 206.324219 15.164062 C 206.21875 15.058594 206.117188 15.003906 205.957031 14.902344 C 205.539062 14.585938 205.121094 14.269531 204.699219 13.953125 C 204.226562 13.585938 203.808594 13.273438 203.335938 12.957031 C 202.550781 12.429688 201.761719 11.851562 200.976562 11.328125 C 200.871094 11.222656 200.714844 11.167969 200.609375 11.0625 C 200.558594 11.011719 200.558594 11.011719 200.558594 11.011719 C 200.296875 10.90625 200.03125 10.800781 199.769531 10.695312 C 198.933594 10.382812 198.09375 10.011719 197.253906 9.75 C 196.625 9.59375 195.941406 9.539062 195.3125 9.433594 C 194.839844 9.382812 194.316406 9.277344 193.84375 9.226562 C 193.792969 9.226562 193.6875 9.226562 193.636719 9.171875 C 193.636719 9.171875 193.636719 9.171875 193.582031 9.171875 C 193.214844 9.277344 192.746094 9.226562 192.324219 9.277344 C 191.800781 9.328125 191.277344 9.382812 190.75 9.382812 C 190.59375 9.382812 190.4375 9.382812 190.28125 9.433594 C 189.859375 9.804688 189.441406 10.117188 188.96875 10.484375 C 188.652344 10.75 188.289062 11.011719 187.972656 11.273438 C 187.867188 11.328125 187.761719 11.484375 187.65625 11.539062 C 187.605469 11.746094 187.394531 12.0625 187.289062 12.21875 C 187.082031 12.640625 186.820312 13.113281 186.609375 13.535156 C 186.453125 13.902344 186.242188 14.21875 186.085938 14.585938 C 186.085938 14.636719 186.03125 14.691406 186.03125 14.742188 C 186.03125 14.742188 186.03125 14.796875 186.03125 14.796875 C 186.03125 15.320312 185.925781 15.847656 185.824219 16.371094 C 185.824219 16.476562 185.769531 16.636719 185.769531 16.738281 C 185.71875 17.109375 185.664062 17.527344 185.664062 17.894531 C 185.664062 17.949219 185.664062 18.105469 185.664062 18.160156 C 185.980469 19.421875 186.085938 20.683594 186.453125 21.890625 C 186.660156 22.679688 186.921875 23.46875 187.1875 24.308594 C 187.289062 24.625 187.394531 24.9375 187.5 25.253906 C 187.5 25.253906 187.5 25.304688 187.5 25.304688 C 187.5 25.304688 187.5 25.359375 187.554688 25.464844 C 187.554688 25.464844 187.554688 25.464844 187.554688 25.515625 C 188.078125 26.671875 188.550781 27.933594 189.179688 29.089844 C 190.4375 31.351562 191.695312 33.609375 193.113281 35.765625 C 193.792969 36.867188 194.578125 37.972656 195.207031 39.128906 C 195.839844 40.285156 196.46875 41.386719 197.097656 42.542969 C 197.726562 43.648438 198.355469 44.855469 199.089844 45.90625 C 199.875 46.957031 200.765625 48.011719 201.449219 49.167969 C 202.761719 51.476562 204.125 53.738281 205.589844 55.945312 C 206.0625 56.679688 206.585938 57.417969 207.058594 58.152344 C 207.113281 58.207031 207.164062 58.308594 207.21875 58.414062 C 207.425781 58.679688 207.636719 58.941406 207.792969 59.152344 C 208.632812 60.203125 209.472656 61.253906 210.257812 62.410156 C 211.726562 64.667969 213.300781 66.824219 214.714844 69.085938 C 216.132812 71.398438 217.597656 73.605469 219.066406 75.863281 C 219.171875 76.074219 219.328125 76.230469 219.433594 76.441406 C 220.273438 75.546875 221.058594 74.65625 221.953125 73.761719 C 222.265625 73.394531 222.582031 73.078125 222.894531 72.710938 C 223.367188 72.183594 223.890625 71.660156 224.363281 71.1875 C 224.730469 70.714844 225.097656 70.242188 225.464844 69.765625 C 225.621094 69.558594 225.78125 69.398438 225.9375 69.1875 C 225.988281 69.136719 225.988281 69.136719 225.988281 69.085938 C 227.246094 67.453125 228.507812 65.824219 229.816406 64.25 C 230.078125 63.933594 230.339844 63.511719 230.65625 63.25 C 230.605469 63.304688 230.605469 63.304688 230.550781 63.355469 C 230.605469 63.304688 230.65625 63.25 230.707031 63.199219 C 230.867188 62.988281 231.074219 62.726562 231.234375 62.515625 C 231.808594 61.777344 232.335938 60.9375 232.964844 60.253906 C 233.699219 59.363281 234.433594 58.519531 235.21875 57.679688 C 235.21875 57.679688 235.21875 57.679688 235.269531 57.628906 C 235.375 57.46875 235.53125 57.3125 235.636719 57.101562 C 236.058594 56.578125 236.425781 56 236.84375 55.472656 C 237.839844 54.105469 238.679688 52.632812 239.675781 51.269531 C 240.304688 50.375 241.039062 49.535156 241.617188 48.589844 C 242.191406 47.746094 242.664062 46.800781 243.1875 45.90625 C 244.027344 44.488281 245.023438 43.175781 245.96875 41.808594 C 247.175781 40.074219 248.273438 38.390625 249.324219 36.554688 C 249.796875 35.765625 250.164062 34.925781 250.582031 34.082031 C 250.6875 33.871094 250.792969 33.609375 250.949219 33.398438 C 250.949219 33.347656 251 33.347656 251 33.292969 C 251.105469 32.820312 251.316406 32.347656 251.472656 31.929688 C 251.734375 31.140625 252.050781 30.300781 252.3125 29.511719 C 252.523438 28.878906 252.730469 28.25 252.941406 27.617188 C 253.046875 27.355469 253.097656 27.144531 253.203125 26.882812 C 253.203125 26.832031 253.257812 26.726562 253.257812 26.621094 C 253.257812 25.570312 253.464844 24.519531 253.570312 23.46875 C 253.675781 22.625 253.464844 21.679688 253.414062 20.839844 C 253.257812 20.3125 253.152344 19.734375 253.203125 19.316406 Z M 253.257812 19.421875 C 253.257812 19.578125 253.363281 19.683594 253.257812 19.421875 Z M 206.117188 14.953125 C 206.117188 15.003906 206.167969 15.058594 206.167969 15.058594 C 206.167969 15.003906 206.167969 14.953125 206.117188 14.953125 Z M 206.21875 15.058594 C 206.378906 15.269531 206.535156 15.320312 206.324219 15.109375 C 206.273438 15.109375 206.21875 15.109375 206.21875 15.058594 Z M 194.789062 43.753906 C 195.417969 44.910156 196.046875 46.066406 196.835938 47.117188 C 197.621094 48.21875 198.460938 49.269531 199.195312 50.375 C 199.929688 51.53125 200.609375 52.632812 201.394531 53.738281 C 201.867188 54.421875 202.394531 55.050781 202.863281 55.734375 C 202.863281 55.734375 202.863281 55.734375 202.8125 55.683594 C 202.8125 55.683594 202.863281 55.734375 202.863281 55.734375 C 202.863281 55.734375 202.917969 55.789062 202.917969 55.789062 C 202.917969 55.789062 202.96875 55.839844 202.96875 55.839844 C 203.230469 56.15625 203.492188 56.472656 203.757812 56.785156 C 204.125 57.207031 204.488281 57.679688 204.855469 58.101562 C 204.648438 57.835938 204.488281 57.523438 204.28125 57.257812 C 203.179688 55.683594 202.078125 54.054688 201.132812 52.371094 C 200.558594 51.375 200.03125 50.324219 199.402344 49.324219 C 198.773438 48.378906 198.039062 47.484375 197.304688 46.539062 C 196.730469 45.75 196.257812 44.804688 195.734375 43.964844 C 195.261719 43.175781 194.789062 42.386719 194.371094 41.546875 C 193.375 39.707031 192.273438 37.972656 191.171875 36.238281 C 190.542969 35.1875 189.914062 34.136719 189.285156 33.03125 C 189.859375 34.242188 190.4375 35.449219 191.066406 36.65625 C 192.378906 39.074219 193.476562 41.441406 194.789062 43.753906 Z M 207.6875 13.691406 C 207.585938 13.640625 207.585938 13.640625 207.6875 13.691406 Z M 212.671875 19.421875 C 212.671875 19.472656 212.773438 19.578125 212.671875 19.421875 Z M 215.449219 24.464844 C 214.664062 23.046875 213.875 21.628906 213.089844 20.207031 C 212.933594 19.945312 212.671875 19.628906 212.617188 19.367188 C 212.511719 19.261719 212.410156 19.105469 212.304688 19 C 211.675781 18.265625 210.992188 17.527344 210.363281 16.738281 C 209.996094 16.320312 209.578125 15.847656 209.210938 15.425781 C 208.84375 15.003906 208.476562 14.585938 208.160156 14.21875 C 208.054688 14.058594 207.898438 13.953125 207.792969 13.796875 C 207.742188 13.746094 207.742188 13.746094 207.742188 13.691406 C 207.425781 13.535156 207.113281 13.375 206.796875 13.167969 C 206.796875 13.167969 206.851562 13.21875 206.851562 13.21875 C 207.164062 13.480469 207.53125 13.691406 207.792969 14.058594 C 208.160156 14.53125 208.476562 15.003906 208.84375 15.480469 C 209.210938 15.953125 209.578125 16.425781 209.945312 16.949219 C 209.945312 16.949219 209.945312 16.949219 209.996094 17.003906 C 210.152344 17.214844 210.3125 17.371094 210.46875 17.582031 C 211.148438 18.371094 211.988281 19.15625 212.566406 20.050781 C 213.195312 21.050781 213.773438 22.101562 214.402344 23.152344 C 214.976562 24.046875 215.605469 24.9375 216.183594 25.832031 C 216.289062 25.9375 216.339844 26.09375 216.445312 26.253906 C 216.445312 26.199219 216.445312 26.199219 216.394531 26.148438 C 216.339844 26.042969 216.289062 25.9375 216.234375 25.832031 C 215.921875 25.359375 215.710938 24.886719 215.449219 24.464844 Z M 254.09375 29.878906 C 254.042969 29.929688 254.042969 29.984375 254.042969 29.984375 C 254.09375 29.929688 254.09375 29.878906 254.148438 29.773438 C 254.515625 28.671875 254.988281 27.566406 255.300781 26.460938 C 255.617188 25.464844 255.824219 24.464844 256.089844 23.414062 C 256.140625 23.257812 256.140625 22.992188 256.246094 22.835938 C 256.140625 22.257812 256.089844 21.628906 255.984375 20.996094 C 255.878906 20.050781 255.667969 19.15625 255.40625 18.265625 C 255.300781 17.894531 255.25 17.582031 255.144531 17.214844 C 255.09375 17.003906 254.933594 16.738281 254.988281 16.53125 C 254.988281 16.53125 254.988281 16.53125 254.988281 16.476562 C 254.882812 16.214844 254.726562 15.953125 254.621094 15.636719 C 254.359375 15.003906 254.042969 14.425781 253.78125 13.796875 C 253.78125 13.796875 253.78125 13.796875 253.78125 13.746094 C 253.675781 13.691406 253.570312 13.585938 253.519531 13.535156 C 252.523438 12.902344 251.367188 12.273438 250.425781 11.539062 C 250.269531 11.539062 250.109375 11.539062 250.058594 11.539062 C 249.375 11.589844 248.695312 11.695312 248.066406 11.746094 C 247.488281 11.800781 246.964844 11.90625 246.386719 11.957031 C 246.230469 12.011719 246.074219 12.117188 245.914062 12.167969 C 245.863281 12.21875 245.757812 12.21875 245.707031 12.273438 C 246.019531 12.21875 246.28125 12.21875 246.597656 12.273438 C 247.277344 12.324219 247.960938 12.429688 248.640625 12.484375 C 249.113281 12.535156 249.691406 12.535156 250.109375 12.695312 C 251.054688 13.167969 252 13.902344 252.890625 14.480469 C 253.203125 14.691406 253.464844 14.847656 253.625 15.214844 C 253.886719 15.742188 254.09375 16.320312 254.359375 16.898438 C 254.566406 17.421875 254.777344 17.949219 255.039062 18.472656 C 255.195312 18.84375 255.195312 19.210938 255.25 19.628906 C 255.300781 20.683594 255.511719 21.785156 255.460938 22.890625 C 255.460938 23.941406 255.25 25.042969 255.144531 26.148438 C 255.039062 27.09375 254.671875 27.933594 254.410156 28.828125 C 254.199219 29.40625 254.042969 29.984375 253.832031 30.5625 C 253.886719 30.457031 253.9375 30.351562 254.042969 30.195312 C 253.9375 30.195312 253.992188 30.035156 254.09375 29.878906 Z M 126.9375 88.84375 C 126.988281 88.265625 126.9375 87.636719 127.039062 87.058594 C 127.144531 86.425781 127.304688 85.847656 127.460938 85.21875 C 127.617188 84.640625 127.667969 83.957031 127.878906 83.378906 C 128.035156 82.800781 128.402344 82.273438 128.613281 81.75 C 128.929688 81.117188 129.191406 80.4375 129.503906 79.804688 C 129.765625 79.386719 130.132812 78.964844 130.449219 78.542969 C 130.921875 77.964844 131.394531 77.28125 131.863281 76.703125 C 132.179688 76.335938 132.652344 76.125 133.019531 75.917969 C 133.699219 75.496094 134.382812 75.074219 135.0625 74.65625 C 135.429688 74.390625 135.851562 74.339844 136.269531 74.234375 C 137.054688 74.023438 137.894531 73.867188 138.683594 73.65625 C 139.886719 73.394531 141.144531 73.339844 142.40625 73.234375 C 142.875 73.183594 143.242188 73.128906 143.664062 73.289062 C 144.449219 73.5 145.183594 73.761719 145.96875 74.023438 C 147.175781 74.390625 148.171875 74.96875 149.273438 75.546875 C 149.796875 75.8125 150.375 76.019531 150.792969 76.390625 C 151.265625 76.808594 151.6875 77.28125 152.15625 77.703125 C 153.835938 79.386719 155.410156 81.171875 156.71875 83.167969 C 158.03125 85.21875 159.34375 87.269531 160.179688 89.582031 C 160.601562 90.683594 161.019531 91.839844 161.4375 92.945312 C 161.859375 94.046875 162.4375 95.203125 162.75 96.359375 C 163.066406 97.570312 163.433594 98.726562 163.800781 99.933594 C 164.007812 98.828125 164.429688 97.777344 164.742188 96.726562 C 165.058594 95.730469 165.371094 94.730469 165.6875 93.730469 C 166.367188 91.578125 167.3125 89.582031 168.359375 87.582031 C 168.886719 86.585938 169.355469 85.535156 169.988281 84.535156 C 170.667969 83.484375 171.246094 82.273438 172.03125 81.328125 C 172.816406 80.332031 173.605469 79.332031 174.496094 78.4375 C 174.8125 78.125 175.179688 77.859375 175.546875 77.652344 C 176.175781 77.175781 176.804688 76.703125 177.433594 76.230469 C 178.324219 75.546875 179.371094 75.128906 180.371094 74.601562 C 180.839844 74.390625 181.261719 74.078125 181.785156 74.023438 C 182.414062 73.917969 183.042969 73.867188 183.671875 73.8125 C 184.773438 73.65625 185.769531 73.605469 186.871094 73.605469 C 188.023438 73.65625 189.230469 73.5 190.332031 73.917969 C 191.066406 74.183594 191.851562 74.496094 192.585938 74.761719 C 192.953125 74.917969 193.425781 75.023438 193.742188 75.234375 C 194.316406 75.601562 194.894531 76.125 195.472656 76.546875 C 195.941406 76.914062 196.570312 77.230469 196.9375 77.703125 C 197.253906 78.125 197.464844 78.648438 197.671875 79.121094 C 197.988281 79.699219 198.300781 80.332031 198.617188 80.910156 C 198.828125 81.328125 198.828125 81.800781 198.878906 82.222656 C 198.984375 83.011719 199.089844 83.746094 199.246094 84.535156 C 199.402344 85.640625 199.351562 86.792969 199.300781 87.949219 C 199.402344 88.425781 199.457031 88.898438 199.507812 89.421875 C 199.71875 91.839844 199.824219 94.257812 200.03125 96.675781 C 200.136719 97.777344 199.929688 98.933594 199.824219 100.039062 C 199.71875 101.195312 199.351562 102.191406 198.984375 103.246094 C 198.300781 105.292969 197.570312 107.292969 196.675781 109.234375 C 196.207031 110.179688 195.839844 111.234375 195.261719 112.125 C 194.578125 113.070312 193.84375 113.964844 193.269531 114.964844 C 192.640625 116.066406 192.167969 117.222656 191.539062 118.328125 C 190.960938 119.324219 190.28125 120.324219 189.703125 121.324219 C 188.550781 123.109375 187.34375 124.898438 186.242188 126.683594 C 185.140625 128.46875 184.195312 130.308594 183.148438 132.097656 C 181.941406 134.144531 180.734375 136.144531 179.582031 138.246094 C 179.003906 139.296875 178.480469 140.398438 177.90625 141.453125 C 177.378906 142.449219 176.75 143.34375 176.175781 144.289062 C 175.074219 146.023438 174.023438 147.808594 173.027344 149.648438 C 172.554688 150.542969 172.03125 151.4375 171.613281 152.382812 C 171.140625 153.382812 170.722656 154.433594 170.144531 155.378906 C 169.515625 156.429688 168.886719 157.429688 168.257812 158.480469 C 167.785156 159.265625 166.789062 158.898438 166.578125 158.214844 C 165.84375 157.480469 165.109375 156.746094 164.429688 155.957031 C 163.640625 155.0625 162.90625 154.0625 162.171875 153.171875 C 160.652344 151.332031 159.027344 149.542969 157.402344 147.757812 C 155.777344 145.972656 154.308594 144.078125 152.789062 142.238281 C 152 141.292969 151.214844 140.398438 150.480469 139.507812 C 149.695312 138.507812 148.960938 137.457031 148.171875 136.457031 C 147.4375 135.511719 146.601562 134.621094 145.96875 133.621094 C 145.339844 132.621094 144.921875 131.464844 144.292969 130.414062 C 143.664062 129.3125 142.824219 128.3125 142.140625 127.261719 C 141.460938 126.210938 140.882812 125.160156 140.253906 124.109375 C 137.84375 120.113281 135.851562 115.960938 133.699219 111.863281 C 132.652344 109.8125 131.707031 107.710938 130.710938 105.660156 C 130.1875 104.558594 129.453125 103.453125 129.085938 102.246094 C 128.71875 101.089844 128.351562 99.933594 128.089844 98.726562 C 127.828125 97.464844 127.460938 96.203125 127.304688 94.941406 C 127.144531 93.730469 126.882812 92.472656 126.882812 91.261719 C 126.832031 90.261719 126.882812 89.527344 126.9375 88.84375 Z M 158.398438 89.582031 C 158.34375 89.527344 158.34375 89.421875 158.292969 89.371094 C 157.925781 88.632812 157.558594 87.898438 157.191406 87.164062 C 156.667969 86.113281 156.039062 85.21875 155.410156 84.21875 C 155.199219 83.90625 155.042969 83.640625 154.832031 83.328125 C 154.78125 83.273438 154.726562 83.167969 154.675781 83.117188 C 154.203125 82.589844 153.785156 82.066406 153.363281 81.539062 C 152.628906 80.644531 151.84375 79.804688 151.003906 78.964844 C 150.585938 78.542969 150.113281 78.175781 149.746094 77.703125 C 149.640625 77.652344 149.535156 77.597656 149.484375 77.546875 C 149.117188 77.335938 148.75 77.175781 148.382812 76.96875 C 148.015625 76.757812 147.648438 76.597656 147.28125 76.390625 C 147.070312 76.285156 146.757812 76.179688 146.546875 76.019531 C 146.496094 76.019531 146.441406 75.96875 146.390625 75.96875 C 146.023438 75.863281 145.707031 75.757812 145.339844 75.652344 C 144.605469 75.441406 143.871094 75.234375 143.191406 74.96875 C 143.191406 74.96875 143.140625 74.96875 143.140625 74.96875 C 142.824219 75.023438 142.457031 75.023438 142.140625 75.074219 C 141.355469 75.128906 140.621094 75.234375 139.835938 75.285156 C 139.78125 75.285156 139.78125 75.285156 139.730469 75.285156 C 139.46875 75.390625 139.101562 75.441406 138.839844 75.496094 C 138.050781 75.652344 137.316406 75.863281 136.53125 76.019531 C 136.425781 76.019531 136.375 76.074219 136.269531 76.074219 C 136.113281 76.230469 135.851562 76.335938 135.640625 76.441406 C 134.957031 76.863281 134.222656 77.335938 133.542969 77.753906 C 133.492188 77.808594 133.386719 77.859375 133.332031 77.859375 C 133.332031 77.859375 133.332031 77.859375 133.332031 77.808594 C 133.332031 77.808594 133.332031 77.808594 133.332031 77.859375 C 133.28125 77.859375 133.28125 77.914062 133.226562 77.914062 C 133.070312 77.964844 133.226562 77.964844 133.332031 77.859375 C 133.28125 78.019531 133.019531 78.230469 132.914062 78.386719 C 132.390625 79.070312 131.863281 79.699219 131.339844 80.382812 C 131.289062 80.4375 131.234375 80.539062 131.183594 80.59375 C 131.183594 80.59375 131.128906 80.644531 131.128906 80.644531 C 131.027344 80.804688 131.128906 80.699219 131.183594 80.644531 C 131.128906 80.804688 130.972656 81.066406 130.921875 81.171875 C 130.554688 81.90625 130.238281 82.695312 129.871094 83.429688 C 129.765625 83.589844 129.714844 83.800781 129.609375 83.957031 C 129.765625 83.589844 129.714844 83.90625 129.609375 84.113281 C 129.925781 83.535156 130.1875 82.90625 130.5 82.328125 C 130.710938 81.90625 130.921875 81.328125 131.234375 80.960938 C 131.550781 80.59375 132.023438 80.277344 132.390625 79.910156 C 133.125 79.226562 133.910156 78.28125 134.855469 77.808594 C 136.007812 77.230469 137.160156 76.597656 138.367188 76.074219 C 138.839844 75.863281 139.363281 75.96875 139.886719 75.96875 C 140.675781 75.96875 141.460938 75.96875 142.195312 76.019531 C 143.296875 76.019531 144.398438 76.496094 145.445312 76.863281 C 145.867188 77.019531 146.390625 77.074219 146.808594 77.335938 C 147.332031 77.597656 147.859375 77.964844 148.382812 78.28125 C 148.90625 78.597656 149.429688 78.910156 149.957031 79.226562 C 150.324219 79.488281 150.636719 79.859375 150.953125 80.171875 C 151.6875 80.960938 152.472656 81.695312 153.207031 82.484375 C 153.730469 83.011719 154.203125 83.589844 154.726562 84.113281 C 155.042969 84.484375 155.460938 84.851562 155.722656 85.21875 C 156.40625 86.269531 156.980469 87.371094 157.558594 88.476562 C 158.03125 89.316406 158.449219 90.105469 158.921875 90.945312 C 158.816406 90.683594 158.710938 90.367188 158.609375 90.105469 C 158.554688 90 158.449219 89.789062 158.398438 89.582031 Z M 130.34375 93.574219 C 130.34375 93.574219 130.34375 93.523438 130.34375 93.523438 C 130.34375 93.574219 130.398438 93.679688 130.398438 93.730469 C 130.5 94.101562 130.554688 94.414062 130.660156 94.78125 C 130.816406 95.519531 131.027344 96.203125 131.183594 96.9375 C 131.445312 97.9375 131.863281 98.882812 132.230469 99.828125 C 132.546875 100.722656 132.914062 101.613281 133.226562 102.5625 C 133.492188 103.246094 133.753906 103.925781 133.960938 104.609375 C 133.960938 104.664062 134.015625 104.664062 134.015625 104.714844 C 134.121094 104.875 134.222656 105.082031 134.328125 105.242188 C 134.90625 106.238281 135.429688 107.292969 136.007812 108.238281 C 136.6875 109.289062 137.476562 110.339844 138.15625 111.390625 C 138.734375 112.285156 139.207031 113.335938 139.679688 114.28125 C 140.148438 115.226562 140.882812 116.066406 141.511719 116.960938 C 142.140625 117.800781 142.667969 118.644531 143.191406 119.535156 C 144.238281 121.324219 145.234375 123.109375 146.285156 124.898438 C 147.4375 126.789062 148.695312 128.679688 149.902344 130.519531 C 151.214844 132.515625 152.472656 134.460938 153.785156 136.457031 C 154.359375 137.351562 155.042969 138.246094 155.722656 139.085938 C 156.351562 139.925781 156.878906 140.820312 157.453125 141.714844 C 158.554688 143.449219 159.65625 145.183594 160.863281 146.8125 C 161.28125 147.390625 161.753906 148.019531 162.171875 148.597656 C 162.226562 148.703125 162.332031 148.757812 162.332031 148.808594 C 162.332031 148.808594 162.277344 148.757812 162.226562 148.703125 C 162.382812 148.863281 162.539062 149.070312 162.644531 149.230469 C 163.378906 150.121094 164.167969 150.964844 164.847656 151.855469 C 165.214844 152.382812 165.53125 152.855469 165.898438 153.382812 C 166.734375 151.648438 167.523438 149.964844 168.414062 148.230469 C 169.410156 146.285156 170.617188 144.445312 171.875 142.660156 C 173.082031 140.875 174.179688 139.035156 175.386719 137.246094 C 176.015625 136.300781 176.644531 135.40625 177.222656 134.460938 C 177.800781 133.464844 178.324219 132.464844 179.003906 131.519531 C 179.738281 130.519531 180.578125 129.625 181.207031 128.574219 C 181.835938 127.578125 182.308594 126.421875 182.832031 125.371094 C 183.933594 123.320312 185.035156 121.324219 186.085938 119.273438 C 187.132812 117.277344 188.183594 115.332031 189.179688 113.335938 C 190.121094 111.390625 191.015625 109.394531 191.90625 107.449219 C 192.0625 107.132812 192.21875 106.765625 192.378906 106.449219 C 192.429688 106.34375 192.640625 105.820312 192.480469 106.238281 C 192.691406 105.660156 192.953125 105.082031 193.164062 104.503906 C 193.582031 103.453125 194.003906 102.402344 194.476562 101.351562 C 194.789062 100.722656 195.050781 100.039062 195.367188 99.40625 C 195.367188 99.40625 195.367188 99.40625 195.367188 99.355469 C 195.367188 99.355469 195.367188 99.304688 195.367188 99.304688 C 195.417969 98.988281 195.523438 98.726562 195.628906 98.410156 C 195.941406 97.359375 196.308594 96.308594 196.519531 95.203125 C 196.675781 94.414062 196.78125 93.625 196.9375 92.785156 C 196.992188 92.574219 196.992188 92.367188 197.042969 92.15625 C 197.042969 92.101562 197.042969 92.050781 197.042969 91.996094 C 197.203125 90.839844 197.410156 89.683594 197.464844 88.527344 C 197.464844 88.371094 197.464844 88.160156 197.464844 88.003906 C 197.410156 87.636719 197.359375 87.269531 197.253906 86.898438 C 197.203125 86.585938 197.148438 86.269531 197.097656 86.007812 C 197.097656 85.953125 197.042969 85.847656 197.042969 85.742188 C 196.730469 85.324219 196.570312 84.691406 196.308594 84.273438 C 195.996094 83.640625 195.679688 82.957031 195.367188 82.328125 C 195.367188 82.273438 195.3125 82.222656 195.261719 82.171875 C 195.105469 82.066406 195 81.90625 194.894531 81.800781 C 194.371094 81.277344 193.792969 80.75 193.269531 80.171875 C 193.058594 79.960938 192.796875 79.699219 192.585938 79.488281 C 192.535156 79.4375 192.535156 79.4375 192.480469 79.382812 C 192.0625 79.226562 191.589844 79.015625 191.222656 78.859375 C 190.542969 78.597656 189.859375 78.28125 189.179688 78.019531 C 189.125 78.019531 188.917969 77.964844 188.8125 77.914062 C 188.917969 77.964844 189.074219 77.914062 188.863281 77.914062 C 188.863281 77.914062 188.8125 77.914062 188.8125 77.914062 C 188.8125 77.914062 188.757812 77.914062 188.757812 77.859375 C 188.757812 77.859375 188.757812 77.859375 188.8125 77.914062 C 188.707031 77.914062 188.601562 77.914062 188.496094 77.914062 C 187.761719 77.914062 186.976562 77.914062 186.242188 77.964844 C 185.980469 77.964844 185.664062 77.964844 185.402344 77.964844 C 185.351562 77.964844 185.351562 77.964844 185.351562 77.964844 C 184.722656 78.230469 183.988281 78.332031 183.359375 78.542969 C 183.042969 78.648438 182.675781 78.753906 182.363281 78.804688 C 182.257812 78.859375 182.152344 78.859375 181.996094 78.910156 C 181.996094 78.910156 181.941406 78.910156 181.941406 78.910156 C 181.835938 78.964844 181.628906 79.070312 181.574219 79.121094 C 181.261719 79.332031 180.894531 79.488281 180.578125 79.699219 C 180.003906 80.015625 179.425781 80.4375 178.796875 80.699219 C 178.796875 80.699219 178.796875 80.699219 178.742188 80.699219 C 178.535156 80.910156 178.324219 81.117188 178.113281 81.277344 C 177.539062 81.800781 177.011719 82.328125 176.4375 82.851562 C 176.332031 82.957031 176.175781 83.167969 176.015625 83.222656 C 175.964844 83.273438 175.964844 83.328125 175.910156 83.378906 C 175.230469 84.324219 174.546875 85.269531 173.867188 86.214844 C 173.132812 87.214844 172.292969 88.214844 171.613281 89.210938 C 170.984375 90.160156 170.5625 91.261719 170.089844 92.261719 C 169.621094 93.207031 169.253906 94.152344 168.832031 95.097656 C 168.726562 95.414062 168.570312 95.675781 168.464844 95.992188 C 168.359375 96.203125 168.308594 96.570312 168.359375 96.148438 C 168.257812 96.726562 167.992188 97.253906 167.835938 97.777344 C 167.207031 99.828125 166.628906 101.824219 166.160156 103.925781 C 165.949219 104.820312 165.738281 105.714844 165.53125 106.660156 C 165.53125 106.765625 165.582031 106.871094 165.582031 106.921875 C 165.738281 107.605469 165.164062 108.027344 164.636719 108.078125 C 164.429688 108.078125 164.167969 108.027344 163.957031 107.921875 C 163.746094 108.132812 163.433594 108.183594 163.167969 108.132812 C 162.75 108.238281 162.277344 108.027344 162.171875 107.5 C 161.230469 103.246094 160.128906 99.144531 158.554688 95.046875 C 158.292969 94.363281 158.03125 93.679688 157.769531 92.996094 C 157.769531 92.945312 157.714844 92.890625 157.714844 92.839844 C 157.613281 92.734375 157.507812 92.472656 157.453125 92.3125 C 156.929688 91.316406 156.40625 90.367188 155.828125 89.371094 C 155.515625 88.792969 155.199219 88.214844 154.832031 87.636719 C 154.621094 87.320312 154.464844 87.003906 154.253906 86.636719 C 154.152344 86.480469 153.992188 86.269531 153.941406 86.113281 C 153.886719 86.058594 153.886719 86.007812 153.835938 86.007812 C 153.625 85.742188 153.417969 85.535156 153.15625 85.269531 C 152.628906 84.746094 152.15625 84.167969 151.632812 83.640625 C 150.898438 82.851562 150.113281 82.117188 149.378906 81.328125 C 149.167969 81.117188 149.011719 80.960938 148.800781 80.75 C 148.800781 80.75 148.75 80.699219 148.75 80.699219 C 148.171875 80.382812 147.597656 80.015625 147.019531 79.648438 C 146.703125 79.488281 146.441406 79.28125 146.128906 79.121094 C 146.023438 79.070312 145.8125 78.964844 145.65625 78.859375 C 145.550781 78.859375 145.5 78.804688 145.445312 78.804688 C 145.078125 78.703125 144.765625 78.597656 144.398438 78.492188 C 143.714844 78.28125 143.035156 78.125 142.40625 77.859375 C 142.351562 77.859375 142.351562 77.859375 142.351562 77.859375 C 142.089844 77.859375 141.828125 77.859375 141.566406 77.859375 C 140.777344 77.859375 140.046875 77.859375 139.257812 77.808594 C 139.152344 77.808594 138.945312 77.808594 138.839844 77.808594 C 138.839844 77.808594 138.785156 77.808594 138.785156 77.808594 C 138.105469 78.125 137.476562 78.4375 136.792969 78.753906 C 136.375 78.964844 135.796875 79.382812 135.324219 79.488281 C 135.273438 79.542969 135.273438 79.542969 135.222656 79.542969 C 134.957031 79.753906 134.75 80.015625 134.488281 80.226562 C 133.910156 80.75 133.332031 81.277344 132.757812 81.800781 C 132.703125 81.855469 132.492188 82.117188 132.390625 82.171875 C 132.335938 82.222656 132.335938 82.273438 132.285156 82.328125 C 131.96875 82.957031 131.65625 83.589844 131.339844 84.21875 C 131.128906 84.640625 130.921875 85.324219 130.605469 85.691406 C 130.554688 85.953125 130.554688 86.269531 130.5 86.53125 C 130.34375 87.582031 130.132812 88.632812 130.132812 89.632812 C 130.132812 90.367188 130.132812 91.050781 130.132812 91.789062 C 130.132812 92.207031 130.238281 92.839844 130.132812 93.257812 C 130.132812 93.101562 130.03125 93.101562 130.132812 93.257812 C 130.132812 93.257812 130.132812 93.3125 130.132812 93.3125 C 130.34375 93.523438 130.34375 93.523438 130.34375 93.574219 Z M 192.585938 79.332031 C 192.535156 79.28125 192.535156 79.28125 192.585938 79.332031 Z M 157.875 92.945312 C 157.875 92.890625 157.820312 92.890625 157.820312 92.839844 C 157.769531 92.679688 157.820312 92.890625 157.875 92.945312 Z M 168.203125 92.472656 C 168.203125 92.523438 168.203125 92.523438 168.152344 92.523438 C 168.152344 92.523438 168.152344 92.523438 168.152344 92.574219 C 168.152344 92.574219 168.152344 92.628906 168.152344 92.628906 C 168.359375 92.15625 168.570312 91.683594 168.832031 91.210938 C 168.9375 90.945312 169.042969 90.738281 169.199219 90.472656 C 169.042969 90.839844 168.832031 91.261719 168.675781 91.628906 C 168.464844 91.945312 168.308594 92.207031 168.203125 92.472656 Z M 173.605469 82.433594 C 173.605469 82.484375 173.605469 82.484375 173.605469 82.433594 C 173.449219 82.644531 173.550781 82.589844 173.605469 82.433594 Z M 195.574219 78.703125 C 195.367188 78.542969 195.15625 78.386719 194.894531 78.175781 C 194.316406 77.753906 193.742188 77.28125 193.113281 76.863281 C 193.058594 76.808594 192.902344 76.757812 192.902344 76.703125 C 192.691406 76.652344 192.535156 76.546875 192.324219 76.496094 C 191.589844 76.230469 190.855469 75.917969 190.070312 75.652344 C 189.914062 75.601562 189.597656 75.546875 189.441406 75.441406 C 189.386719 75.441406 189.335938 75.441406 189.285156 75.441406 C 188.550781 75.441406 187.761719 75.390625 187.027344 75.390625 C 185.925781 75.339844 184.929688 75.441406 183.828125 75.601562 C 183.304688 75.652344 182.625 75.8125 182.097656 75.8125 C 181.835938 75.96875 181.523438 76.125 181.207031 76.285156 C 180.265625 76.757812 179.269531 77.175781 178.375 77.859375 C 177.746094 78.332031 177.117188 78.808594 176.4375 79.28125 C 176.226562 79.4375 176.070312 79.59375 175.859375 79.699219 C 175.859375 79.699219 175.808594 79.753906 175.808594 79.804688 C 175.386719 80.382812 174.863281 80.960938 174.390625 81.488281 C 174.179688 81.75 173.972656 82.011719 173.761719 82.273438 C 173.710938 82.328125 173.65625 82.433594 173.550781 82.484375 C 173.34375 83.011719 172.921875 83.484375 172.660156 83.90625 C 172.292969 84.484375 171.925781 85.0625 171.558594 85.640625 C 170.929688 86.691406 170.355469 87.847656 169.828125 88.949219 C 169.933594 88.738281 170.089844 88.476562 170.25 88.265625 C 171.71875 86.269531 173.183594 84.273438 174.652344 82.273438 C 175.335938 81.328125 176.382812 80.59375 177.222656 79.753906 C 178.0625 78.964844 179.058594 78.492188 180.003906 77.964844 C 180.472656 77.703125 180.945312 77.386719 181.417969 77.175781 C 181.890625 77.019531 182.414062 76.863281 182.9375 76.757812 C 184.039062 76.441406 185.035156 76.125 186.191406 76.074219 C 186.976562 76.074219 187.761719 76.074219 188.550781 76.019531 C 188.917969 76.019531 189.230469 76.019531 189.597656 76.125 C 190.855469 76.597656 192.0625 77.125 193.269531 77.652344 C 193.6875 77.808594 193.949219 78.125 194.316406 78.4375 C 194.894531 79.015625 195.472656 79.542969 195.996094 80.121094 C 196.207031 80.332031 196.414062 80.539062 196.625 80.75 C 196.570312 80.644531 196.519531 80.539062 196.46875 80.4375 C 196.257812 79.960938 195.839844 79.332031 195.574219 78.703125 Z M 189.914062 117.382812 C 190.488281 116.382812 190.960938 115.382812 191.484375 114.386719 C 191.957031 113.492188 192.640625 112.652344 193.214844 111.8125 C 193.476562 111.441406 193.792969 111.074219 194.003906 110.707031 C 194.265625 110.234375 194.476562 109.707031 194.683594 109.234375 C 195 108.605469 195.261719 107.972656 195.574219 107.394531 C 195.679688 107.132812 195.785156 106.816406 195.890625 106.554688 C 196.257812 105.558594 196.675781 104.558594 197.042969 103.558594 C 197.304688 102.824219 197.515625 102.140625 197.777344 101.40625 C 197.882812 101.140625 197.9375 100.878906 198.039062 100.617188 C 198.039062 100.5625 198.09375 100.5625 198.09375 100.511719 C 198.144531 99.304688 198.355469 98.09375 198.355469 96.886719 C 198.355469 96.726562 198.355469 96.515625 198.355469 96.359375 C 198.199219 96.9375 198.09375 97.570312 197.882812 98.148438 C 197.570312 99.304688 197.203125 100.355469 196.730469 101.40625 C 196.414062 102.089844 196.101562 102.824219 195.785156 103.507812 C 195.785156 103.558594 195.734375 103.613281 195.734375 103.664062 C 195.628906 103.925781 195.523438 104.136719 195.417969 104.402344 C 194.578125 106.554688 193.582031 108.605469 192.585938 110.707031 C 191.644531 112.808594 190.699219 114.910156 189.597656 116.960938 C 188.496094 119.0625 187.34375 121.164062 186.242188 123.214844 C 186.242188 123.265625 186.191406 123.320312 186.191406 123.320312 C 187.449219 121.269531 188.757812 119.378906 189.914062 117.382812 Z M 169.988281 151.277344 C 170.824219 149.492188 171.820312 147.707031 172.871094 146.023438 C 173.972656 144.183594 175.230469 142.34375 176.277344 140.453125 C 176.855469 139.347656 177.378906 138.246094 178.007812 137.140625 C 178.585938 136.144531 179.164062 135.144531 179.792969 134.144531 C 180.210938 133.410156 180.632812 132.675781 181.050781 131.9375 C 181 132.042969 180.894531 132.097656 180.839844 132.203125 C 180.160156 133.09375 179.636719 134.144531 179.058594 135.144531 C 177.957031 137.035156 176.644531 138.824219 175.492188 140.664062 C 174.285156 142.554688 172.976562 144.34375 171.820312 146.234375 C 170.667969 148.230469 169.515625 150.226562 168.519531 152.277344 C 168.046875 153.277344 167.574219 154.273438 167.15625 155.21875 C 167.15625 155.378906 167.050781 155.589844 166.945312 155.695312 C 167.101562 155.851562 167.261719 156.0625 167.46875 156.21875 C 167.890625 155.535156 168.257812 154.90625 168.675781 154.222656 C 169.148438 153.328125 169.515625 152.277344 169.988281 151.277344 Z M 137.371094 114.804688 C 138.417969 116.804688 139.414062 118.851562 140.570312 120.796875 C 141.671875 122.742188 142.773438 124.738281 144.03125 126.578125 C 144.710938 127.578125 145.445312 128.523438 146.023438 129.574219 C 146.546875 130.625 147.019531 131.78125 147.699219 132.726562 C 148.433594 133.671875 149.167969 134.621094 149.851562 135.511719 C 150.324219 136.144531 150.792969 136.773438 151.265625 137.40625 C 151.425781 137.613281 151.632812 137.878906 151.789062 138.085938 C 151.789062 138.085938 151.84375 138.140625 151.894531 138.191406 C 153.46875 139.980469 154.882812 141.925781 156.40625 143.710938 C 156.667969 144.027344 156.929688 144.34375 157.246094 144.65625 C 156.144531 142.921875 155.09375 141.1875 153.886719 139.507812 C 152.578125 137.773438 151.425781 135.984375 150.21875 134.144531 C 148.90625 132.148438 147.597656 130.203125 146.335938 128.261719 C 145.078125 126.316406 143.925781 124.265625 142.773438 122.214844 C 141.722656 120.324219 140.570312 118.539062 139.3125 116.804688 C 138.683594 115.910156 138.15625 115.070312 137.632812 114.070312 C 137.160156 113.175781 136.6875 112.335938 136.113281 111.496094 C 135.378906 110.445312 134.644531 109.394531 134.015625 108.289062 C 134.066406 108.34375 134.066406 108.449219 134.121094 108.5 C 135.117188 110.65625 136.269531 112.703125 137.371094 114.804688 Z M 130.765625 101.40625 C 130.765625 101.457031 130.816406 101.5625 130.816406 101.667969 C 130.972656 101.984375 131.183594 102.296875 131.339844 102.613281 C 131.289062 102.402344 131.183594 102.191406 131.128906 101.984375 C 130.816406 101.140625 130.5 100.300781 130.1875 99.460938 C 130.292969 99.777344 130.398438 100.144531 130.5 100.460938 C 130.554688 100.773438 130.660156 101.089844 130.765625 101.40625 Z M 130.765625 101.40625 " fill-opacity="1" fill-rule="nonzero"/></g></svg>