<svg xmlns="http://www.w3.org/2000/svg" xmlns:xlink="http://www.w3.org/1999/xlink" width="1080" zoomAndPan="magnify" viewBox="0 0 810 809.999993" height="1080" preserveAspectRatio="xMidYMid meet" version="1.0"><defs><clipPath id="831a5cf642"><path d="M 34.566406 0.523438 L 775.425781 0.523438 L 775.425781 809.402344 L 34.566406 809.402344 Z M 34.566406 0.523438 " clip-rule="nonzero"/></clipPath></defs><g clip-path="url(#831a5cf642)"><path fill="#f4f1ec" d="M 316.773438 670.582031 C 316.636719 672.195312 316.5 673.808594 315.941406 675.164062 C 315.675781 673.304688 314.175781 673.65625 313.910156 671.796875 C 315.820312 671.6875 314.929688 669.445312 316.773438 670.582031 Z M 345.234375 612.714844 C 345.378906 610.398438 345.53125 608.085938 346.957031 606.6875 C 348.347656 608.113281 345.835938 610.820312 345.234375 612.714844 Z M 417.660156 589.789062 C 418.972656 590.878906 418.863281 594.066406 420.207031 595.324219 C 416.945312 594.875 409.1875 593.21875 410.367188 590.828125 C 412.140625 591.640625 415.09375 590.054688 417.660156 589.789062 Z M 439.25 583.925781 C 443.644531 590.597656 447.589844 598.25 452.742188 603.683594 C 449.621094 605.304688 446.34375 609.953125 438.6875 610.203125 C 438.332031 600.636719 433.648438 593.507812 429.945312 586.855469 C 433.0625 585.929688 437.160156 585.472656 439.25 583.925781 Z M 479.847656 592.296875 C 473.652344 595.707031 467.652344 599.246094 460.378906 601.859375 C 460.234375 592.421875 455.253906 585.539062 451.800781 579.175781 C 458.523438 577.207031 462.78125 573.734375 468.519531 571.308594 C 472.167969 578.511719 475.691406 585.914062 479.847656 592.296875 Z M 502.589844 575.101562 C 498.90625 579.488281 493.816406 583.164062 488.480469 586.542969 C 485.925781 577.332031 481.554688 571.527344 477.148438 565.5625 C 482.011719 563.175781 484.828125 559.519531 489.488281 557 C 492.855469 564.449219 498.644531 568.152344 502.589844 575.101562 Z M 353.660156 590.707031 C 353.671875 589.289062 351.957031 586.542969 353.210938 585.894531 C 354.933594 587.230469 354.839844 589.011719 353.660156 590.707031 Z M 523.789062 554.417969 C 518.1875 559.613281 513.582031 565.28125 507.523438 570.058594 C 504.121094 563.152344 501.089844 555.632812 496.675781 550.371094 C 500.570312 546.800781 503.253906 542.65625 507.761719 539.46875 C 512.121094 545.976562 517.996094 550.007812 523.789062 554.417969 Z M 542.78125 527.414062 C 538.355469 534.613281 535.128906 542.402344 528.484375 548.378906 C 524.335938 541.292969 518.757812 536.316406 513.726562 530.667969 C 518.875 525.761719 520.304688 518.574219 525.242188 513.53125 C 529.6875 520.363281 536.445312 523.664062 542.78125 527.414062 Z M 292.230469 638.375 C 297.625 645.511719 304.085938 652.734375 307.097656 661.664062 C 299.707031 656.417969 295.445312 648.128906 289.683594 640.90625 C 272.886719 619.832031 253.859375 598.9375 238.585938 578.378906 C 256.96875 597.320312 275.773438 617.21875 292.230469 638.375 Z M 296.046875 670.453125 C 298.175781 672.042969 293.441406 673.527344 295.816406 676.828125 C 297.734375 679 301.785156 679.078125 304.175781 680.96875 C 310.203125 685.671875 315.929688 697.109375 321.421875 706.148438 C 329.644531 719.269531 339.007812 730.539062 340.277344 748.316406 C 326.117188 739.765625 314.886719 725.785156 304.261719 712.175781 C 293.433594 698.445312 282.570312 683.847656 271.964844 668.835938 C 252.878906 641.109375 228.546875 604.640625 214.746094 569.679688 C 214.664062 569.355469 214.585938 569.023438 215.128906 569.066406 C 242.304688 602.757812 269.910156 635.285156 296.046875 670.453125 Z M 545.660156 521.109375 C 540.59375 514.601562 534.558594 509.90625 528.222656 505.453125 C 529.425781 500.953125 530.0625 496.238281 532.667969 492.453125 C 541.800781 497.644531 554.683594 508.957031 545.660156 521.109375 Z M 537.34375 429.050781 C 536.417969 426.636719 532.546875 424.40625 533.1875 421.972656 C 535.636719 421.914062 537.726562 427.019531 537.34375 429.050781 Z M 248.632812 495.609375 C 271.953125 525.652344 295.324219 551.476562 320.414062 579.34375 C 324.214844 583.527344 333.980469 592.066406 334.890625 595.886719 C 335.5625 598.710938 332.660156 604.140625 331.625 607.902344 C 327.796875 621.269531 324.492188 633.121094 317.554688 643.019531 C 293.101562 610.445312 262.066406 577.496094 232.847656 549.21875 C 228.707031 545.117188 221.300781 540.570312 219.847656 536.707031 C 217.914062 531.550781 218.964844 522 218.742188 515.910156 C 217.792969 495.082031 218.101562 473.601562 221.917969 456.546875 C 221.96875 456.003906 222.257812 455.757812 222.921875 455.609375 C 228.183594 471.015625 238.910156 482.84375 248.632812 495.609375 Z M 685.21875 406.855469 C 669.289062 398.207031 655.320312 383.816406 641.253906 371.222656 C 599.21875 333.363281 555.546875 289.40625 515.652344 252.445312 C 516.144531 252.320312 516.476562 252.242188 516.808594 252.171875 C 516.273438 251.417969 519.300781 251.570312 519.300781 251.570312 C 537.054688 255.398438 557.269531 270.214844 573.171875 281.683594 C 608.101562 306.671875 638.953125 332.984375 670.460938 360.546875 C 678.21875 367.292969 686.214844 374.335938 693.085938 382.515625 C 700.207031 390.988281 709.636719 399.617188 710.824219 411.964844 C 701.003906 413.433594 691.636719 410.234375 685.21875 406.855469 Z M 555.089844 437.96875 C 555.417969 437.890625 555.714844 437.644531 555.421875 437.179688 C 555.503906 416.988281 538.457031 400.703125 526.71875 386.84375 C 514.980469 372.976562 505.042969 357.804688 495.488281 345 C 484.871094 330.691406 474.917969 316.222656 464.792969 302.5 C 454.21875 288.359375 443.476562 274.960938 434.265625 260.667969 C 444.109375 261.476562 455.59375 259.601562 465.3125 260.625 C 486.414062 285.753906 509.382812 309.917969 531.605469 334.609375 C 548.34375 353.246094 564.195312 373.320312 581.117188 390.503906 C 586.523438 396.238281 592.117188 403.496094 600.296875 405.398438 C 597.675781 398.125 592.105469 392.445312 587.53125 386.515625 C 555.199219 343.011719 523.492188 298.46875 490.261719 257.808594 C 495.84375 258.402344 501.460938 259.167969 505.527344 262.230469 C 503.167969 262.621094 502.039062 263.765625 502.761719 266.050781 C 541.875 314.4375 584.441406 357.429688 627.46875 399.4375 C 611.769531 408.621094 594.667969 417.09375 577.605469 425.738281 C 570.621094 408.28125 557.058594 395.554688 545.472656 382.355469 C 522.203125 355.460938 500.046875 328.121094 477.140625 302.007812 C 465.640625 289.140625 454.777344 275.242188 441.117188 265.871094 C 462 292.992188 483.472656 321.90625 505.339844 349.496094 C 525.023438 374.609375 544.660156 405.363281 567.089844 425.796875 C 568.15625 426.589844 571.214844 426.917969 570.363281 429.226562 C 565.789062 432.070312 559.070312 436.3125 555.089844 437.96875 Z M 172.261719 102.734375 C 172.179688 102.40625 172.101562 102.074219 172.636719 102.109375 C 172.796875 102.777344 173.917969 102.34375 174.078125 103 C 203.207031 116.21875 232.078125 130.546875 260.820312 145.089844 C 288.78125 159.289062 318.539062 175.152344 340.738281 198.269531 C 357.53125 215.671875 371.339844 237.457031 387.242188 256.996094 C 434.574219 314.820312 480.636719 375.390625 524.496094 437.738281 C 517.296875 442.085938 522.144531 452.855469 522.558594 461.179688 C 522.917969 466.363281 522.449219 471.742188 521.992188 476.410156 C 515.074219 528.246094 465.488281 576.253906 392.605469 578.929688 C 383.746094 579.300781 369.785156 580.355469 362.777344 576.757812 C 358.378906 574.480469 353.808594 567.851562 348.859375 562.542969 C 334.398438 547.570312 321.414062 530.667969 308.699219 514.933594 C 273.472656 471.074219 238.152344 428.277344 204.078125 384.828125 C 186.828125 362.632812 167.148438 340.492188 157.855469 311.128906 C 165.175781 316.050781 169.261719 324.367188 174.664062 331.503906 C 185.308594 345.976562 196.550781 359.960938 208.332031 373.285156 C 213.617188 379.226562 219.566406 387.972656 228.582031 388.273438 C 229.414062 384.394531 229.554688 378.386719 227.976562 374.734375 C 225.710938 369.660156 217.460938 367.421875 213.984375 363.167969 C 208.910156 357.355469 204.816406 349.03125 200.050781 341.578125 C 185.546875 319.074219 174.207031 295.113281 160.636719 270.632812 C 142.0625 237 134.195312 196.757812 119.570312 158.320312 C 148.207031 146.738281 167.554688 129.304688 172.261719 102.734375 Z M 96.800781 74.09375 C 121.4375 78.039062 141.601562 89.003906 163.074219 98.085938 C 154.875 118.121094 136.976562 132.054688 114.589844 143.371094 C 109.320312 120.589844 98.550781 97.542969 96.800781 74.09375 Z M 364.015625 550.320312 C 363.71875 542.496094 357.25 535.976562 352.796875 529.835938 C 339.046875 510.492188 324.6875 494.445312 309.269531 475.496094 C 294.308594 456.960938 281.121094 439.9375 265.367188 421.769531 C 260.871094 416.878906 250.375 403.070312 244.796875 406.152344 C 238.585938 409.574219 250.890625 425.058594 253.132812 427.851562 C 281.664062 467.179688 314.429688 501.464844 346.3125 536.480469 C 351.015625 541.496094 355.230469 551.023438 364.015625 550.320312 Z M 594.226562 544.421875 C 593.929688 552.738281 602.417969 556.683594 607.164062 561.863281 C 612.730469 568.246094 619.511719 576.101562 622.808594 586.199219 C 627.546875 600.152344 626.441406 611.644531 629.496094 624.425781 C 633.460938 641.03125 639.960938 652.8125 649.179688 662.011719 C 656.671875 669.871094 668.402344 672.679688 675.679688 681.820312 C 681.230469 688.921875 684.53125 701.984375 686.007812 711.816406 C 667.476562 665.882812 618.855469 668.027344 590.425781 635.695312 C 586.75 631.308594 581.398438 623.636719 577.984375 617.433594 C 576.277344 613.984375 571.238281 597.996094 564.667969 600.621094 C 558.59375 603.125 565.703125 620.375 567.140625 629.328125 C 568.898438 639.613281 568.453125 646.566406 571.839844 656.289062 C 586.210938 698.824219 637.253906 701.710938 641.941406 749.191406 C 635.007812 735.582031 627.945312 726.574219 617.449219 720.132812 C 601.902344 710.15625 581.882812 708.628906 565.621094 700.761719 C 557.5 696.914062 548.527344 688.703125 542.886719 681.277344 C 537.089844 673.890625 536.367188 662.828125 528.628906 655.382812 C 521.277344 661.355469 523.484375 672.753906 525.082031 682.378906 C 532.105469 723.511719 584.902344 737.394531 575.59375 784.351562 C 562.921875 765.097656 559.113281 745.484375 542.265625 733.714844 C 528.367188 724.054688 509.535156 720.132812 499.003906 709.144531 C 494.589844 704.585938 485.246094 691.195312 481.367188 682.292969 C 478.132812 674.648438 477.921875 667.15625 471.207031 668.410156 C 461.492188 670.378906 468.621094 693.597656 471.34375 702.769531 C 475.824219 717.84375 481.699219 729.945312 489.929688 738.679688 C 501.964844 751.601562 516.320312 756.585938 522.832031 780.132812 C 508.785156 765.410156 485.652344 759.707031 468.117188 746.535156 C 455.425781 736.757812 441.320312 723.980469 434.164062 703.585938 C 426.882812 682.691406 426.796875 647.789062 404.648438 647.644531 C 402.492188 651.851562 407.230469 657.734375 408.511719 661.636719 C 414.355469 677.964844 407.761719 690.773438 414.636719 710.003906 C 418.058594 719.890625 425.703125 729.121094 432.28125 737.550781 C 438.78125 745.644531 447.191406 752.9375 454.007812 757.976562 C 470.691406 769.773438 491.644531 773.015625 506.394531 784.054688 C 508.734375 785.777344 514.796875 792.042969 517.679688 797.503906 C 521.777344 805.125 523.542969 811.023438 529.730469 809.003906 C 536.046875 806.796875 536.25 786.390625 535.441406 780.796875 C 531.300781 748.800781 507.207031 741.222656 494.351562 723.410156 C 507.871094 732.992188 535.101562 738.238281 545.296875 756.679688 C 547.128906 759.929688 547.570312 764.035156 549.121094 767.523438 C 553.203125 776.550781 560.621094 787.761719 565.859375 793.527344 C 569.632812 797.539062 582.847656 808.070312 588.59375 804.941406 C 593.542969 802.175781 588.566406 795.289062 587.507812 790.113281 C 586.011719 782.390625 589.375 772.988281 588.066406 763.832031 C 585.039062 740.164062 569.523438 727.375 557.269531 715.746094 C 575.785156 722.019531 598.65625 724.445312 615.953125 736.632812 C 622.320312 741.25 628.019531 750.421875 632.542969 761.972656 C 635.726562 770.152344 637.847656 781.230469 644.316406 780.386719 C 650.746094 779.378906 652.675781 768.390625 653.734375 761.8125 C 662.882812 702.425781 600.660156 690.277344 581.839844 648.976562 C 587.640625 652.683594 591.4375 658.269531 597.394531 661.925781 C 613.109375 671.863281 634.125 676.140625 649.5 686.84375 C 661.332031 695.253906 670.199219 707.347656 677.761719 724.3125 C 680.179688 730.054688 682.667969 737.53125 686.484375 737.320312 C 691.449219 736.828125 694.65625 723.777344 695.074219 718.953125 C 695.84375 712.617188 694.445312 703.824219 693.707031 699.972656 C 685.3125 658.285156 650.519531 660.28125 642 619.511719 C 651.128906 626.097656 659.386719 631.316406 673.136719 634.523438 C 677.804688 635.6875 695.046875 638.054688 695.539062 629.871094 C 696.089844 621.140625 682.207031 618.144531 678.066406 614.039062 C 663.613281 599.074219 659.539062 568.820312 641.582031 552.40625 C 629.234375 541.144531 616.148438 533.390625 600.433594 528.550781 C 595.890625 527.179688 587.847656 524.359375 585.378906 530.921875 C 589.035156 533.730469 591.726562 533.261719 594.949219 534.246094 C 614.417969 540.824219 634.234375 553.980469 644.832031 574.089844 C 651.734375 586.828125 655.796875 602.351562 666.226562 618.804688 C 666.339844 619.300781 666.839844 619.179688 667 619.851562 C 656.824219 615.445312 643.171875 606.070312 638.027344 591.855469 C 632.628906 577.351562 629.652344 568.589844 620.773438 559.308594 C 613.933594 551.992188 605.660156 543.089844 594.226562 544.421875 Z M 739.824219 561.898438 C 733.210938 561.378906 729.105469 566.222656 731.03125 572.082031 C 733.636719 580.753906 746.832031 577.25 746.578125 569.59375 C 746.585938 565.199219 744.835938 562.292969 739.824219 561.898438 Z M 767.378906 732.1875 C 756.269531 733.449219 762.386719 750.933594 772.453125 745.367188 C 778.039062 742.277344 775.957031 731.371094 767.378906 732.1875 Z M 436.472656 447.542969 C 430.472656 455.46875 424.101562 463.316406 414.273438 469.171875 C 424.023438 443.152344 426.652344 413.042969 429.847656 383.152344 C 435.074219 406.46875 433.308594 425.492188 436.472656 447.542969 Z M 442.566406 431.171875 C 443.59375 414.960938 442.539062 397.308594 440.039062 378.785156 C 449.976562 394.660156 446.742188 419.296875 442.566406 431.171875 Z M 399.558594 475.148438 C 391.996094 477.304688 385.199219 478.226562 379.035156 478.117188 C 394.472656 446.53125 401.882812 410.015625 397.824219 366.589844 C 397.828125 365.890625 398.242188 365.441406 398.667969 364.984375 C 408.078125 407.308594 395.90625 436.363281 399.558594 475.148438 Z M 350.84375 402.042969 C 347.816406 423.117188 345.667969 442.761719 341.6875 462.839844 C 338.328125 459.777344 335.214844 456.308594 332.015625 453.210938 C 341.121094 425.949219 346.347656 396.445312 351.90625 366.867188 C 351.789062 366.367188 352.753906 365.960938 353.078125 366.582031 C 355.496094 380.394531 352.492188 391.285156 350.84375 402.042969 Z M 424.058594 358.917969 C 416.140625 372.035156 418.515625 391.480469 414.289062 406.875 C 415.382812 389.417969 412.269531 366.824219 405.792969 347.839844 C 412.183594 351.050781 418.566406 354.265625 424.058594 358.917969 Z M 337.359375 369.117188 C 335.578125 369.007812 333.847656 368.371094 332.15625 367.902344 C 334.824219 365.851562 336.742188 360.664062 339.691406 360.480469 C 338.539062 363.042969 338.257812 366.273438 337.359375 369.117188 Z M 376.042969 343.023438 C 376.710938 342.867188 376.71875 342.15625 377.746094 342.089844 C 382.550781 342.34375 387.601562 342.183594 392.183594 343.023438 C 382.636719 357.414062 384.613281 378.875 378.5625 395.410156 C 378.816406 378.851562 379.632812 360.234375 376.042969 343.023438 Z M 360.699219 349.320312 C 360.347656 347.832031 360.027344 346.5 359.710938 345.167969 C 360.707031 344.929688 361.707031 344.691406 362.699219 344.449219 C 362.640625 346.40625 362.371094 348.222656 360.699219 349.320312 Z M 395.339844 329.808594 C 384 330.0625 372.890625 327.628906 359.941406 330.726562 C 346.832031 333.863281 335.375 340.984375 327.125 349.800781 C 308.257812 369.933594 291.726562 399.152344 301.816406 436.21875 C 306.832031 455.019531 328.636719 476.480469 341.960938 484.53125 C 380.34375 507.8125 433.0625 485.390625 449.90625 453.804688 C 457.25 439.765625 458.589844 426.996094 457.78125 408.9375 C 457.539062 403.554688 455.949219 397.617188 456.015625 391.285156 C 456.136719 387.390625 458.742188 388.007812 457.84375 382.78125 C 457.136719 379.082031 452.207031 376.058594 449.050781 372.425781 C 439.851562 361.105469 433.46875 350.523438 422.734375 343.089844 C 414.355469 337.378906 404.199219 334.535156 395.339844 329.808594 Z M 297.429688 311.453125 C 292.515625 314.386719 289.046875 318.199219 282.773438 320.574219 C 292.058594 294.84375 297.480469 266.871094 301.046875 237.765625 C 306.257812 266.183594 300.816406 288.183594 297.429688 311.453125 Z M 305.070312 301.558594 C 310.796875 280.011719 312.445312 256.101562 308.140625 228.53125 C 326.226562 252.808594 321.277344 287.148438 305.070312 301.558594 Z M 231.441406 316.527344 C 227.902344 314.210938 225.5 310.050781 222.308594 306.953125 C 229.851562 286.375 232.414062 262.601562 236.820312 239.960938 C 238.363281 267.667969 233.890625 291.542969 231.441406 316.527344 Z M 268.050781 326.550781 C 261.660156 328.433594 255.558594 329.359375 250.171875 329.59375 C 263.476562 300.089844 268.761719 265.667969 273.183594 230.566406 C 278.972656 267.261719 271.105469 295.285156 268.050781 326.550781 Z M 186.640625 277.402344 C 184.078125 260.8125 187.957031 245.496094 195.5 236.675781 C 190.78125 249.210938 189.964844 264.148438 186.640625 277.402344 Z M 287.503906 246.445312 C 286.390625 238.113281 284.457031 220.503906 282.148438 207.890625 C 286.398438 209.511719 290.601562 210.957031 293.585938 214.636719 C 289.683594 223.992188 289.726562 235.90625 287.503906 246.445312 Z M 221.730469 226.722656 C 221.179688 220.011719 218.140625 216.878906 214.984375 213.949219 C 219.066406 211.921875 222.859375 209.4375 227.101562 207.363281 C 225.710938 214.019531 223.488281 220.15625 221.730469 226.722656 Z M 251.257812 269.496094 C 251.714844 252.367188 252.324219 226.25 246.402344 202.230469 C 252.53125 201.460938 258.207031 201.6875 263.289062 202.394531 C 256.925781 221.292969 255.90625 247.855469 251.257812 269.496094 Z M 235.964844 343.515625 C 293.695312 348.664062 332.625 310.410156 331.691406 264.664062 C 331.675781 261.671875 330.808594 258.027344 330.757812 254.882812 C 328.820312 226.214844 306.9375 204.421875 286.585938 195.601562 C 274.875 190.679688 258.519531 187.574219 242.261719 190.050781 C 197.238281 196.960938 173.808594 228.878906 171.144531 262.503906 C 167.613281 307.921875 202.890625 335.105469 235.964844 343.515625 Z M 533.515625 290.464844 C 532.414062 288.792969 532.660156 288.378906 534.058594 289.804688 C 569.539062 321.507812 605.691406 359.714844 643.570312 391.199219 C 655.636719 401.296875 670.292969 412.703125 683.601562 418.472656 C 697.867188 424.542969 732.839844 429.160156 721.855469 398.625 C 718.367188 388.40625 708.769531 379.113281 700.945312 370.636719 C 692.96875 362.191406 684.683594 354.691406 676.835938 348.332031 C 660.050781 334.613281 643.558594 320.660156 626.5625 306.828125 C 600.90625 286.109375 576.015625 267.136719 546.738281 251.851562 C 538.710938 247.632812 523.722656 239.980469 515.058594 241.886719 C 510.070312 243.074219 508.609375 248.6875 504.417969 249.515625 C 500.027344 250.214844 491.492188 246.8125 485.5 245.96875 C 478.761719 244.941406 471.953125 242.882812 466.574219 242.414062 C 456.816406 241.234375 446.039062 242.414062 435.828125 241.515625 C 425.652344 240.792969 417.277344 238.054688 408.441406 236.3125 C 386.023438 213.765625 368.15625 188.914062 345.015625 169.175781 C 311.902344 140.765625 269.007812 122.074219 228.460938 103.6875 C 201.472656 91.363281 175.488281 78.097656 146.253906 67.363281 C 126.785156 60.082031 110.820312 51.96875 88.121094 53.183594 C 74.789062 40.75 61.921875 25.058594 48.691406 10.84375 C 44.925781 6.832031 40.816406 -0.078125 34.476562 0.558594 C 37.761719 11.355469 45.527344 20.375 51.898438 29.378906 C 58.300781 38.550781 64.375 47.8125 71.75 55.167969 C 69.992188 61.023438 72.378906 73.972656 77.265625 78.25 C 83.417969 112.039062 89.222656 146.621094 97.3125 180.488281 C 105.527344 214.84375 112.503906 249.152344 122.339844 282.242188 C 126.910156 297.644531 135.007812 310.273438 141.703125 324.292969 C 161.105469 364.398438 186.496094 399.390625 211.691406 429.160156 C 207.535156 462.441406 201.328125 494.453125 204.582031 532.285156 C 190.359375 538.140625 191.070312 557.976562 197.484375 578.199219 C 203.84375 598.964844 216.871094 616.734375 228.28125 634.355469 C 250.035156 668.113281 272.582031 701.507812 298.339844 732.1875 C 308.855469 744.59375 329.707031 768.738281 345.125 763.476562 C 355.640625 759.734375 354.503906 745.441406 352.160156 735.648438 C 347.238281 715.058594 332.605469 701.542969 324.34375 686.84375 C 336.789062 656.671875 350.835938 627.34375 361.011719 595.789062 C 368.269531 594.578125 371.570312 599.578125 379.039062 597.792969 C 383.273438 608.894531 386.410156 625.6875 395.695312 628.550781 C 401.960938 630.5625 415.980469 628.269531 423.523438 627.515625 C 433.503906 626.707031 444.578125 624.585938 453.726562 620.996094 C 473.136719 613.375 493.648438 603.03125 508.898438 589.027344 C 531.84375 568.285156 553.773438 549.183594 559.707031 519.683594 C 564.273438 514.558594 566.742188 508 563.753906 500.648438 C 559.203125 488.921875 540.933594 485.925781 534.21875 478.398438 C 534.261719 474.179688 534.339844 470.125 534.382812 465.898438 C 536.113281 463.5625 539.71875 462.519531 540.253906 459.582031 C 560.238281 452.175781 574.75 442.390625 594.917969 432.832031 C 603.574219 428.652344 612.230469 423.785156 622.097656 418.789062 C 628.214844 415.75 642.992188 407.824219 642.6875 400.703125 C 642.535156 395.65625 633.851562 390.1875 629.300781 386.539062 C 613.949219 373.707031 601.363281 362.152344 588.261719 347.738281 C 569.191406 326.683594 551.949219 308.863281 533.515625 290.464844 " fill-opacity="1" fill-rule="evenodd"/></g></svg>