<svg xmlns="http://www.w3.org/2000/svg" xmlns:xlink="http://www.w3.org/1999/xlink" width="1080" zoomAndPan="magnify" viewBox="0 0 810 809.999993" height="1080" preserveAspectRatio="xMidYMid meet" version="1.0"><path fill="#f4f1ec" d="M 346.507812 153.851562 C 346.359375 153.75 346.207031 153.65625 346.058594 153.558594 C 343.453125 151.839844 344.332031 147.453125 347.703125 147.488281 C 358.585938 147.601562 369.589844 147.292969 380.441406 148.152344 C 383.101562 148.363281 385.765625 148.53125 388.425781 148.679688 C 397.730469 148.941406 407.03125 149.113281 416.332031 149.570312 C 422.226562 149.859375 428.113281 150.261719 434 150.625 C 436.253906 150.765625 437.285156 152.738281 437.101562 154.476562 C 437.148438 156.140625 436.117188 157.742188 433.988281 157.558594 C 423.144531 156.628906 412.390625 156.066406 401.507812 155.773438 C 396.71875 155.644531 391.945312 155.386719 387.175781 155.121094 C 380.265625 154.90625 373.355469 154.636719 366.449219 154.277344 C 365.175781 154.210938 363.902344 154.183594 362.632812 154.167969 C 362.1875 154.160156 361.742188 154.15625 361.300781 154.152344 C 360.550781 154.152344 359.804688 154.164062 359.058594 154.171875 C 361.636719 155.773438 364.238281 157.339844 366.90625 158.839844 C 369.535156 160.320312 372.085938 161.671875 374.832031 162.90625 C 377.816406 164.246094 381.015625 165.386719 383.835938 167.050781 C 387.3125 169.097656 390.652344 171.402344 394.167969 173.386719 C 397.121094 175.050781 400.3125 176.378906 403.367188 177.855469 C 404.105469 178.210938 404.851562 178.554688 405.582031 178.925781 C 405.648438 178.957031 405.671875 178.972656 405.71875 178.996094 C 407.570312 179.609375 409.386719 180.386719 411.210938 181.074219 C 414.035156 182.144531 416.835938 183.242188 419.714844 184.160156 C 423.425781 185.34375 427.625 186.160156 431.09375 187.957031 C 434.773438 189.867188 438.355469 192.003906 441.976562 194.023438 C 443.324219 194.773438 443.730469 196.285156 443.476562 197.699219 C 442.777344 201.582031 442.074219 205.460938 441.375 209.339844 C 441.042969 211.179688 440.519531 212.984375 439.953125 214.773438 C 440.347656 215.117188 440.734375 215.460938 441.128906 215.800781 C 441.984375 216.535156 442.269531 217.921875 441.96875 218.96875 C 440.472656 224.167969 439.078125 229.367188 437.234375 234.453125 C 436.257812 237.136719 435.089844 239.824219 434.296875 242.570312 C 433.347656 245.859375 432.75 249.289062 431.984375 252.625 C 430.867188 257.492188 428.769531 262.128906 427.058594 266.816406 C 425.046875 272.320312 422.992188 277.585938 421.835938 283.324219 C 421.125 286.859375 420.496094 290.398438 419.898438 293.941406 C 422.964844 291.402344 426.015625 288.851562 429.050781 286.277344 C 432.847656 282.703125 436.648438 279.128906 440.46875 275.578125 C 444.417969 271.90625 447.539062 267.488281 451.210938 263.550781 C 455.441406 259.019531 459.898438 254.804688 463.921875 250.085938 C 467.785156 245.554688 471.816406 241.277344 475.941406 237.011719 C 476.636719 236.128906 477.328125 235.246094 478.027344 234.355469 C 479.046875 233.054688 481.605469 233.121094 482.632812 234.355469 C 487.179688 239.824219 491.734375 245.257812 496.449219 250.585938 C 498.617188 253.039062 500.585938 255.394531 502.417969 258.105469 C 504.253906 260.824219 506.019531 263.628906 507.96875 266.273438 C 512.988281 271.816406 517.707031 277.582031 522.394531 283.410156 C 526.277344 288.242188 529.621094 293.460938 533.355469 298.402344 C 534.976562 300.542969 536.59375 302.683594 538.210938 304.824219 C 538.800781 305.605469 539.394531 306.382812 539.976562 307.164062 C 540.019531 307.203125 540.058594 307.238281 540.132812 307.316406 C 540.277344 307.460938 540.410156 307.625 540.554688 307.773438 C 539.914062 304.867188 539.292969 301.957031 538.738281 299.023438 C 538.144531 295.902344 537.578125 292.90625 536.648438 289.875 C 535.582031 286.390625 534.4375 282.917969 533.457031 279.402344 C 529.652344 265.75 526.78125 251.878906 522.339844 238.40625 C 519.660156 230.285156 516.828125 222.289062 513.828125 214.28125 C 513.339844 212.988281 514.140625 211.238281 515.324219 210.601562 C 520.679688 207.722656 526.019531 204.824219 531.433594 202.066406 C 534.300781 200.605469 537.136719 198.9375 540.121094 197.726562 C 543.679688 196.28125 547.265625 194.902344 550.839844 193.492188 C 551.316406 193.300781 551.792969 193.105469 552.277344 192.921875 C 552.316406 192.898438 552.339844 192.882812 552.402344 192.851562 C 554.007812 191.980469 555.683594 191.21875 557.316406 190.40625 C 559.871094 189.132812 562.394531 187.777344 565.003906 186.621094 C 571.121094 183.910156 577.238281 181.246094 583.289062 178.390625 C 586.175781 177.027344 588.996094 175.597656 592.015625 174.550781 C 592.183594 174.492188 592.351562 174.433594 592.523438 174.375 C 592.492188 174.371094 592.464844 174.363281 592.4375 174.355469 C 591.863281 174.230469 591.085938 174.191406 590.554688 173.933594 C 590.546875 173.929688 590.546875 173.929688 590.539062 173.925781 C 590.5 173.917969 590.457031 173.914062 590.417969 173.910156 C 588.253906 173.648438 586.089844 173.378906 583.921875 173.109375 C 577.667969 172.339844 571.359375 171.4375 565.066406 171.078125 C 557.605469 170.652344 550.15625 170.386719 542.699219 169.863281 C 539.574219 169.644531 536.507812 169.210938 533.402344 168.777344 C 531.277344 168.480469 529.15625 168.183594 527.035156 167.886719 C 526.964844 167.875 526.902344 167.871094 526.839844 167.867188 C 526.851562 167.867188 526.855469 167.863281 526.867188 167.863281 C 526.855469 167.867188 526.839844 167.863281 526.828125 167.867188 C 526.539062 167.84375 526.339844 167.859375 526.261719 167.878906 C 525.753906 167.855469 525.214844 167.75 524.761719 167.714844 C 516.742188 167.15625 508.847656 166.929688 500.804688 166.871094 C 499.476562 166.859375 497.921875 165.875 497.664062 164.476562 C 496.226562 156.765625 494.898438 149.167969 494.003906 141.378906 C 493.234375 134.683594 492.210938 127.789062 492.332031 121.058594 C 492.378906 118.558594 492.425781 116.0625 492.46875 113.5625 C 492.492188 112.476562 492.511719 111.386719 492.53125 110.300781 C 492.535156 109.945312 492.515625 109.574219 492.550781 109.21875 C 491.972656 107.742188 491.757812 105.941406 491.378906 104.4375 C 490.78125 102.066406 490.183594 99.691406 489.585938 97.320312 C 488.675781 93.707031 488.851562 89.742188 488.628906 86.039062 C 488.570312 85.003906 488.507812 83.972656 488.445312 82.941406 C 488.433594 82.722656 488.417969 82.496094 488.40625 82.273438 C 487.769531 80.859375 487.6875 78.804688 487.371094 77.328125 C 486.546875 73.476562 485.917969 69.535156 484.753906 65.773438 C 484.367188 64.523438 483.980469 63.277344 483.597656 62.027344 C 482.488281 65.621094 481.398438 69.21875 480.355469 72.832031 C 479.460938 75.9375 478.546875 78.742188 477.191406 81.664062 C 476.152344 83.898438 475.117188 86.136719 474.078125 88.371094 C 473.75 89.074219 473.441406 89.785156 473.101562 90.476562 C 473.085938 90.542969 473.074219 90.601562 473.042969 90.710938 C 472.78125 91.695312 472.476562 92.664062 472.191406 93.636719 C 471.519531 96.726562 470.683594 99.851562 469.792969 102.816406 C 468.796875 106.128906 467.171875 109.34375 465.863281 112.546875 C 464.394531 116.128906 462.996094 119.777344 461.722656 123.457031 C 461.355469 124.589844 460.980469 125.714844 460.601562 126.839844 C 460.273438 127.882812 459.941406 128.925781 459.640625 129.972656 C 458.554688 133.769531 457.722656 137.761719 456.300781 141.445312 C 455.359375 143.882812 454.328125 146.292969 453.289062 148.695312 C 452.777344 150.308594 452.25 151.910156 451.75 153.53125 C 451.179688 155.390625 449.511719 156.003906 448.019531 155.734375 C 447.777344 155.726562 447.53125 155.695312 447.277344 155.628906 C 445.746094 155.222656 444.320312 153.242188 445 151.621094 C 445.660156 150.0625 446.316406 148.5 446.972656 146.941406 C 448.601562 141.734375 450.277344 136.5625 452.117188 131.414062 C 454.28125 125.363281 456.015625 119.140625 458.289062 113.136719 C 459.765625 109.246094 461.445312 105.425781 462.871094 101.515625 C 463.867188 98.773438 464.660156 95.9375 465.496094 93.132812 C 465.621094 92.574219 465.746094 92.011719 465.878906 91.460938 C 466.648438 88.34375 467.8125 85.601562 469.070312 82.644531 C 469.992188 80.488281 470.910156 78.332031 471.828125 76.175781 C 471.863281 76.09375 471.898438 76.007812 471.933594 75.925781 C 471.933594 75.921875 471.929688 75.929688 471.929688 75.921875 C 471.984375 75.34375 472.285156 74.703125 472.449219 74.148438 C 473.558594 70.339844 474.472656 66.40625 475.839844 62.679688 C 477.011719 59.484375 478.292969 56.324219 479.5625 53.164062 C 479.828125 52.316406 480.082031 51.46875 480.351562 50.621094 C 480.871094 48.980469 482.1875 48.257812 483.503906 48.316406 C 484.898438 48.148438 486.332031 48.828125 486.875 50.578125 C 487.214844 51.675781 487.550781 52.769531 487.890625 53.859375 C 488.882812 56.414062 489.875 58.96875 490.867188 61.523438 C 491.96875 64.359375 492.25 67.484375 492.800781 70.46875 C 493.378906 73.585938 493.960938 76.265625 495.058594 79.21875 C 496.203125 82.308594 497.433594 85.378906 498.472656 88.503906 C 499.761719 92.363281 501.132812 96.253906 502.222656 100.175781 C 503.140625 103.476562 503.652344 106.9375 504.34375 110.292969 C 505.558594 116.179688 506.914062 122.054688 508.441406 127.871094 C 509.417969 131.578125 510.171875 135.4375 511.4375 139.058594 C 512.601562 142.394531 513.910156 145.6875 515.1875 148.984375 C 520.324219 150.324219 525.429688 151.714844 530.660156 152.628906 C 537.347656 153.800781 543.90625 155.160156 550.523438 156.667969 C 555.765625 157.863281 561.082031 158.730469 566.367188 159.730469 C 570.078125 160.433594 573.785156 161.140625 577.496094 161.847656 C 579.996094 162.324219 582.273438 163.335938 584.652344 164.242188 C 589.886719 166.230469 595.140625 167.886719 600.472656 169.476562 C 602.066406 169.839844 603.664062 170.207031 605.261719 170.566406 C 608.601562 171.316406 608.105469 175.863281 605.261719 176.847656 C 604.949219 176.957031 604.636719 177.066406 604.324219 177.171875 C 595.503906 181.484375 586.699219 185.941406 577.570312 189.558594 C 574.605469 190.734375 571.652344 191.960938 568.667969 193.085938 C 568.320312 193.355469 567.800781 193.527344 567.414062 193.726562 C 565.902344 194.5 564.394531 195.273438 562.882812 196.046875 C 557.910156 198.597656 553.101562 201.316406 548.261719 204.117188 C 544.085938 206.535156 539.683594 208.507812 535.300781 210.53125 C 535.726562 213.648438 536.152344 216.765625 536.574219 219.882812 C 537.035156 223.25 538.023438 226.554688 538.808594 229.855469 C 540.339844 236.285156 541.414062 242.792969 542.433594 249.324219 C 543.710938 257.484375 544.816406 265.597656 545.707031 273.804688 C 546.398438 280.210938 546.734375 286.65625 547.519531 293.050781 C 548.023438 297.179688 548.738281 301.335938 549.011719 305.488281 C 549.269531 309.460938 549.351562 313.453125 549.488281 317.433594 C 549.578125 317.808594 549.65625 318.179688 549.746094 318.550781 C 550.347656 321.050781 547.390625 324.03125 544.960938 322.230469 C 541.847656 319.921875 538.730469 317.613281 535.617188 315.300781 C 534.511719 314.484375 533.433594 313.765625 532.609375 312.648438 C 531.40625 311.019531 530.242188 309.359375 529.058594 307.71875 C 525.121094 302.253906 520.726562 296.988281 517.054688 291.359375 C 514.835938 287.960938 512.921875 284.328125 510.867188 280.828125 C 509.183594 277.960938 506.832031 275.40625 504.804688 272.777344 C 504.128906 271.90625 503.492188 271.023438 502.847656 270.144531 C 501.589844 268.574219 500.371094 266.980469 499.171875 265.328125 C 497.800781 263.441406 496.429688 261.554688 495.058594 259.667969 C 494.820312 259.339844 493.730469 257.957031 494.847656 259.339844 C 494.507812 258.917969 494.171875 258.488281 493.835938 258.0625 C 489.449219 252.53125 484.957031 247.230469 480.296875 241.976562 C 477.585938 245.480469 474.875 248.972656 471.859375 252.214844 C 467.273438 257.148438 462.609375 261.835938 457.742188 266.492188 C 453.828125 270.234375 451.042969 274.941406 447.300781 278.824219 C 443.035156 283.253906 438.222656 287.28125 433.460938 291.167969 C 433.074219 291.484375 432.691406 291.808594 432.304688 292.125 C 427.46875 296.660156 422.398438 300.789062 417.246094 304.976562 C 415.367188 306.503906 411.292969 305.792969 411.6875 302.671875 C 412.195312 298.648438 412.703125 294.621094 413.210938 290.597656 C 413.628906 287.304688 414.507812 284.152344 415.3125 280.929688 C 416.945312 274.390625 417.949219 267.644531 419.738281 261.160156 C 420.871094 257.039062 422.402344 253.03125 423.59375 248.925781 C 424.558594 245.605469 425.121094 242.125 425.855469 238.746094 C 427.210938 232.527344 429.476562 226.574219 431.34375 220.496094 C 431.699219 219.335938 432.082031 218.167969 432.472656 217.003906 C 430.769531 215.582031 429.082031 214.144531 427.480469 212.632812 C 427.460938 212.621094 427.457031 212.621094 427.441406 212.605469 C 426.578125 212.03125 425.742188 211.414062 424.894531 210.816406 C 422.816406 209.355469 420.742188 207.894531 418.664062 206.433594 C 412.886719 202.371094 407.414062 197.820312 401.875 193.4375 C 400.40625 192.273438 398.902344 191.136719 397.453125 189.941406 C 397.449219 189.941406 397.453125 189.941406 397.449219 189.941406 C 397.207031 189.847656 396.957031 189.632812 396.738281 189.492188 C 395.804688 188.90625 394.875 188.316406 393.945312 187.730469 C 390.800781 185.75 387.597656 183.894531 384.714844 181.550781 C 381.839844 179.210938 378.992188 176.835938 376.082031 174.539062 C 373.046875 172.144531 370.039062 169.519531 366.839844 167.332031 C 366.980469 167.472656 365.734375 166.757812 365.398438 166.566406 C 364.214844 165.890625 363.035156 165.210938 361.851562 164.535156 C 359.917969 163.425781 357.871094 162.414062 356.007812 161.1875 C 352.765625 159.050781 349.777344 156.410156 346.695312 154.039062 C 346.621094 153.984375 346.578125 153.910156 346.507812 153.851562 Z M 492.550781 109.203125 C 492.550781 109.199219 492.550781 109.191406 492.550781 109.1875 C 492.605469 108.636719 492.398438 108.675781 492.550781 109.203125 Z M 526.113281 158.417969 C 523.222656 157.914062 520.386719 157.042969 517.546875 156.3125 C 515.773438 155.859375 513.957031 155.484375 512.207031 154.941406 C 510.402344 154.382812 509.8125 153.074219 509.207031 151.472656 C 507.824219 147.828125 506.273438 144.203125 505.042969 140.503906 C 504 137.359375 503.328125 134.050781 502.488281 130.851562 C 501.203125 125.972656 500.007812 121.054688 498.945312 116.117188 C 498.9375 116.328125 498.929688 116.535156 498.925781 116.746094 C 498.800781 123.613281 499.261719 130.453125 500.046875 137.28125 C 500.367188 140.058594 500.683594 142.835938 501.003906 145.613281 C 501.132812 146.738281 501.265625 147.863281 501.394531 148.988281 C 501.402344 149.089844 501.40625 149.132812 501.414062 149.203125 C 501.425781 149.25 501.433594 149.273438 501.449219 149.351562 C 502.238281 153.003906 502.863281 156.699219 503.519531 160.382812 C 509.582031 160.441406 515.589844 160.5625 521.648438 160.984375 C 524.773438 161.203125 527.835938 161.476562 530.9375 161.90625 C 533.320312 162.242188 535.703125 162.574219 538.085938 162.90625 C 538.738281 163 539.390625 163.085938 540.042969 163.179688 C 540.125 163.179688 540.246094 163.183594 540.472656 163.195312 C 545.023438 163.421875 549.582031 163.667969 554.136719 163.941406 C 544.804688 162.042969 535.5 160.0625 526.113281 158.417969 Z M 538.109375 263.824219 C 538.109375 263.796875 538.109375 263.792969 538.105469 263.769531 C 537.960938 262.90625 537.839844 262.039062 537.707031 261.171875 C 537.3125 258.605469 536.917969 256.039062 536.523438 253.476562 C 535.558594 247.203125 534.734375 240.84375 533.261719 234.675781 C 532.304688 230.664062 531.078125 226.628906 530.421875 222.5625 C 529.789062 218.65625 529.328125 214.714844 528.8125 210.792969 C 526.203125 212.167969 523.605469 213.554688 521.007812 214.949219 C 525.566406 227.132812 530.113281 239.480469 533.230469 252.109375 C 535.140625 259.847656 537.066406 267.566406 539.105469 275.273438 C 539.230469 275.75 539.371094 276.226562 539.503906 276.703125 C 539.0625 272.410156 538.511719 268.125 538.109375 263.824219 Z M 403.273438 186.296875 C 406.164062 188.582031 409.035156 190.886719 411.941406 193.144531 C 413.808594 194.59375 415.675781 196.035156 417.542969 197.480469 C 418.433594 198.167969 419.328125 198.859375 420.222656 199.550781 C 420.519531 199.785156 420.820312 200.015625 421.117188 200.246094 C 421.671875 200.675781 421.34375 200.257812 420.839844 200.03125 C 422.773438 200.90625 424.621094 202.6875 426.351562 203.90625 C 428.0625 205.109375 429.828125 206.253906 431.480469 207.535156 C 432.527344 208.347656 433.546875 209.199219 434.558594 210.0625 C 434.671875 209.613281 434.800781 209.167969 434.894531 208.722656 C 435.605469 205.359375 436.164062 201.957031 436.746094 198.5625 C 434.085938 197.082031 431.429688 195.601562 428.769531 194.121094 C 428.539062 193.992188 428.28125 193.867188 428.027344 193.734375 C 428.269531 193.820312 428.242188 193.671875 427.917969 193.613281 C 427.859375 193.601562 427.800781 193.578125 427.742188 193.5625 C 427.648438 193.503906 427.542969 193.457031 427.460938 193.390625 C 427.5625 193.472656 427.621094 193.5 427.703125 193.550781 C 427.402344 193.46875 427.101562 193.351562 426.8125 193.261719 C 424.707031 192.589844 422.605469 191.917969 420.5 191.246094 C 414.414062 189.304688 408.175781 187.296875 402.386719 184.59375 C 400.800781 183.855469 399.210938 183.109375 397.621094 182.359375 C 399.558594 183.59375 401.460938 184.859375 403.273438 186.296875 Z M 403.273438 186.296875 " fill-opacity="1" fill-rule="nonzero"/><path fill="#f4f1ec" d="M 3.214844 454.300781 C 7.476562 453.378906 11.800781 452.605469 16.023438 451.523438 C 18.492188 450.894531 20.917969 449.921875 23.320312 448.9375 C 23.6875 448.261719 24.296875 447.691406 25.230469 447.414062 C 30.90625 445.722656 36.542969 443.867188 42.316406 442.527344 C 49.34375 440.898438 56.191406 439.089844 63.113281 437.050781 C 68.597656 435.433594 74.363281 435.246094 79.875 433.820312 C 83.699219 432.832031 87.460938 431.433594 91.226562 430.246094 C 93.707031 429.46875 96.214844 429.445312 98.792969 429.324219 C 105.867188 427.683594 113.03125 426.296875 120.097656 424.6875 C 122.4375 424.15625 124 425.988281 124.144531 427.828125 C 124.734375 429.457031 124.21875 431.464844 122.054688 431.988281 C 115.984375 433.453125 110.074219 435.226562 103.828125 435.566406 C 102.625 435.632812 101.425781 435.699219 100.222656 435.765625 C 99.347656 435.957031 98.476562 436.160156 97.601562 436.347656 C 90.308594 437.921875 83.164062 440.445312 75.957031 442.410156 C 68.859375 444.351562 61.660156 445.796875 54.515625 447.546875 C 50.71875 448.476562 46.933594 449.484375 43.117188 450.316406 C 41.429688 450.683594 39.714844 451 38.003906 451.328125 C 38.597656 451.542969 39.199219 451.753906 39.792969 451.96875 C 43.683594 453.390625 47.445312 455.226562 51.238281 456.882812 C 51.914062 457.175781 52.59375 457.464844 53.269531 457.765625 C 53.519531 457.796875 53.785156 457.941406 54.027344 458.015625 C 56.574219 458.789062 59.09375 459.675781 61.625 460.503906 C 65.195312 461.675781 68.675781 462.953125 72.1875 464.296875 C 75.699219 465.640625 79.203125 466.988281 82.683594 468.417969 C 86.3125 469.90625 89.886719 471.703125 93.71875 472.582031 C 97.601562 473.472656 101.816406 474.011719 105.558594 475.378906 C 109.703125 476.898438 113.652344 478.957031 117.800781 480.46875 C 122.082031 482.03125 126.566406 483.027344 130.847656 484.589844 C 133.753906 485.652344 136.617188 486.878906 139.476562 488.097656 C 140.90625 488.554688 142.332031 489.007812 143.746094 489.417969 C 145.175781 489.828125 146.078125 491.105469 146.136719 492.558594 C 146.25 495.195312 146.363281 497.828125 146.476562 500.464844 C 146.574219 502.757812 146.945312 505.210938 146.609375 507.492188 C 146.179688 510.378906 145.671875 513.253906 145.207031 516.136719 C 144.988281 517.476562 144.773438 518.820312 144.554688 520.164062 C 144.5 520.503906 144.46875 520.863281 144.386719 521.199219 C 144.441406 520.972656 144.46875 520.8125 144.488281 520.695312 C 144.484375 520.789062 144.476562 520.898438 144.484375 521.058594 C 144.851562 530.964844 143.828125 540.863281 143.488281 550.75 C 143.3125 555.886719 143.199219 561.007812 142.769531 566.128906 C 142.339844 571.242188 141.925781 576.226562 141.945312 581.351562 C 141.980469 591.652344 141.3125 601.898438 140.886719 612.191406 C 140.839844 613.347656 140.746094 614.496094 140.679688 615.648438 C 145.773438 608.167969 151.066406 600.851562 156.453125 593.566406 C 162.386719 585.542969 167.671875 577.074219 173.230469 568.796875 C 175.890625 564.835938 179.199219 561.019531 181.292969 556.726562 C 183.648438 551.890625 185.832031 547.039062 188.714844 542.5 C 190.351562 539.917969 192.203125 537.382812 193.667969 534.695312 C 194.847656 532.53125 195.679688 530.097656 196.660156 527.835938 C 198.851562 522.773438 201.1875 517.796875 203.539062 512.804688 C 203.671875 512.527344 203.804688 512.246094 203.9375 511.964844 C 204.195312 511.390625 204.460938 510.8125 204.710938 510.238281 C 205.410156 508.632812 207.800781 508.25 209.167969 509.070312 C 217.859375 514.273438 227.078125 519.050781 235.214844 525.085938 C 239.820312 528.5 244.304688 531.929688 248.707031 535.601562 C 250.007812 536.6875 251.304688 537.769531 252.605469 538.851562 C 252.824219 539.035156 253.050781 539.222656 253.273438 539.410156 C 253.3125 539.433594 253.335938 539.445312 253.390625 539.480469 C 256.199219 541.167969 258.890625 543.105469 261.628906 544.914062 C 266.136719 547.886719 270.160156 551.539062 274.273438 555.039062 C 274.320312 555.078125 274.421875 555.164062 274.527344 555.257812 C 274.699219 555.390625 274.996094 555.632812 275.089844 555.703125 C 276.371094 556.65625 277.644531 557.617188 278.917969 558.574219 C 281.167969 560.261719 283.441406 561.917969 285.65625 563.648438 C 287.945312 565.425781 290.210938 567.234375 292.484375 569.027344 C 293.574219 569.886719 294.675781 570.734375 295.757812 571.605469 C 296.097656 571.855469 296.429688 572.113281 296.765625 572.367188 C 301.082031 575.632812 305.390625 578.902344 309.75 582.113281 C 311.414062 583.339844 313.046875 584.644531 314.730469 585.867188 C 314.65625 585.710938 314.582031 585.550781 314.507812 585.394531 C 312.371094 580.914062 309.929688 576.488281 308.269531 571.800781 C 307.164062 568.667969 306.054688 565.535156 304.949219 562.402344 C 304.796875 561.972656 304.210938 560.441406 304.441406 560.9375 C 304.097656 560.136719 303.746094 559.339844 303.398438 558.542969 C 299.390625 549.308594 295.449219 540.054688 291.976562 530.605469 C 290.742188 527.242188 289.523438 523.871094 288.304688 520.503906 C 285.933594 517.671875 283.359375 514.929688 281.667969 511.722656 C 279.179688 507 276.867188 502.226562 273.859375 497.8125 C 270.730469 493.21875 267.59375 488.628906 264.445312 484.050781 C 261.242188 479.390625 258.519531 474.640625 255.75 469.703125 C 255.304688 468.910156 254.859375 468.117188 254.414062 467.324219 C 253.542969 465.765625 254.058594 463.800781 255.582031 462.867188 C 261.722656 459.101562 267.738281 455.355469 273.609375 451.183594 C 278.9375 447.398438 284.378906 443.785156 289.839844 440.1875 C 296.273438 435.953125 302.695312 431.71875 309.058594 427.378906 C 311.570312 425.667969 313.980469 423.882812 316.402344 422.050781 C 317.738281 421.039062 319.070312 420.03125 320.402344 419.023438 C 316.335938 419.496094 312.15625 419.382812 308.089844 419.703125 C 303.742188 420.042969 299.402344 420.6875 295.070312 421.191406 C 286.386719 422.199219 277.710938 423.195312 269.015625 424.082031 C 260.339844 424.96875 251.632812 425.492188 242.957031 426.402344 C 238.289062 426.890625 233.492188 426.488281 228.800781 426.554688 C 224.25 426.617188 219.695312 426.847656 215.144531 427 C 213.988281 427.039062 212.921875 426.34375 212.332031 425.386719 C 209.765625 421.21875 206.902344 417.128906 204.648438 412.785156 C 202.152344 407.972656 199.734375 403.113281 197.242188 398.296875 C 194.597656 393.183594 191.953125 388.175781 188.980469 383.246094 C 187.570312 380.90625 185.871094 378.585938 184.800781 376.066406 C 183.574219 373.183594 182.378906 370.285156 181.164062 367.394531 C 180.675781 366.226562 180.1875 365.058594 179.699219 363.890625 C 179.683594 363.871094 179.679688 363.871094 179.660156 363.84375 C 179.382812 363.449219 179.195312 362.933594 178.976562 362.5 C 177.332031 359.285156 175.691406 356.070312 174.050781 352.855469 C 171.753906 348.359375 169.140625 344 166.980469 339.441406 C 165.773438 336.886719 164.804688 334.191406 163.726562 331.578125 C 163.0625 329.96875 162.398438 328.359375 161.734375 326.75 C 161.6875 326.636719 161.636719 326.523438 161.589844 326.40625 C 161.535156 326.332031 161.421875 326.148438 161.257812 325.898438 C 158.902344 322.246094 156.679688 318.484375 154.554688 314.675781 C 153.953125 321.320312 153.097656 327.882812 151.996094 334.53125 C 151.992188 334.570312 151.988281 334.578125 151.980469 334.613281 C 151.984375 334.667969 151.988281 334.703125 151.988281 334.792969 C 151.996094 336.097656 151.871094 337.414062 151.816406 338.714844 C 151.6875 341.597656 151.570312 344.480469 151.429688 347.363281 C 151.214844 351.855469 150.84375 356.339844 150.539062 360.828125 C 149.9375 369.777344 149.152344 378.695312 148.296875 387.621094 C 147.828125 392.496094 147.765625 397.402344 147.421875 402.285156 C 147.089844 406.992188 146.375 411.691406 145.839844 416.378906 C 145.640625 418.140625 144.488281 419.617188 142.582031 419.636719 C 140.976562 419.652344 139.128906 418.125 139.328125 416.378906 C 139.84375 411.851562 140.488281 407.316406 140.878906 402.777344 C 141.269531 398.226562 141.296875 393.644531 141.640625 389.089844 C 142.332031 380.015625 143.304688 370.972656 143.953125 361.890625 C 144.597656 352.863281 144.875 343.820312 145.472656 334.792969 C 145.785156 330.117188 146.859375 325.386719 147.613281 320.761719 C 147.628906 320.664062 147.648438 320.566406 147.660156 320.46875 C 147.660156 320.453125 147.660156 320.453125 147.660156 320.4375 C 147.636719 319.238281 147.835938 317.980469 147.921875 316.785156 C 148.136719 313.839844 148.355469 310.894531 148.566406 307.949219 C 148.664062 306.582031 148.738281 305.214844 148.824219 303.847656 C 147.570312 301.308594 146.375 298.742188 145.261719 296.089844 C 144.539062 294.367188 143.816406 292.644531 143.09375 290.921875 C 142.890625 290.441406 142.691406 289.964844 142.492188 289.488281 C 142.492188 289.492188 142.492188 289.5 142.488281 289.492188 C 142.234375 289.113281 142.015625 288.695312 141.785156 288.292969 C 141.742188 289.074219 141.691406 289.855469 141.679688 290.640625 C 141.636719 294.167969 141.597656 297.699219 141.554688 301.226562 C 141.527344 303.355469 141.035156 305.425781 140.65625 307.515625 C 140.140625 310.363281 139.914062 313.5 139.089844 316.285156 C 139.089844 316.289062 139.089844 316.289062 139.089844 316.292969 C 139.085938 316.953125 139.023438 317.621094 138.992188 318.277344 C 138.90625 320.09375 138.816406 321.910156 138.730469 323.722656 C 138.460938 329.296875 137.976562 334.828125 137.488281 340.386719 C 137.035156 345.550781 137.625 350.761719 137.761719 355.9375 C 137.886719 360.632812 137.847656 365.394531 137.679688 370.089844 C 137.304688 380.578125 135.664062 390.972656 135.390625 401.449219 C 135.242188 407.136719 135.308594 412.507812 135.742188 418.179688 C 136.167969 423.722656 136.15625 429.15625 136.121094 434.722656 C 136.117188 435.671875 136.109375 436.621094 136.105469 437.570312 C 136.078125 441.761719 129.5625 441.769531 129.589844 437.570312 C 129.621094 432.78125 129.96875 427.886719 129.605469 423.105469 C 129.199219 417.75 128.589844 412.417969 128.730469 407.042969 C 128.878906 401.449219 129.089844 395.996094 129.65625 390.4375 C 130.226562 384.820312 130.617188 379.234375 130.957031 373.597656 C 131.277344 368.273438 131.222656 362.941406 131.257812 357.601562 C 131.292969 352.695312 130.628906 347.769531 130.757812 342.863281 C 130.886719 338.085938 131.738281 333.320312 131.984375 328.539062 C 132.265625 323.050781 132.242188 317.539062 133.226562 312.125 C 133.820312 308.839844 134.363281 305.539062 135.011719 302.261719 C 135.015625 302.292969 135.019531 302.328125 135.027344 302.359375 C 135.015625 302.320312 135.027344 302.261719 135.019531 302.21875 C 135.027344 302.1875 135.03125 302.15625 135.039062 302.121094 C 135.175781 301.429688 135.042969 301.671875 135.007812 302 C 135.007812 301.734375 135.039062 301.449219 135.039062 301.226562 C 135.058594 299.515625 135.082031 297.804688 135.101562 296.09375 C 135.167969 290.417969 135.585938 284.976562 136.167969 279.324219 C 136.269531 278.332031 136.371094 277.339844 136.472656 276.347656 C 136.769531 273.472656 140.988281 271.492188 142.542969 274.703125 C 144.773438 279.304688 147.136719 283.863281 149.117188 288.578125 C 149.273438 288.945312 149.429688 289.316406 149.582031 289.683594 C 149.753906 286.09375 149.925781 282.507812 150.125 278.921875 C 150.289062 276.003906 154.765625 274.101562 156.195312 277.28125 C 160.035156 285.808594 164.121094 294.183594 168.101562 302.644531 C 170.1875 307.082031 172.171875 311.574219 174.378906 315.953125 C 176.679688 320.515625 179.070312 324.980469 180.898438 329.753906 C 182.015625 332.679688 183.191406 335.585938 184.257812 338.53125 C 184.222656 338.464844 184.191406 338.410156 184.148438 338.324219 C 184.222656 338.46875 184.285156 338.617188 184.351562 338.765625 C 184.328125 338.714844 184.308594 338.667969 184.289062 338.621094 C 184.28125 338.589844 184.269531 338.5625 184.257812 338.53125 C 184.699219 339.375 184.507812 339.113281 184.359375 338.785156 C 184.414062 338.910156 184.472656 339.039062 184.53125 339.164062 C 185.171875 340.535156 185.796875 341.917969 186.425781 343.292969 C 188.601562 348.039062 190.859375 352.664062 193.257812 357.296875 C 197.835938 366.140625 201.980469 375.191406 206.132812 384.238281 C 207.011719 386.152344 207.914062 388.054688 208.820312 389.957031 C 209.65625 391.710938 210.492188 393.46875 211.328125 395.226562 C 211.703125 396.015625 212.398438 397.019531 212.65625 397.914062 C 212.476562 397.511719 212.1875 397.492188 212.71875 398.152344 C 212.722656 398.160156 212.730469 398.167969 212.734375 398.171875 C 212.738281 398.179688 212.742188 398.191406 212.742188 398.199219 C 212.742188 398.191406 212.738281 398.183594 212.738281 398.175781 C 213.148438 398.683594 213.554688 399.199219 213.964844 399.707031 C 215.109375 401.140625 216.257812 402.570312 217.402344 404.003906 C 218.894531 405.871094 220.386719 407.734375 221.878906 409.601562 C 225.894531 409.863281 229.90625 410.136719 233.921875 410.375 C 237.882812 410.609375 241.957031 410.132812 245.921875 409.972656 C 249.753906 409.8125 253.527344 409.203125 257.332031 408.699219 C 258.507812 408.546875 259.679688 408.390625 260.851562 408.234375 C 261.035156 408.210938 261.222656 408.1875 261.410156 408.160156 C 261.421875 408.15625 261.417969 408.15625 261.433594 408.148438 C 263.425781 407.386719 265.914062 407.25 268.003906 406.832031 C 275.648438 405.296875 283.488281 403.816406 291.289062 403.441406 C 295.328125 403.246094 299.410156 403.203125 303.4375 402.824219 C 305.9375 402.585938 308.429688 402.273438 310.925781 402 C 312.195312 401.859375 313.460938 401.722656 314.730469 401.582031 C 315.09375 401.542969 315.453125 401.5 315.8125 401.464844 C 315.800781 401.472656 315.785156 401.476562 315.769531 401.488281 C 315.785156 401.476562 315.8125 401.472656 315.832031 401.460938 C 315.871094 401.457031 315.914062 401.453125 315.953125 401.449219 C 316.730469 401.371094 316.484375 401.253906 316.132812 401.332031 C 316.726562 401.132812 317.648438 401.09375 318.117188 400.992188 C 319.652344 400.671875 321.183594 400.347656 322.71875 400.023438 C 324.886719 399.566406 327.054688 399.015625 329.238281 398.652344 C 333.933594 397.867188 338.894531 397.980469 343.644531 397.679688 C 346.472656 397.5 347.929688 401.363281 345.949219 403.238281 C 343.769531 405.300781 341.617188 407.375 339.476562 409.453125 C 342.273438 409.25 345.082031 409.125 347.847656 408.902344 C 351.417969 408.617188 351.789062 413.261719 349.488281 414.972656 C 346.714844 417.039062 343.941406 419.109375 341.164062 421.175781 C 340.472656 421.691406 339.777344 422.210938 339.082031 422.726562 C 338.933594 422.835938 338.800781 422.964844 338.6875 423.082031 C 338.730469 423.023438 338.765625 422.980469 338.820312 422.90625 C 338.089844 423.898438 336.828125 424.738281 335.929688 425.570312 C 333.359375 427.933594 330.878906 430.503906 328.125 432.65625 C 325.363281 434.808594 322.574219 436.921875 319.796875 439.054688 C 317.890625 440.519531 315.992188 441.796875 313.957031 443.078125 C 312.046875 444.28125 310.140625 445.484375 308.230469 446.683594 C 307.617188 447.070312 307.007812 447.472656 306.386719 447.847656 C 306.082031 448.03125 305.960938 448.105469 305.90625 448.136719 C 301.042969 452.050781 296.101562 455.8125 291.390625 459.914062 C 286.425781 464.234375 281.613281 468.691406 276.808594 473.1875 C 277.660156 476.949219 278.390625 480.816406 279.636719 484.425781 C 280.59375 487.191406 281.898438 489.890625 283.019531 492.597656 C 283.488281 493.730469 283.960938 494.867188 284.429688 496.003906 C 284.425781 495.996094 284.425781 495.996094 284.417969 495.988281 C 284.425781 495.996094 284.429688 496.007812 284.4375 496.015625 C 284.449219 496.050781 284.464844 496.082031 284.476562 496.117188 C 284.566406 496.335938 284.648438 496.453125 284.714844 496.527344 C 284.753906 496.617188 284.792969 496.710938 284.832031 496.789062 C 287.179688 501.097656 289.804688 505.515625 291.46875 510.144531 C 292.347656 512.59375 293.234375 515.039062 294.117188 517.484375 C 297.308594 521.675781 299.289062 526.519531 301.769531 531.167969 C 303.972656 535.289062 307.292969 538.8125 309.773438 542.769531 C 315.277344 551.550781 319.808594 560.9375 325.167969 569.804688 C 326.65625 572.269531 328.363281 574.695312 329.671875 577.261719 C 330.941406 579.746094 331.863281 582.476562 332.9375 585.046875 C 333.570312 586.554688 334.203125 588.066406 334.835938 589.574219 C 334.910156 589.75 335.109375 590.070312 335.167969 590.175781 C 335.214844 590.238281 335.253906 590.300781 335.273438 590.335938 C 337.039062 593.273438 338.6875 596.285156 340.394531 599.257812 C 340.824219 600.007812 341.257812 600.761719 341.6875 601.511719 C 343.347656 604.40625 340.070312 607.480469 337.230469 605.96875 C 334.550781 604.542969 331.8125 603.144531 329.066406 601.726562 C 329.953125 603.664062 330.839844 605.601562 331.742188 607.527344 C 333.183594 610.597656 330.304688 613.320312 327.285156 611.984375 C 318.207031 607.972656 309.019531 604.050781 301.109375 597.953125 C 292.480469 591.300781 283.414062 585.324219 274.785156 578.667969 C 270.625 575.460938 266.613281 572.058594 262.625 568.648438 C 262.546875 568.582031 262.445312 568.507812 262.347656 568.441406 C 262.433594 568.492188 262.519531 568.546875 262.644531 568.625 C 262.351562 568.445312 262.078125 568.21875 261.796875 568.023438 C 260.492188 567.09375 259.183594 566.167969 257.875 565.238281 C 255.707031 563.699219 253.300781 562.285156 251.296875 560.523438 C 247.691406 557.351562 244.664062 553.535156 241.082031 550.328125 C 237.207031 546.855469 233.3125 543.410156 229.519531 539.851562 C 225.523438 536.101562 221.585938 532.332031 217.71875 528.453125 C 214.390625 525.117188 211.378906 521.636719 208.359375 518.050781 C 207.9375 519.027344 207.511719 520 207.085938 520.976562 C 206.503906 522.308594 205.921875 523.644531 205.335938 524.976562 C 205.21875 525.246094 205.101562 525.519531 204.984375 525.789062 C 204.96875 525.84375 204.957031 525.886719 204.929688 525.976562 C 203.449219 530.71875 201.898438 535.703125 199.777344 540.203125 C 195.578125 549.109375 190.75 557.785156 186.835938 566.816406 C 182.757812 576.238281 178.496094 585.46875 173.046875 594.1875 C 171.636719 596.441406 170.015625 598.667969 168.773438 601.023438 C 167.667969 603.128906 166.863281 605.46875 165.925781 607.65625 C 165.042969 609.710938 164.300781 611.945312 163.226562 613.910156 C 161.886719 616.351562 160.066406 618.625 158.515625 620.9375 C 155.28125 625.773438 152.109375 630.648438 148.929688 635.523438 C 146 640.015625 142.015625 643.882812 138.496094 647.914062 C 136.597656 650.085938 132.925781 648.308594 132.933594 645.609375 C 132.945312 642.609375 132.875 639.585938 132.886719 636.570312 C 132.820312 636.648438 132.757812 636.726562 132.691406 636.804688 C 132.605469 636.90625 132.523438 637.015625 132.4375 637.128906 C 132.421875 637.117188 132.320312 637.214844 132.09375 637.511719 C 132.082031 637.527344 132.070312 637.542969 132.058594 637.558594 C 132.050781 637.566406 132.042969 637.578125 132.035156 637.585938 C 132.039062 637.582031 132.042969 637.578125 132.050781 637.570312 C 130.019531 640.238281 127.984375 642.902344 125.953125 645.566406 C 125.417969 646.269531 124.882812 646.96875 124.347656 647.671875 C 122.558594 650.019531 118.167969 649.585938 118.277344 646.027344 C 118.429688 641.167969 118.242188 636.183594 118.894531 631.363281 C 119.328125 628.179688 119.757812 625 120.191406 621.816406 C 120.273438 621.207031 120.355469 620.597656 120.4375 619.988281 C 120.488281 619.617188 120.433594 619.277344 120.402344 619.335938 C 120.429688 618.492188 120.5625 617.617188 120.609375 616.800781 C 120.933594 611.230469 121.351562 605.960938 122.339844 600.476562 C 123.285156 595.203125 124.132812 589.933594 124.941406 584.636719 C 125.722656 579.542969 126.722656 574.496094 127.675781 569.433594 C 127.722656 569.1875 127.753906 568.875 127.816406 568.59375 C 127.769531 568.925781 127.78125 569.277344 127.839844 568.589844 C 127.84375 568.542969 127.851562 568.492188 127.855469 568.445312 C 127.871094 568.402344 127.871094 568.347656 127.890625 568.3125 C 127.878906 568.332031 127.871094 568.367188 127.859375 568.398438 C 127.992188 566.941406 128.160156 565.488281 128.3125 564.035156 C 128.582031 561.4375 128.832031 558.839844 129.117188 556.242188 C 129.644531 551.476562 129.917969 546.539062 130.898438 541.84375 C 131.933594 536.898438 133.160156 531.988281 134.246094 527.050781 C 135.585938 520.945312 136.816406 514.875 137.910156 508.722656 C 138.105469 507.613281 138.179688 506.304688 138.488281 505.175781 C 138.453125 505.394531 138.511719 505.328125 138.546875 504.964844 C 138.578125 504.871094 138.59375 504.765625 138.628906 504.675781 C 138.585938 504.789062 138.574219 504.859375 138.546875 504.945312 C 138.554688 504.871094 138.566406 504.828125 138.566406 504.726562 C 138.589844 503.972656 138.652344 503.21875 138.695312 502.464844 C 138.835938 499.960938 138.980469 497.460938 139.121094 494.960938 C 138.683594 494.777344 138.25 494.59375 137.8125 494.410156 C 134.96875 493.511719 132.105469 492.609375 129.222656 492.046875 C 124.808594 491.179688 120.261719 490.851562 115.808594 490.191406 C 106.496094 488.808594 97.242188 487.328125 88.199219 484.621094 C 83.589844 483.242188 79.015625 481.839844 74.339844 480.699219 C 72.726562 480.304688 71.109375 479.910156 69.492188 479.515625 C 68.511719 479.273438 66.882812 479.179688 65.992188 478.660156 C 65.988281 478.65625 65.992188 478.65625 65.988281 478.652344 C 65.726562 478.625 65.460938 478.59375 65.203125 478.566406 C 63.597656 478.386719 61.996094 478.207031 60.390625 478.027344 C 57.898438 477.75 55.242188 477.710938 52.789062 477.15625 C 50.488281 476.636719 48.1875 475.601562 45.953125 474.84375 C 41.351562 473.289062 36.832031 472.121094 32.097656 471 C 30.027344 470.511719 28.03125 470.117188 26.089844 469.257812 C 22.933594 467.859375 19.789062 466.445312 16.636719 465.039062 C 16.273438 464.875 15.902344 464.714844 15.539062 464.546875 C 15.511719 464.542969 15.507812 464.542969 15.472656 464.535156 C 14.117188 464.246094 12.761719 463.660156 11.441406 463.234375 C 8.699219 462.351562 5.957031 461.46875 3.21875 460.582031 C 0.332031 459.652344 -0.09375 455.019531 3.214844 454.300781 Z M 332.21875 404.914062 C 331.753906 404.945312 331.285156 404.984375 330.816406 405.003906 C 330.859375 404.984375 330.90625 404.964844 330.949219 404.9375 C 330.902344 404.96875 330.832031 404.980469 330.773438 405.007812 C 330.078125 405.042969 330.179688 405.175781 330.515625 405.109375 C 329.914062 405.289062 329.105469 405.324219 328.605469 405.429688 C 327.070312 405.753906 325.535156 406.078125 324 406.402344 C 321.835938 406.859375 319.667969 407.40625 317.480469 407.773438 C 308.214844 409.339844 298.863281 409.292969 289.53125 410.039062 C 285.039062 410.398438 280.546875 411.214844 276.078125 411.8125 C 275.441406 411.898438 275.765625 411.902344 276.121094 411.84375 C 275.945312 411.875 275.765625 411.902344 275.597656 411.9375 C 274.3125 412.214844 273.019531 412.453125 271.730469 412.710938 C 268.972656 413.265625 266.21875 413.863281 263.453125 414.371094 C 254.425781 416.035156 245.363281 416.507812 236.21875 416.886719 C 231.707031 417.070312 227.117188 416.453125 222.617188 416.160156 C 220.636719 416.035156 218.875 416.078125 217.480469 414.460938 C 215.652344 412.34375 213.972656 410.078125 212.222656 407.894531 C 210.726562 406.023438 209.210938 404.164062 207.730469 402.277344 C 206.503906 400.722656 205.808594 398.730469 204.960938 396.953125 C 203.023438 392.882812 201.097656 388.808594 199.21875 384.714844 C 195.429688 376.460938 191.597656 368.238281 187.421875 360.179688 C 183.175781 351.980469 179.277344 343.660156 175.972656 335.035156 C 175.132812 332.835938 174.179688 330.648438 173.4375 328.410156 C 174.03125 330.195312 173.007812 327.679688 172.785156 327.238281 C 172.078125 325.835938 171.371094 324.433594 170.664062 323.03125 C 168.601562 318.9375 166.625 314.832031 164.6875 310.675781 C 161.824219 304.535156 158.824219 298.464844 155.9375 292.335938 C 155.761719 295.738281 155.574219 299.144531 155.386719 302.546875 C 155.539062 302.84375 155.691406 303.144531 155.851562 303.441406 C 158.589844 308.566406 161.402344 313.542969 164.40625 318.511719 C 165.613281 320.507812 166.945312 322.441406 167.839844 324.597656 C 169.183594 327.832031 170.515625 331.074219 171.851562 334.3125 C 172.109375 334.933594 172.363281 335.550781 172.617188 336.167969 C 172.613281 336.160156 172.613281 336.160156 172.605469 336.152344 C 172.609375 336.15625 172.613281 336.164062 172.621094 336.171875 C 172.621094 336.175781 172.621094 336.175781 172.625 336.179688 C 172.859375 336.75 173.011719 336.820312 172.898438 336.585938 C 173.359375 337.320312 173.707031 338.230469 174.089844 338.957031 C 175.691406 341.992188 177.308594 345.019531 178.898438 348.0625 C 181.230469 352.519531 183.804688 356.984375 185.757812 361.625 C 186.96875 364.503906 188.171875 367.390625 189.378906 370.269531 C 189.871094 371.4375 190.355469 372.605469 190.847656 373.773438 C 190.867188 373.789062 190.875 373.789062 190.898438 373.8125 C 191.261719 374.152344 191.507812 374.820312 191.765625 375.25 C 194.679688 380.082031 197.609375 384.847656 200.203125 389.859375 C 202.855469 394.980469 205.488281 400.109375 208.109375 405.25 C 210.667969 410.269531 213.574219 414.980469 216.53125 419.785156 C 216.664062 419.996094 216.792969 420.207031 216.925781 420.417969 C 220.757812 420.277344 224.59375 420.109375 228.425781 420.042969 C 232.832031 419.964844 237.273438 420.238281 241.671875 420.015625 C 246.046875 419.792969 250.417969 419.050781 254.78125 418.648438 C 259.140625 418.246094 263.515625 418.050781 267.875 417.679688 C 285.308594 416.191406 302.589844 413.160156 320.09375 412.511719 C 320.167969 412.507812 320.25 412.496094 320.328125 412.488281 C 320.148438 412.464844 320.28125 412.390625 320.855469 412.445312 C 320.8125 412.453125 320.773438 412.457031 320.734375 412.464844 C 320.828125 412.460938 320.925781 412.449219 321.011719 412.457031 C 320.953125 412.453125 320.910156 412.449219 320.855469 412.445312 C 320.859375 412.445312 320.859375 412.445312 320.859375 412.445312 C 322.273438 412.152344 323.703125 411.910156 325.121094 411.644531 C 326.351562 411.414062 327.582031 411.167969 328.816406 410.925781 C 330.871094 408.847656 332.941406 406.777344 335.03125 404.738281 C 334.09375 404.796875 333.15625 404.855469 332.21875 404.914062 Z M 300.496094 444.160156 C 304.90625 440.6875 310.050781 438.28125 314.542969 434.941406 C 317.675781 432.613281 320.734375 430.183594 323.828125 427.804688 C 323.964844 427.703125 324.097656 427.597656 324.234375 427.492188 C 324.347656 427.375 324.753906 427.011719 324.929688 426.847656 C 326.410156 425.484375 327.890625 424.121094 329.375 422.757812 C 331.859375 420.46875 334.433594 418.34375 337.054688 416.28125 C 336.285156 416.347656 335.160156 416.632812 334.359375 416.515625 C 334.074219 416.574219 333.78125 416.625 333.492188 416.679688 C 332.984375 416.773438 332.472656 416.871094 331.960938 416.964844 C 331.414062 417.53125 330.847656 418.070312 330.304688 418.640625 C 325.699219 423.453125 320.355469 427.460938 314.886719 431.273438 C 303.378906 439.300781 291.332031 446.554688 279.898438 454.679688 C 273.871094 458.957031 267.800781 462.933594 261.554688 466.820312 C 263.324219 470.125 265.066406 473.488281 267.175781 476.550781 C 269.125 479.390625 271.074219 482.230469 273.019531 485.074219 C 271.730469 481.144531 271.050781 476.921875 270.074219 472.949219 C 269.800781 471.839844 270.054688 470.582031 270.910156 469.78125 C 280.476562 460.816406 290.195312 452.265625 300.496094 444.160156 Z M 330.210938 594.820312 C 329.671875 593.789062 329.160156 592.75 328.714844 591.6875 C 327.425781 588.617188 326.140625 585.542969 324.851562 582.46875 C 324.597656 581.863281 324.34375 581.257812 324.089844 580.652344 C 324.015625 580.472656 323.820312 580.152344 323.734375 580.003906 C 323.6875 579.945312 323.648438 579.886719 323.625 579.851562 C 323.214844 579.210938 322.835938 578.542969 322.441406 577.890625 C 317.386719 569.527344 312.621094 561.007812 307.808594 552.507812 C 309.566406 556.617188 311.242188 560.699219 312.738281 564.933594 C 313.304688 566.539062 313.875 568.144531 314.441406 569.753906 C 314.597656 570.199219 314.769531 570.648438 314.917969 571.097656 C 314.953125 571.214844 314.984375 571.285156 315.015625 571.363281 C 314.972656 571.273438 314.933594 571.1875 314.851562 571.039062 C 314.914062 571.160156 314.96875 571.285156 315.03125 571.402344 C 315.117188 571.621094 315.15625 571.675781 315.109375 571.566406 C 316.261719 573.765625 317.253906 576.070312 318.320312 578.308594 C 320.429688 582.730469 322.464844 587.191406 324.484375 591.652344 C 326.386719 592.726562 328.292969 593.78125 330.210938 594.820312 Z M 255.660156 555.707031 C 255.707031 555.738281 255.75 555.773438 255.796875 555.808594 C 255.589844 555.613281 255 555.261719 255.660156 555.707031 Z M 229.941406 531.324219 C 237.808594 538.703125 245.882812 545.804688 253.472656 553.46875 C 254.171875 554.171875 255.289062 554.960938 255.820312 555.824219 C 256.265625 556.128906 256.703125 556.449219 257.144531 556.761719 C 259.859375 558.6875 262.585938 560.601562 265.289062 562.542969 C 267.074219 563.824219 268.71875 565.292969 270.402344 566.703125 C 271.789062 567.871094 273.179688 569.039062 274.566406 570.203125 C 275.042969 570.601562 275.523438 571 275.996094 571.402344 C 276.441406 571.785156 276.75 572.050781 276.265625 571.664062 C 279.832031 574.558594 283.484375 577.484375 287.285156 580.058594 C 291.574219 582.964844 295.910156 585.785156 300.011719 588.949219 C 302.433594 590.816406 304.792969 592.855469 307.316406 594.582031 C 309.269531 595.914062 311.464844 596.972656 313.519531 598.144531 C 316.445312 599.816406 319.394531 601.277344 322.390625 602.675781 C 321.492188 600.675781 320.589844 598.671875 319.691406 596.671875 C 316.671875 594.933594 313.734375 593.09375 310.96875 591.058594 C 301.921875 584.394531 292.957031 577.636719 284.132812 570.679688 C 283.222656 569.964844 282.296875 569.261719 281.398438 568.527344 C 281.386719 568.515625 281.382812 568.515625 281.367188 568.503906 C 280.894531 568.15625 280.429688 567.800781 279.960938 567.449219 C 277.242188 565.40625 274.523438 563.367188 271.804688 561.328125 C 270.042969 560.003906 268.378906 558.5625 266.695312 557.148438 C 265.269531 555.949219 263.84375 554.753906 262.417969 553.554688 C 261.914062 553.132812 261.410156 552.714844 260.90625 552.285156 C 260.824219 552.214844 260.742188 552.152344 260.667969 552.097656 C 260.71875 552.125 260.761719 552.148438 260.828125 552.175781 C 260.75 552.140625 260.675781 552.089844 260.601562 552.050781 C 260.382812 551.898438 260.242188 551.835938 260.261719 551.863281 C 258.007812 550.664062 255.875 548.910156 253.769531 547.523438 C 251.949219 546.324219 250.089844 545.191406 248.410156 543.800781 C 245.75 541.605469 243.113281 539.386719 240.46875 537.179688 C 240.039062 536.820312 239.605469 536.472656 239.183594 536.105469 C 239.148438 536.078125 239.136719 536.066406 239.109375 536.039062 C 238.207031 535.414062 237.339844 534.726562 236.460938 534.074219 C 232.355469 531.027344 228.351562 528.230469 224.042969 525.582031 C 225.984375 527.523438 227.941406 529.445312 229.941406 531.324219 Z M 137.078125 543.910156 C 137.070312 543.996094 137.058594 544.078125 137.050781 544.160156 C 137.105469 543.992188 137.179688 542.96875 137.078125 543.910156 Z M 137.292969 543.078125 C 137.234375 543.339844 137.210938 543.941406 137.046875 544.175781 C 136.699219 547.351562 136.300781 550.523438 135.929688 553.699219 C 135.347656 558.65625 134.90625 563.628906 134.355469 568.589844 C 133.828125 573.324219 132.585938 577.980469 131.789062 582.675781 C 131 587.308594 130.457031 591.980469 129.625 596.605469 C 129.027344 599.941406 128.425781 603.273438 127.828125 606.609375 C 127.769531 606.9375 127.726562 607.285156 127.65625 607.617188 C 127.71875 608.867188 127.503906 610.1875 127.433594 611.433594 C 127.0625 617.867188 126.394531 624.101562 125.53125 630.488281 C 125.421875 631.277344 125.316406 632.066406 125.207031 632.855469 C 125.203125 632.898438 125.203125 632.933594 125.199219 632.972656 C 125.199219 632.96875 125.195312 632.964844 125.195312 632.957031 C 125.195312 632.964844 125.195312 632.972656 125.199219 632.980469 C 125.152344 633.460938 125.234375 633.695312 125.269531 633.621094 C 125.308594 634.363281 125.207031 635.195312 125.136719 635.945312 C 126.011719 634.8125 126.867188 633.664062 127.777344 632.5625 C 129.65625 630.289062 131.566406 628.046875 133.464844 625.792969 C 133.75 622.808594 134.054688 619.828125 134.179688 616.839844 C 134.59375 606.796875 135.488281 596.695312 135.449219 586.648438 C 135.429688 581.539062 135.378906 576.53125 135.808594 571.445312 C 136.242188 566.269531 136.617188 561.15625 136.796875 555.972656 C 136.945312 551.574219 137.15625 547.183594 137.359375 542.789062 C 137.335938 542.886719 137.316406 542.980469 137.292969 543.078125 Z M 142.074219 633.9375 C 142.214844 633.78125 142.359375 633.621094 142.496094 633.457031 C 142.359375 633.640625 142.386719 633.652344 142.550781 633.394531 C 142.636719 633.296875 142.714844 633.195312 142.804688 633.105469 C 142.699219 633.207031 142.628906 633.292969 142.566406 633.375 C 142.597656 633.320312 142.617188 633.296875 142.660156 633.222656 C 145.140625 629.003906 148.003906 624.953125 150.730469 620.882812 C 153.464844 616.792969 156.664062 612.84375 158.609375 608.308594 C 160.605469 603.65625 162.359375 599 165.042969 594.707031 C 167.875 590.171875 170.535156 585.59375 173.019531 580.921875 C 170.078125 585.398438 167.125 589.867188 164.015625 594.234375 C 158.039062 602.628906 151.644531 610.71875 145.972656 619.332031 C 144.347656 621.796875 142.804688 624.339844 141.089844 626.742188 C 140.671875 627.328125 140.226562 627.898438 139.773438 628.460938 C 139.726562 629.023438 139.683594 629.585938 139.636719 630.152344 C 139.449219 632.421875 139.402344 634.710938 139.398438 637 C 140.289062 635.980469 141.183594 634.960938 142.074219 633.9375 Z M 100.894531 480.957031 C 99.230469 480.523438 97.539062 480.140625 95.789062 479.738281 C 95.425781 479.652344 95.050781 479.578125 94.679688 479.5 C 96.746094 480.015625 98.816406 480.507812 100.894531 480.957031 Z M 18.363281 458.714844 C 20.820312 459.78125 23.253906 460.898438 25.699219 461.992188 C 26.925781 462.539062 28.152344 463.082031 29.375 463.632812 C 29.433594 463.660156 29.496094 463.683594 29.554688 463.714844 C 29.726562 463.753906 29.980469 463.816406 30.117188 463.839844 C 34.570312 464.613281 39.25 465.710938 43.542969 467.164062 C 46.53125 468.171875 49.515625 469.183594 52.503906 470.195312 C 52.863281 470.316406 54.5625 470.8125 54.34375 470.847656 C 55.0625 470.941406 55.792969 471 56.503906 471.078125 C 61.476562 471.636719 66.367188 472.046875 71.226562 473.234375 C 75.96875 474.394531 80.660156 475.566406 85.335938 476.964844 C 86.371094 477.273438 87.402344 477.542969 88.4375 477.835938 C 87.3125 477.378906 86.203125 476.855469 85.09375 476.402344 C 81.515625 474.929688 77.945312 473.449219 74.332031 472.0625 C 70.699219 470.671875 67.089844 469.144531 63.394531 467.933594 C 59.152344 466.542969 54.699219 465.417969 50.59375 463.65625 C 48.308594 462.679688 46.035156 461.671875 43.757812 460.679688 C 42.402344 460.085938 41.042969 459.496094 39.6875 458.90625 C 39.382812 458.773438 39.078125 458.640625 38.769531 458.507812 C 34.777344 457.472656 30.84375 455.800781 26.945312 454.335938 C 24.050781 455.488281 21.207031 456.8125 18.230469 457.703125 C 17.746094 457.847656 17.242188 457.960938 16.75 458.089844 C 17.289062 458.300781 17.835938 458.488281 18.363281 458.714844 Z M 18.363281 458.714844 " fill-opacity="1" fill-rule="nonzero"/><path fill="#f4f1ec" d="M 398.992188 465.242188 C 408.050781 464.699219 417.011719 463.9375 426.042969 463.050781 C 434.898438 462.179688 443.835938 461.242188 452.730469 460.925781 C 457.140625 460.769531 461.648438 461.40625 466.058594 461.625 C 470.476562 461.84375 474.921875 461.789062 479.34375 461.855469 C 488.179688 461.984375 496.976562 461.953125 505.8125 462.261719 C 514.722656 462.570312 523.628906 462.949219 532.539062 463.339844 C 534.667969 459.597656 536.78125 455.847656 538.953125 452.132812 C 541.808594 447.246094 544.332031 442.265625 548.082031 438.019531 C 550.261719 435.546875 552.320312 432.742188 554.722656 430.484375 C 554.941406 430.117188 555.222656 429.761719 555.460938 429.414062 C 556.511719 427.867188 557.566406 426.324219 558.621094 424.78125 C 561.945312 419.90625 565.539062 415.558594 569.382812 411.070312 C 576.121094 403.207031 582.519531 395.023438 589.394531 387.277344 C 592.722656 383.527344 596.3125 380.015625 599.640625 376.265625 C 603.328125 372.101562 606.949219 367.902344 610.863281 363.949219 C 614.109375 360.675781 617.285156 357.367188 620.425781 354.011719 C 624.632812 349.070312 628.835938 344.132812 632.875 339.039062 C 632.996094 338.882812 633.113281 338.722656 633.234375 338.5625 C 633.78125 337.832031 634.332031 337.101562 634.878906 336.371094 C 635.101562 336.074219 635.371094 335.824219 635.667969 335.617188 C 636.367188 334.925781 637.253906 334.734375 638.121094 334.921875 C 639.675781 334.992188 641.074219 335.992188 640.949219 338.011719 C 640.949219 338.019531 640.949219 338.027344 640.949219 338.035156 C 640.949219 338.074219 640.96875 338.109375 640.96875 338.148438 C 640.976562 343.367188 641.25 348.636719 640.808594 353.835938 C 640.609375 356.183594 640.351562 358.542969 640.148438 360.902344 C 640.113281 365.707031 640.144531 370.519531 640.304688 375.359375 C 640.324219 376.144531 640.34375 376.929688 640.351562 377.714844 C 640.523438 383.886719 640.535156 390.058594 640.582031 396.230469 C 640.945312 399.203125 641.453125 402.175781 641.554688 405.148438 C 641.726562 410.296875 641.554688 415.472656 641.550781 420.628906 C 641.816406 424.050781 642.113281 427.46875 642.421875 430.894531 C 642.894531 436.066406 644.261719 441.363281 644.019531 446.550781 C 643.84375 450.394531 643.457031 454.285156 643.480469 458.128906 C 643.488281 459.253906 643.605469 460.394531 643.746094 461.53125 C 644.195312 464.625 644.777344 467.726562 644.902344 470.820312 C 645.332031 475.542969 645.550781 480.269531 645.839844 485.019531 C 646.03125 488.175781 646.257812 491.328125 646.46875 494.484375 C 646.539062 495.527344 646.761719 496.714844 646.757812 497.808594 C 646.730469 497.707031 646.683594 497.9375 646.738281 498.394531 C 646.734375 498.417969 646.738281 498.445312 646.734375 498.472656 C 646.738281 498.449219 646.738281 498.4375 646.742188 498.414062 C 646.746094 498.453125 646.746094 498.484375 646.753906 498.523438 C 646.886719 499.414062 647.015625 500.304688 647.148438 501.191406 C 647.527344 503.761719 647.824219 506.300781 648.128906 508.84375 C 657.546875 511.660156 666.964844 514.535156 676.5 516.929688 C 682.332031 518.394531 687.886719 519.945312 693.554688 521.929688 C 695.6875 522.675781 697.824219 523.601562 700.027344 524.117188 C 703.371094 524.898438 706.777344 525.488281 710.144531 526.171875 C 715.472656 527.257812 720.492188 529.425781 725.621094 531.226562 C 730.246094 532.855469 735.019531 534.101562 739.703125 535.554688 C 744.664062 537.089844 749.578125 538.816406 754.589844 540.164062 C 760.136719 541.652344 765.5625 542.925781 770.792969 545.28125 C 773.777344 546.625 776.910156 547.808594 779.800781 549.335938 C 780.25 549.519531 780.695312 549.703125 781.140625 549.886719 C 782.929688 550.621094 784.71875 551.355469 786.507812 552.089844 C 791.9375 554.324219 797.265625 556.722656 802.609375 559.164062 C 803.503906 559.574219 804.398438 559.984375 805.296875 560.394531 C 807.425781 561.367188 807.425781 565.042969 805.296875 566.019531 C 801.449219 567.773438 797.628906 569.625 793.742188 571.296875 C 797.46875 572.839844 801.175781 574.425781 804.835938 576.148438 C 805.777344 576.589844 806.722656 577.035156 807.664062 577.476562 C 809.957031 578.554688 809.609375 581.929688 807.664062 583.101562 C 805.519531 584.394531 803.375 585.683594 801.230469 586.972656 C 799.355469 588.101562 797.476562 589.503906 795.417969 590.289062 C 791.113281 591.925781 786.726562 593.417969 782.355469 594.878906 C 773.339844 597.890625 764.308594 600.441406 755.128906 602.917969 C 750.457031 604.175781 745.84375 605.511719 741.082031 606.390625 C 736.109375 607.308594 731.246094 608.238281 726.359375 609.515625 C 716.878906 611.992188 707.640625 615.136719 698.085938 617.328125 C 688.34375 619.558594 678.65625 622.011719 668.945312 624.371094 C 667.203125 626.003906 664.949219 625.09375 663.988281 623.464844 C 663.980469 623.449219 663.972656 623.433594 663.964844 623.421875 C 663.917969 623.34375 663.871094 623.269531 663.832031 623.1875 C 662.886719 621.507812 663.242188 619.089844 665.625 618.484375 C 667.0625 617.023438 668.503906 615.558594 669.945312 614.097656 C 671.402344 612.613281 672.882812 610.574219 674.71875 609.539062 C 677.324219 608.0625 680.324219 607.050781 683.0625 605.839844 C 684.867188 605.039062 686.660156 604.199219 688.5 603.484375 C 693.003906 601.738281 697.582031 600.164062 702.03125 598.292969 C 706.535156 596.394531 710.980469 594.171875 715.699219 592.882812 C 720.507812 591.566406 725.3125 590.414062 729.953125 588.589844 C 734.609375 586.765625 739.261719 584.9375 743.929688 583.136719 C 748.703125 581.296875 753.265625 579.660156 758.203125 578.339844 C 759.742188 577.929688 761.28125 577.515625 762.820312 577.105469 C 763.425781 576.945312 764.03125 576.761719 764.640625 576.617188 C 764.890625 576.5625 765.449219 576.371094 765.5 576.375 C 767.695312 575.445312 769.855469 574.402344 772.027344 573.421875 C 773.554688 572.734375 775.09375 572.089844 776.628906 571.429688 C 775.785156 571.089844 774.933594 570.765625 774.089844 570.421875 C 768.761719 568.253906 763.421875 566.109375 758.074219 563.988281 C 753.675781 562.242188 749.089844 560.242188 744.5 559.113281 C 741.15625 558.289062 737.753906 557.65625 734.390625 556.925781 C 732.171875 556.449219 730.261719 555.605469 728.171875 554.714844 C 725.523438 553.582031 722.882812 552.292969 720.179688 551.273438 C 720.179688 551.289062 719.996094 551.25 719.625 551.164062 C 718.898438 551 718.179688 550.773438 717.460938 550.578125 C 715.523438 550.050781 713.585938 549.523438 711.644531 548.996094 C 701.691406 546.292969 692.175781 541.871094 682.082031 539.652344 C 678.617188 538.890625 675.148438 538.128906 671.683594 537.363281 C 669.574219 536.902344 667.632812 535.964844 665.632812 535.15625 C 663.152344 534.148438 660.679688 532.980469 658.136719 532.140625 C 654.976562 531.09375 651.707031 530.316406 648.507812 529.40625 C 647.511719 529.125 646.511719 528.839844 645.515625 528.554688 C 644.054688 528.140625 643.226562 526.867188 643.125 525.414062 C 642.890625 522.035156 642.65625 518.65625 642.421875 515.277344 C 642.367188 514.496094 642.3125 513.71875 642.257812 512.9375 C 641.988281 512.453125 641.800781 511.910156 641.722656 511.304688 C 641.328125 508.246094 640.933594 505.1875 640.535156 502.132812 C 640.363281 500.808594 640.160156 499.480469 640.019531 498.152344 C 639.9375 497.546875 639.855469 496.941406 639.769531 496.339844 C 639.289062 492.867188 638.808594 489.398438 638.332031 485.929688 C 637.972656 483.316406 638.242188 480.613281 638.296875 477.984375 C 638.347656 475.574219 638.582031 473.097656 638.359375 470.695312 C 638.023438 467.082031 637.472656 463.476562 637.03125 459.878906 C 636.410156 454.847656 636.511719 449.746094 636.179688 444.695312 C 635.828125 439.3125 635.132812 433.957031 635.085938 428.5625 C 635.070312 426.351562 635.078125 424.144531 635.066406 421.9375 C 634.949219 420.394531 634.808594 418.855469 634.730469 417.316406 C 634.378906 410.375 634.238281 403.441406 634.144531 396.507812 C 634.003906 395.101562 633.863281 393.6875 633.738281 392.265625 C 633.421875 388.597656 633.800781 384.882812 633.929688 381.183594 C 633.914062 380.308594 633.910156 379.433594 633.890625 378.558594 C 633.78125 372.988281 633.40625 367.425781 633.464844 361.855469 C 633.515625 357.449219 633.664062 353.082031 633.855469 348.710938 C 632.960938 349.871094 632.042969 351.007812 631.074219 352.09375 C 628.671875 354.796875 626.214844 357.464844 623.722656 360.09375 C 622.042969 362.050781 620.375 364.011719 618.746094 366.023438 C 617.613281 367.425781 616.484375 368.828125 615.347656 370.226562 C 615.277344 370.3125 615.105469 370.546875 614.976562 370.714844 C 614.855469 370.898438 614.71875 371.097656 614.671875 371.167969 C 612.648438 374.117188 610.628906 377.070312 608.605469 380.019531 C 605.847656 384.042969 602.703125 387.792969 599.867188 391.765625 C 596.648438 396.277344 593.664062 400.9375 590.304688 405.347656 C 586.617188 410.175781 583.195312 414.972656 579.882812 420.0625 C 576.753906 424.863281 573.949219 429.847656 570.894531 434.691406 C 568.355469 438.71875 564.695312 442.226562 562.582031 446.492188 C 560.996094 449.691406 559.496094 452.933594 557.953125 456.152344 C 556.925781 458.300781 555.363281 460.019531 553.882812 461.882812 C 552.648438 463.441406 551.410156 464.996094 550.171875 466.554688 C 549.757812 467.078125 549.339844 467.605469 548.921875 468.128906 C 548.230469 468.996094 548.929688 468.390625 548.960938 468.09375 C 548.855469 469.183594 547.652344 470.730469 547.167969 471.703125 C 546.28125 473.484375 545.394531 475.269531 544.511719 477.050781 C 544.238281 477.597656 543.96875 478.140625 543.699219 478.6875 C 543.554688 479.503906 543.132812 480.257812 542.441406 480.742188 C 541.652344 481.480469 540.621094 481.605469 539.667969 481.300781 C 535.433594 481.308594 531.199219 481.3125 526.964844 481.332031 C 522.453125 481.351562 517.847656 481.6875 513.347656 481.410156 C 508.757812 481.132812 504.136719 480.179688 499.574219 479.554688 C 499.578125 479.558594 499.59375 479.5625 499.589844 479.566406 C 499.429688 479.6875 498.847656 479.621094 498.652344 479.636719 C 497.238281 479.742188 495.828125 479.84375 494.414062 479.949219 C 491.710938 480.148438 489.003906 480.417969 486.300781 480.550781 C 477.371094 480.984375 468.382812 480.507812 459.453125 480.394531 C 455.042969 480.335938 450.566406 480.929688 446.167969 481.230469 C 445.871094 481.25 445.394531 481.375 445.105469 481.300781 C 445.101562 481.300781 445.105469 481.300781 445.101562 481.296875 C 444.195312 481.425781 443.285156 481.546875 442.375 481.671875 C 439.40625 482.078125 436.433594 482.484375 433.464844 482.894531 C 429.21875 483.476562 424.886719 483.09375 420.589844 483.019531 C 421.074219 483.429688 421.5625 483.828125 422.035156 484.246094 C 428.675781 490.082031 434.789062 496.679688 441.019531 502.949219 C 444.109375 506.058594 446.984375 509.390625 449.941406 512.621094 C 452.875 515.828125 456.140625 518.746094 459.269531 521.761719 C 465.484375 527.75 471.554688 533.890625 477.597656 540.050781 C 482.898438 545.453125 487.835938 551.160156 492.617188 557.011719 C 494.449219 559.082031 496.214844 561.234375 497.976562 563.289062 C 499.597656 565.179688 499.132812 566.929688 498.566406 568.980469 C 498.242188 570.449219 497.804688 571.925781 497.527344 573.28125 C 497.125 575.25 496.871094 577.339844 496.296875 579.269531 C 495.804688 580.921875 495.074219 582.550781 494.375 584.160156 C 493.570312 586.667969 492.71875 589.160156 491.917969 591.65625 C 490.488281 596.125 487.878906 600.246094 485.734375 604.40625 C 485.472656 604.914062 485.222656 605.472656 484.9375 605.992188 C 485.035156 605.742188 484.964844 605.71875 484.828125 606.164062 C 484.820312 606.183594 484.8125 606.203125 484.804688 606.222656 C 484.757812 606.300781 484.722656 606.390625 484.671875 606.464844 C 484.730469 606.382812 484.753906 606.324219 484.796875 606.257812 C 484.648438 606.71875 484.476562 607.175781 484.316406 607.632812 C 483.300781 610.546875 482.285156 613.457031 481.269531 616.367188 C 479.726562 620.789062 477.695312 625.011719 475.796875 629.289062 C 474.023438 633.296875 472.304688 637.324219 470.578125 641.351562 C 470.097656 642.472656 469.617188 643.597656 469.132812 644.71875 C 469.117188 644.753906 469.09375 644.824219 469.0625 644.894531 C 469 645.078125 468.925781 645.285156 468.902344 645.355469 C 467.898438 648.105469 466.847656 650.84375 465.820312 653.585938 C 463.671875 659.328125 461.300781 664.976562 458.792969 670.5625 C 461.042969 668.71875 463.3125 666.898438 465.617188 665.132812 C 469.851562 661.894531 474.019531 658.730469 478.46875 655.804688 C 479.914062 654.851562 481.359375 653.902344 482.804688 652.953125 C 483.273438 652.644531 483.734375 652.3125 484.214844 652.023438 C 484.257812 652 484.273438 651.992188 484.304688 651.976562 C 486.386719 649.984375 488.839844 648.265625 491.0625 646.441406 C 498.902344 640 508.074219 635.421875 516.503906 629.816406 C 520.292969 627.296875 523.855469 624.445312 527.625 621.894531 C 531.804688 619.070312 536.023438 616.3125 540.1875 613.464844 C 545.371094 609.910156 550.519531 606.597656 555.945312 603.425781 C 557.050781 602.777344 558.28125 601.769531 559.5 601.347656 C 558.863281 601.566406 558.757812 601.941406 559.484375 601.359375 C 560.074219 600.886719 560.667969 600.421875 561.261719 599.949219 C 563.769531 597.957031 566.277344 595.96875 568.785156 593.976562 C 570.386719 592.699219 572.753906 592.652344 573.898438 594.636719 C 580.097656 605.378906 586.640625 615.886719 593.113281 626.464844 C 595.816406 630.878906 597.332031 635.933594 599.941406 640.390625 C 601.847656 643.648438 603.921875 646.824219 605.90625 650.035156 C 607.265625 652.226562 608.121094 654.722656 609.140625 657.085938 C 611.652344 662.90625 614.332031 668.625 617.167969 674.292969 C 619.492188 678.941406 622.734375 683.101562 625.023438 687.773438 C 627.949219 693.742188 630.921875 699.617188 634.097656 705.453125 C 635.257812 707.585938 636.371094 709.671875 637.367188 711.875 C 638.238281 713.804688 639.113281 715.734375 639.984375 717.664062 C 640.335938 718.441406 641.761719 720.5 641.667969 721.382812 C 641.703125 721.007812 641 720.492188 641.667969 721.382812 C 641.695312 721.421875 641.710938 721.445312 641.742188 721.488281 C 642.269531 722.164062 642.792969 722.839844 643.320312 723.511719 C 644.640625 725.207031 645.960938 726.902344 647.28125 728.597656 C 648.097656 729.644531 649.144531 730.703125 649.816406 731.859375 C 650.453125 732.953125 650.8125 734.347656 651.265625 735.519531 C 652.042969 737.511719 652.816406 739.507812 653.59375 741.5 C 653.765625 741.941406 653.9375 742.382812 654.109375 742.824219 C 654.96875 744.207031 655.828125 745.589844 656.6875 746.972656 C 656.734375 746.339844 656.777344 745.710938 656.820312 745.078125 C 657.050781 741.8125 656.84375 738.558594 656.75 735.285156 C 656.625 731.027344 656.851562 726.816406 657.054688 722.59375 C 656.78125 720.011719 656.492188 717.394531 656.597656 714.859375 C 656.6875 712.660156 656.953125 710.464844 657.234375 708.269531 C 657.175781 706.136719 657.121094 704.007812 657.136719 701.878906 C 657.152344 699.363281 657.421875 696.832031 657.6875 694.308594 C 657.597656 693.207031 657.511719 692.109375 657.453125 691.027344 C 657.21875 686.503906 657.984375 682.082031 658.546875 677.625 C 658.5625 675.636719 658.570312 673.644531 658.570312 671.660156 C 658.570312 667.542969 658.277344 663.3125 658.617188 659.207031 C 658.863281 656.234375 659.21875 653.265625 659.578125 650.300781 C 659.601562 648.8125 659.636719 647.324219 659.660156 645.832031 C 659.6875 643.914062 661.070312 642.882812 662.558594 642.71875 C 662.808594 642.65625 663.074219 642.609375 663.359375 642.605469 C 664.972656 642.589844 666.8125 644.117188 666.617188 645.863281 C 666.441406 647.429688 666.269531 649 666.09375 650.566406 C 666 656.46875 665.886719 662.367188 665.699219 668.265625 C 665.605469 671.125 665.429688 673.863281 665.109375 676.671875 C 665.109375 680.503906 665.054688 684.339844 664.773438 688.132812 C 664.621094 690.210938 664.402344 692.289062 664.191406 694.371094 C 664.363281 696.609375 664.519531 698.851562 664.492188 701.089844 C 664.460938 703.816406 664.082031 706.589844 663.730469 709.332031 C 663.761719 710.351562 663.789062 711.367188 663.804688 712.378906 C 663.847656 715.363281 663.667969 718.339844 663.484375 721.316406 C 663.773438 724.765625 664.15625 728.214844 664.019531 731.679688 C 663.683594 740.273438 663.164062 748.820312 662.5625 757.402344 C 662.335938 760.621094 658.300781 761.839844 656.492188 759.046875 C 653.878906 755.011719 651.007812 751.121094 648.882812 746.832031 C 645.476562 741.390625 642.09375 735.941406 638.820312 730.425781 C 633.203125 720.960938 626.976562 711.757812 620.53125 702.835938 C 617.335938 698.40625 613.824219 694.234375 611.019531 689.542969 C 607.8125 684.1875 604.550781 679.054688 600.980469 673.933594 C 597.710938 669.238281 594.394531 664.429688 591.632812 659.421875 C 591.582031 659.328125 591.546875 659.265625 591.523438 659.210938 C 591.296875 658.929688 591.074219 658.648438 590.847656 658.367188 C 589.671875 656.890625 588.5 655.414062 587.324219 653.941406 C 585.78125 652 583.925781 650.097656 582.75 647.910156 C 579.921875 642.664062 577.527344 637.417969 574.199219 632.472656 C 570.839844 627.476562 567.902344 622.46875 564.992188 617.210938 C 562.214844 619.464844 559.441406 621.734375 556.523438 623.773438 C 552.339844 626.695312 548.0625 629.511719 543.773438 632.28125 C 539.171875 635.246094 534.582031 638.210938 530.058594 641.292969 C 528.574219 642.304688 527.089844 643.3125 525.609375 644.324219 C 525.128906 644.648438 524.65625 645 524.164062 645.304688 C 524.109375 645.339844 524.089844 645.351562 524.050781 645.371094 C 521.75 647.28125 519.347656 649.085938 517 650.941406 C 512.703125 654.339844 508.355469 657.667969 504.019531 661.015625 C 502.445312 662.226562 500.71875 663.167969 499.011719 664.183594 C 497.414062 665.136719 495.816406 666.089844 494.21875 667.042969 C 493.554688 667.4375 492.765625 668.082031 492.003906 668.4375 C 492.226562 668.296875 492.09375 668.246094 491.644531 668.589844 C 491.621094 668.597656 491.59375 668.617188 491.570312 668.625 C 491.601562 668.613281 491.613281 668.605469 491.640625 668.59375 C 491.613281 668.613281 491.601562 668.617188 491.570312 668.640625 C 491.035156 669.078125 490.492188 669.515625 489.953125 669.949219 C 488.515625 671.113281 487.078125 672.28125 485.640625 673.445312 C 483.941406 674.820312 482.269531 676.246094 480.488281 677.519531 C 477.734375 679.488281 474.980469 681.457031 472.226562 683.421875 C 471.777344 683.746094 471.332031 684.078125 470.875 684.390625 C 470.765625 684.464844 470.695312 684.511719 470.644531 684.546875 C 469.769531 685.21875 468.898438 685.894531 468.027344 686.570312 C 463.617188 689.980469 459.324219 693.410156 455.09375 697.035156 C 450.882812 700.644531 447.042969 704.472656 443.132812 708.414062 C 442.496094 709.058594 441.855469 709.703125 441.21875 710.347656 C 439.09375 712.488281 434.464844 710.3125 435.773438 707.179688 C 438.253906 701.238281 440.625 695.203125 443.136719 689.242188 C 442.371094 688.519531 441.992188 687.460938 442.484375 686.242188 C 445.867188 677.835938 449.28125 669.484375 453.089844 661.257812 C 453.09375 661.246094 453.09375 661.246094 453.101562 661.238281 C 453.125 661.160156 453.152344 661.078125 453.203125 660.933594 C 453.628906 659.726562 454.085938 658.527344 454.527344 657.324219 C 455.457031 654.785156 456.359375 652.234375 457.320312 649.707031 C 458.917969 645.5 460.957031 641.433594 462.789062 637.328125 C 464.535156 633.417969 466.640625 629.648438 468.582031 625.835938 C 470.519531 622.027344 472.15625 618.054688 473.914062 614.160156 C 477.433594 606.367188 480.78125 598.566406 484.519531 590.871094 C 484.753906 590.390625 485.800781 588.007812 485.136719 589.707031 C 485.484375 588.820312 485.84375 587.9375 486.199219 587.054688 C 486.726562 585.734375 487.269531 584.417969 487.804688 583.097656 C 488.128906 582.113281 488.453125 581.128906 488.769531 580.144531 C 489.980469 576.359375 490.949219 572.496094 491.929688 568.640625 C 492.03125 568.039062 492.132812 567.445312 492.234375 566.855469 C 491.273438 565.65625 490.316406 564.460938 489.347656 563.269531 C 487.867188 561.570312 486.375 559.886719 484.820312 558.261719 C 481.992188 555.304688 478.464844 552.835938 475.332031 550.207031 C 469.367188 545.203125 463.757812 539.945312 458.507812 534.210938 C 455.863281 531.324219 453.359375 528.78125 450.371094 526.269531 C 447.355469 523.726562 444.300781 521.253906 441.453125 518.523438 C 435.417969 512.738281 429.371094 506.964844 422.902344 501.65625 C 419.335938 498.730469 415.488281 496.132812 411.980469 493.136719 C 408.429688 490.109375 405.105469 486.777344 401.679688 483.609375 C 399.402344 481.5 401.390625 478.339844 403.984375 478.046875 C 404.167969 478.027344 404.347656 478 404.53125 477.980469 C 401.898438 475.609375 399.304688 473.1875 396.6875 470.804688 C 394.472656 468.785156 396.335938 465.402344 398.992188 465.242188 Z M 765.5625 583.117188 C 760.800781 584.390625 755.96875 585.445312 751.367188 587.21875 C 742.074219 590.800781 732.882812 594.941406 723.273438 597.566406 C 720.605469 598.296875 717.847656 598.886719 715.226562 599.765625 C 713.25 600.433594 711.332031 601.390625 709.40625 602.199219 C 704.757812 604.15625 700.105469 606.015625 695.386719 607.808594 C 693.738281 608.433594 692.097656 609.074219 690.445312 609.6875 C 690.175781 609.785156 689.90625 609.921875 689.628906 609.996094 C 689.699219 609.976562 689.738281 609.96875 689.796875 609.949219 C 689.714844 609.980469 689.632812 610.011719 689.566406 610.039062 C 686.277344 611.515625 682.972656 612.960938 679.675781 614.421875 C 679.265625 614.605469 678.660156 615.011719 678.183594 615.105469 C 678.117188 615.21875 678.042969 615.328125 677.953125 615.441406 C 682.671875 614.273438 687.394531 613.113281 692.128906 612.011719 C 696.6875 610.953125 701.367188 610.15625 705.835938 608.75 C 710.386719 607.316406 714.910156 605.773438 719.527344 604.566406 C 724.210938 603.34375 728.84375 602.046875 733.601562 601.171875 C 738.425781 600.28125 743.140625 599.398438 747.875 598.125 C 757.324219 595.578125 766.789062 593.179688 776.082031 590.101562 C 781.460938 588.320312 786.796875 586.4375 792.136719 584.554688 C 792.535156 584.414062 792.941406 584.246094 793.347656 584.121094 C 793.351562 584.117188 793.351562 584.113281 793.359375 584.109375 C 794.320312 583.210938 795.859375 582.601562 796.984375 581.925781 C 797.699219 581.496094 798.414062 581.066406 799.128906 580.632812 C 798.136719 580.167969 797.144531 579.699219 796.152344 579.234375 C 795.136719 578.753906 794.074219 578.320312 793.082031 577.792969 C 793.386719 577.933594 793.605469 577.984375 793.078125 577.792969 C 793.003906 577.753906 792.917969 577.71875 792.84375 577.675781 C 792.917969 577.71875 793 577.757812 793.078125 577.792969 C 793.039062 577.78125 793.015625 577.769531 792.96875 577.753906 C 792.292969 577.507812 791.625 577.246094 790.953125 576.992188 C 789.035156 576.269531 787.125 575.535156 785.214844 574.800781 C 784.75 574.988281 784.28125 575.179688 783.816406 575.371094 C 782.675781 575.835938 781.535156 576.304688 780.390625 576.761719 C 780.4375 576.742188 780.480469 576.71875 780.519531 576.699219 C 780.441406 576.742188 780.355469 576.773438 780.273438 576.8125 C 780.246094 576.820312 780.21875 576.832031 780.195312 576.84375 C 779.722656 577.03125 779.820312 577.003906 780.046875 576.914062 C 779.859375 576.996094 779.675781 577.082031 779.492188 577.164062 C 774.949219 579.210938 770.386719 581.828125 765.5625 583.117188 Z M 649.390625 521.867188 C 649.414062 522.203125 649.4375 522.542969 649.460938 522.878906 C 653.714844 524.027344 658.023438 525.089844 662.09375 526.738281 C 665.292969 528.035156 668.46875 529.496094 671.726562 530.640625 C 674.019531 531.445312 676.550781 531.773438 678.921875 532.296875 C 684.710938 533.566406 690.261719 535.261719 695.929688 537.003906 C 700.566406 538.425781 705.054688 540.3125 709.695312 541.71875 C 715.121094 543.359375 720.59375 544.445312 725.816406 546.675781 C 728.621094 547.875 731.40625 549.144531 734.238281 550.28125 C 734.292969 550.28125 734.375 550.285156 734.519531 550.300781 C 735.167969 550.371094 735.832031 550.585938 736.46875 550.722656 C 738.375 551.132812 740.28125 551.542969 742.183594 551.957031 C 752.367188 554.15625 762.125 558.578125 771.757812 562.488281 C 776.230469 564.304688 780.722656 566.058594 785.203125 567.832031 C 786.292969 567.386719 787.378906 566.933594 788.472656 566.492188 C 789.007812 566.273438 789.542969 566.050781 790.078125 565.835938 C 790.085938 565.835938 790.085938 565.832031 790.09375 565.828125 C 790.054688 565.851562 790.039062 565.855469 789.992188 565.878906 C 790.042969 565.855469 790.09375 565.832031 790.144531 565.808594 C 790.480469 565.671875 790.621094 565.59375 790.5625 565.609375 C 791.59375 565.113281 792.652344 564.664062 793.691406 564.191406 C 794.410156 563.863281 795.132812 563.53125 795.851562 563.203125 C 795.285156 562.945312 794.722656 562.6875 794.15625 562.429688 C 792.773438 561.796875 791.378906 561.1875 790.007812 560.53125 C 789.9375 560.5 789.894531 560.480469 789.847656 560.457031 C 789.574219 560.34375 789.296875 560.230469 789.019531 560.117188 C 783.710938 557.933594 778.382812 555.800781 773.144531 553.445312 C 770.273438 552.152344 767.332031 550.949219 764.503906 549.558594 C 764.480469 549.554688 764.472656 549.558594 764.441406 549.554688 C 763.894531 549.496094 763.3125 549.253906 762.78125 549.109375 C 761.035156 548.640625 759.285156 548.171875 757.535156 547.699219 C 751.902344 546.1875 746.367188 544.476562 740.800781 542.722656 C 735.597656 541.085938 730.359375 539.574219 725.15625 537.933594 C 720.53125 536.476562 716.074219 534.335938 711.398438 533.0625 C 706.519531 531.734375 701.296875 531.527344 696.515625 529.855469 C 691.183594 527.988281 685.9375 526.015625 680.460938 524.640625 C 669.84375 521.972656 659.347656 518.957031 648.855469 515.847656 C 649.042969 517.851562 649.25 519.839844 649.390625 521.867188 Z M 451.976562 685.410156 C 451.160156 687.253906 450.359375 689.101562 449.574219 690.964844 C 449.042969 692.222656 448.511719 693.476562 447.984375 694.734375 C 451.515625 691.496094 455.144531 688.363281 458.980469 685.398438 C 463.472656 681.925781 467.957031 678.5 472.574219 675.199219 C 473.964844 674.207031 475.355469 673.214844 476.742188 672.21875 C 477.070312 671.984375 477.398438 671.714844 477.746094 671.5 C 480.253906 669.417969 482.816406 667.394531 485.347656 665.34375 C 489.558594 661.933594 494.328125 659.449219 498.953125 656.636719 C 500.738281 655.550781 502.339844 654.148438 503.992188 652.875 C 505.425781 651.769531 506.859375 650.664062 508.289062 649.554688 C 508.75 649.203125 509.207031 648.847656 509.667969 648.496094 C 510.15625 648.117188 510.0625 648.179688 509.855469 648.339844 C 517.898438 641.703125 526.375 635.753906 535.136719 630.105469 C 539.800781 627.097656 544.433594 624.058594 549.039062 620.964844 C 550.324219 620.101562 551.597656 619.222656 552.894531 618.375 C 552.921875 618.359375 552.96875 618.328125 553.023438 618.296875 C 553.171875 618.191406 553.507812 617.964844 553.617188 617.878906 C 556.289062 615.769531 558.96875 613.667969 561.644531 611.5625 C 562.320312 611.027344 562.996094 610.496094 563.671875 609.960938 C 565.253906 608.71875 567.679688 608.605469 568.789062 610.621094 C 571.324219 615.21875 573.644531 620 576.574219 624.355469 C 578.550781 627.292969 580.640625 630.179688 582.511719 633.183594 C 583.824219 635.289062 584.828125 637.636719 585.949219 639.851562 C 586.757812 641.4375 587.625 643.007812 588.371094 644.621094 C 588.484375 644.863281 588.585938 645.078125 588.628906 645.191406 C 588.753906 645.339844 588.867188 645.492188 588.984375 645.636719 C 591.261719 648.496094 593.539062 651.355469 595.816406 654.21875 C 599 658.214844 601.300781 662.875 604.144531 667.113281 C 607.238281 671.730469 610.59375 676.140625 613.445312 680.914062 C 614.453125 682.59375 615.429688 684.304688 616.433594 686 C 615.191406 683.828125 613.921875 681.660156 612.609375 679.476562 C 609.992188 675.125 607.828125 670.320312 605.796875 665.664062 C 604.277344 662.179688 602.785156 658.683594 601.28125 655.195312 C 600.238281 652.785156 598.59375 650.59375 597.214844 648.367188 C 595.886719 646.214844 594.449219 644.121094 593.375 641.832031 C 591.785156 638.445312 590.292969 634.992188 588.601562 631.65625 C 586.230469 626.984375 583.125 622.582031 580.351562 618.125 C 576.867188 612.535156 573.480469 606.929688 570.183594 601.230469 C 567.496094 603.5 564.777344 605.808594 561.796875 607.550781 C 557.339844 610.160156 552.847656 612.667969 548.585938 615.585938 C 539.777344 621.617188 530.890625 627.507812 522.207031 633.71875 C 518.042969 636.691406 513.613281 639.261719 509.269531 641.972656 C 507.5625 643.039062 505.863281 644.125 504.160156 645.207031 C 502.699219 646.132812 501.238281 647.058594 499.777344 647.984375 C 499.304688 648.285156 498.839844 648.617188 498.351562 648.890625 C 498.300781 648.917969 498.28125 648.925781 498.246094 648.949219 C 490.882812 656.027344 481.847656 660.863281 473.796875 667.019531 C 472.164062 668.265625 470.535156 669.511719 468.90625 670.757812 C 468.402344 671.144531 467.898438 671.527344 467.394531 671.910156 C 467.390625 671.917969 467.394531 671.914062 467.386719 671.921875 C 465.027344 674.289062 462.117188 676.273438 459.539062 678.398438 C 456.890625 680.585938 454.421875 682.988281 451.976562 685.410156 Z M 416.585938 488.53125 C 417.632812 489.425781 418.714844 490.277344 419.804688 491.117188 C 419.367188 490.695312 418.925781 490.273438 418.488281 489.847656 C 416.246094 487.671875 413.78125 485.71875 411.324219 483.757812 C 413.046875 485.386719 414.789062 487 416.585938 488.53125 Z M 411.578125 475.578125 C 412.09375 476.027344 412.621094 476.464844 413.148438 476.902344 C 414.675781 476.730469 416.203125 476.578125 417.726562 476.5 C 419.777344 476.394531 421.871094 476.542969 423.921875 476.566406 C 425.511719 476.585938 427.101562 476.601562 428.691406 476.621094 C 429.28125 476.625 430.90625 476.324219 431.386719 476.648438 C 431.390625 476.652344 431.378906 476.65625 431.378906 476.660156 C 431.6875 476.617188 432 476.574219 432.308594 476.53125 C 433.773438 476.332031 435.238281 476.132812 436.703125 475.929688 C 439.164062 475.59375 441.621094 475.253906 444.082031 474.917969 C 448.765625 474.285156 453.648438 474.046875 458.367188 473.882812 C 462.855469 473.726562 467.386719 474.078125 471.875 474.140625 C 476.316406 474.203125 480.773438 474.121094 485.21875 474.0625 C 489.648438 474.007812 494.105469 473.457031 498.523438 473.132812 C 500.132812 473.011719 501.6875 473.320312 503.28125 473.539062 C 506.328125 473.953125 509.371094 474.367188 512.417969 474.78125 C 512.765625 474.828125 513.109375 474.875 513.457031 474.921875 C 513.476562 474.914062 513.476562 474.90625 513.507812 474.898438 C 514.460938 474.558594 516.230469 474.878906 517.222656 474.875 C 520.308594 474.855469 523.390625 474.835938 526.472656 474.820312 C 530.433594 474.800781 534.394531 474.796875 538.355469 474.789062 C 540.390625 470.511719 542.285156 466.082031 545.222656 462.382812 C 547.382812 459.664062 549.527344 456.9375 551.699219 454.230469 C 551.683594 454.238281 551.671875 454.246094 551.671875 454.234375 C 551.65625 453.859375 552.242188 453.039062 552.394531 452.722656 C 553.214844 451.011719 554.035156 449.296875 554.855469 447.582031 C 555.84375 445.527344 556.671875 443.351562 558.011719 441.5 C 560.113281 438.597656 562.214844 435.695312 564.3125 432.792969 C 567.171875 428.851562 569.351562 424.414062 571.957031 420.304688 C 574.078125 416.953125 576.214844 413.609375 578.484375 410.359375 C 577.761719 411.226562 577.046875 412.101562 576.316406 412.960938 C 574.492188 415.117188 572.636719 417.253906 570.796875 419.402344 C 569.777344 420.597656 568.773438 421.8125 567.730469 422.984375 C 567.699219 423.015625 567.699219 423.019531 567.675781 423.046875 C 567.730469 422.972656 567.785156 422.894531 567.839844 422.800781 C 567.785156 422.898438 567.710938 422.984375 567.648438 423.082031 C 567.402344 423.367188 567.445312 423.347656 567.589844 423.164062 C 567.4375 423.386719 567.289062 423.609375 567.140625 423.824219 C 563.914062 428.554688 560.878906 433.34375 557.085938 437.640625 C 555.03125 439.96875 553.085938 442.714844 550.78125 444.808594 C 550.589844 445.320312 550.1875 445.824219 549.914062 446.289062 C 548.984375 447.878906 548.058594 449.464844 547.128906 451.054688 C 544.234375 456.003906 541.390625 460.980469 538.546875 465.960938 C 538.089844 466.765625 537.628906 467.574219 537.167969 468.378906 C 536.425781 469.679688 535.230469 470.085938 534.097656 469.921875 C 516.25 469.136719 498.4375 468.460938 480.574219 468.382812 C 471.648438 468.34375 462.8125 467.765625 453.902344 467.445312 C 449.515625 467.289062 445 467.957031 440.621094 468.25 C 436.207031 468.546875 431.800781 469.035156 427.398438 469.4375 C 420.5 470.070312 413.640625 470.703125 406.753906 471.222656 C 408.351562 472.691406 409.949219 474.152344 411.578125 475.578125 Z M 411.578125 475.578125 " fill-opacity="1" fill-rule="nonzero"/></svg>